ply
format ascii 1.0
comment Created by Blender 2.81 (sub 16) - www.blender.org, source file: 'suz.blend'
element vertex 556
property float x
property float y
property float z
property float s
property float t
property uchar red
property uchar green
property uchar blue
property uchar alpha
element face 967
property list uchar uint vertex_indices
end_header
0.468750 -0.757812 0.242188 0.890955 0.590063 188 188 188 255
0.500000 -0.687500 0.093750 0.860081 0.560115 231 231 231 255
0.562500 -0.671875 0.242188 0.904571 0.559404 230 230 230 255
-0.500000 -0.687500 0.093750 0.856226 0.850547 247 247 247 255
-0.468750 -0.757812 0.242188 0.888398 0.821999 186 186 186 255
-0.562500 -0.671875 0.242188 0.900640 0.853232 190 190 190 255
0.546875 -0.578125 0.054688 0.853018 0.521562 253 253 253 255
0.625000 -0.562500 0.242188 0.920166 0.524546 251 251 251 255
-0.546875 -0.578125 0.054688 0.847458 0.888748 240 240 240 255
-0.625000 -0.562500 0.242188 0.914672 0.888748 251 251 251 255
0.351562 -0.617188 -0.023438 0.798481 0.569535 237 237 237 255
-0.351562 -0.617188 -0.023438 0.795104 0.838402 230 230 230 255
0.437500 -0.765625 0.164062 0.870622 0.589649 188 188 188 255
0.351562 -0.718750 0.031250 0.828900 0.590771 249 249 249 255
-0.351562 -0.718750 0.031250 0.826436 0.818537 239 239 239 255
-0.437500 -0.765625 0.164062 0.868067 0.821510 225 225 225 255
0.351562 -0.781250 0.132812 0.854402 0.604754 208 208 208 255
0.203125 -0.742188 0.093750 0.828171 0.633354 243 243 243 255
-0.203125 -0.742188 0.093750 0.827598 0.775964 244 244 244 255
-0.351562 -0.781250 0.132812 0.852534 0.805700 202 202 202 255
0.156250 -0.648438 0.054688 0.791018 0.645443 247 247 247 255
-0.156250 -0.648438 0.054688 0.791018 0.762238 238 238 238 255
0.140625 -0.742188 0.242188 0.855181 0.668527 239 239 239 255
-0.140625 -0.742188 0.242188 0.856142 0.742025 253 253 253 255
-0.078125 -0.656250 0.242188 0.844839 0.707525 253 253 253 255
0.242188 -0.796875 0.242188 0.867508 0.642291 206 206 206 255
0.273438 -0.796875 0.164062 0.854107 0.625459 208 208 208 255
-0.242188 -0.796875 0.242188 0.867293 0.768782 207 207 207 255
0.203125 -0.742188 0.390625 0.900375 0.666964 252 252 252 255
-0.203125 -0.742188 0.390625 0.901223 0.745592 239 239 239 255
0.078125 -0.656250 0.242188 0.842358 0.702491 255 255 255 255
-0.156250 -0.648438 0.437500 0.921180 0.713713 252 252 252 255
0.351562 -0.718750 0.453125 0.931889 0.636832 255 255 255 255
0.156250 -0.648438 0.437500 0.918898 0.699697 249 249 249 255
-0.351562 -0.718750 0.453125 0.931368 0.777093 255 255 255 255
-0.351562 -0.617188 0.515625 0.968213 0.770220 188 188 188 255
0.351562 -0.781250 0.359375 0.905882 0.627902 230 230 230 255
0.273438 -0.796875 0.328125 0.890474 0.641909 199 199 199 255
-0.351562 -0.781250 0.359375 0.904990 0.784860 188 188 188 255
0.437500 -0.765625 0.328125 0.906232 0.605742 188 188 188 255
-0.437500 -0.765625 0.328125 0.904357 0.807013 205 205 205 255
-0.500000 -0.687500 0.390625 0.931250 0.820926 255 255 255 255
0.500000 -0.687500 0.390625 0.933717 0.593037 251 251 251 255
0.351562 -0.617188 0.515625 0.968392 0.645333 199 199 199 255
-0.546875 -0.578125 0.437500 0.965038 0.841671 254 254 254 255
0.546875 -0.578125 0.437500 0.968392 0.573812 255 255 255 255
0.476562 -0.773438 0.242188 0.889591 0.593275 221 221 221 255
-0.476562 -0.773438 0.242188 0.887178 0.818729 246 246 246 255
-0.445312 -0.781250 0.335938 0.900583 0.804677 230 230 230 255
0.445312 -0.781250 0.335938 0.902359 0.607909 230 230 230 255
-0.351562 -0.804688 0.375000 0.898822 0.786233 255 255 255 255
0.351562 -0.804688 0.375000 0.899781 0.626257 239 239 239 255
-0.273438 -0.796875 0.328125 0.890219 0.770183 209 209 209 255
-0.265625 -0.820312 0.335938 0.887351 0.775442 255 255 255 255
0.265625 -0.820312 0.335938 0.887842 0.636527 230 230 230 255
-0.226562 -0.820312 0.242188 0.870376 0.775972 240 240 240 255
0.265625 -0.820312 0.156250 0.859881 0.623942 254 254 254 255
0.226562 -0.820312 0.242188 0.870908 0.635245 218 218 218 255
-0.265625 -0.820312 0.156250 0.858859 0.786774 243 243 243 255
0.351562 -0.804688 0.117188 0.859664 0.608186 245 245 245 255
-0.351562 -0.804688 0.117188 0.857942 0.802505 250 250 250 255
-0.273438 -0.796875 0.164062 0.853157 0.785002 203 203 203 255
0.445312 -0.781250 0.156250 0.871664 0.593961 248 248 248 255
-0.445312 -0.781250 0.156250 0.869299 0.817249 252 252 252 255
0.351562 -0.828125 0.242188 0.879400 0.616512 255 255 255 255
-0.351562 -0.828125 0.242188 0.878029 0.795063 254 254 254 255
0.164062 -0.632812 -0.929688 0.536419 0.062072 255 255 255 255
0.000000 -0.578125 -0.984375 0.518916 0.050294 255 255 255 255
0.179688 -0.554688 -0.968750 0.540260 0.053805 255 255 255 255
-0.164062 -0.632812 -0.929688 0.501452 0.062043 255 255 255 255
0.000000 -0.640625 -0.945312 0.518925 0.059681 255 255 255 255
0.234375 -0.632812 -0.914062 0.542788 0.064089 255 255 255 255
0.328125 -0.523438 -0.945312 0.551930 0.058338 255 255 255 255
-0.234375 -0.632812 -0.914062 0.495083 0.064047 255 255 255 255
-0.179688 -0.554688 -0.968750 0.497626 0.053770 255 255 255 255
0.367188 -0.531250 -0.890625 0.555073 0.061900 255 255 255 255
-0.367188 -0.531250 -0.890625 0.482805 0.061829 255 255 255 255
-0.328125 -0.523438 -0.945312 0.485955 0.058273 255 255 255 255
0.351562 -0.570312 -0.695312 0.563812 0.076586 249 249 249 255
0.265625 -0.664062 -0.820312 0.546290 0.072669 255 255 255 255
-0.265625 -0.664062 -0.820312 0.491565 0.072625 255 255 255 255
-0.351562 -0.570312 -0.695312 0.474014 0.076511 254 254 254 255
0.312500 -0.570312 -0.437500 0.583135 0.108495 208 208 208 255
0.250000 -0.687500 -0.703125 0.548333 0.084893 253 253 253 255
-0.250000 -0.687500 -0.703125 0.489507 0.084858 255 255 255 255
-0.312500 -0.570312 -0.437500 0.454527 0.108481 240 240 240 255
0.203125 -0.562500 -0.187500 0.605512 0.165134 178 178 178 255
0.398438 -0.671875 -0.046875 0.621513 0.227818 239 239 239 255
0.125000 -0.812500 -0.101562 0.553118 0.209599 242 242 242 255
-0.398438 -0.671875 -0.046875 0.416514 0.229490 232 232 232 255
-0.203125 -0.562500 -0.187500 0.432024 0.165644 172 172 172 255
-0.125000 -0.812500 -0.101562 0.485339 0.210053 236 236 236 255
0.632812 -0.539062 -0.039062 0.676379 0.233241 241 241 241 255
0.437500 -0.531250 -0.140625 0.647395 0.200502 205 205 205 255
-0.632812 -0.539062 -0.039062 0.360308 0.235899 223 223 223 255
-0.617188 -0.625000 0.054688 0.372747 0.256357 246 246 246 255
0.726562 -0.601562 0.203125 0.683908 0.279995 248 248 248 255
0.617188 -0.625000 0.054688 0.664761 0.253225 253 253 253 255
-0.726562 -0.601562 0.203125 0.353696 0.284606 251 251 251 255
0.859375 -0.593750 0.429688 0.707254 0.310054 255 255 255 255
0.828125 -0.445312 0.148438 0.715342 0.265392 234 234 234 255
-0.859375 -0.593750 0.429688 0.330721 0.316853 253 253 253 255
-0.742188 -0.656250 0.375000 0.351187 0.317440 254 254 254 255
0.710938 -0.625000 0.484375 0.697446 0.332673 255 255 255 255
0.742188 -0.656250 0.375000 0.687515 0.311539 255 255 255 255
-0.710938 -0.625000 0.484375 0.341964 0.339667 255 255 255 255
-0.687500 -0.726562 0.414062 0.362723 0.329722 255 255 255 255
0.492188 -0.687500 0.601562 0.662817 0.372521 255 255 255 255
0.687500 -0.726562 0.414062 0.676824 0.323937 255 255 255 255
-0.492188 -0.687500 0.601562 0.379297 0.378686 255 255 255 255
-0.437500 -0.796875 0.546875 0.402772 0.362131 255 255 255 255
0.312500 -0.835938 0.640625 0.618316 0.375151 255 255 255 255
0.437500 -0.796875 0.546875 0.639050 0.357330 255 255 255 255
-0.312500 -0.835938 0.640625 0.424583 0.379267 255 255 255 255
0.156250 -0.757812 0.718750 0.604826 0.397804 255 255 255 255
0.320312 -0.734375 0.757812 0.626842 0.395792 255 255 255 255
-0.156250 -0.757812 0.718750 0.439252 0.401540 255 255 255 255
-0.203125 -0.851562 0.617188 0.442396 0.381222 255 255 255 255
0.062500 -0.750000 0.492188 0.553095 0.390512 255 255 255 255
0.203125 -0.851562 0.617188 0.600808 0.377857 255 255 255 255
-0.062500 -0.750000 0.492188 0.490934 0.391862 255 255 255 255
-0.101562 -0.843750 0.429688 0.482938 0.358497 255 255 255 255
0.000000 -0.742188 0.429688 0.521923 0.386009 237 237 237 255
0.101562 -0.843750 0.429688 0.559674 0.357011 255 255 255 255
0.000000 -0.820312 0.351562 0.521086 0.343868 255 255 255 255
0.250000 -0.757812 0.468750 0.599845 0.344815 255 255 255 255
0.164062 -0.773438 0.414062 0.577279 0.340156 255 255 255 255
-0.250000 -0.757812 0.468750 0.441977 0.347815 255 255 255 255
0.328125 -0.742188 0.476562 0.615546 0.342005 255 255 255 255
0.429688 -0.718750 0.437500 0.634472 0.332311 255 255 255 255
-0.328125 -0.742188 0.476562 0.425972 0.345582 255 255 255 255
0.601562 -0.664062 0.375000 0.662406 0.312804 255 255 255 255
-0.429688 -0.718750 0.437500 0.406362 0.336480 255 255 255 255
0.640625 -0.648438 0.296875 0.668440 0.297958 255 255 255 255
-0.601562 -0.664062 0.375000 0.377061 0.317685 255 255 255 255
0.625000 -0.648438 0.187500 0.664101 0.277872 254 254 254 255
-0.640625 -0.648438 0.296875 0.370304 0.302644 255 255 255 255
0.492188 -0.671875 0.062500 0.639236 0.253047 254 254 254 255
-0.625000 -0.648438 0.187500 0.374100 0.281778 254 254 254 255
0.375000 -0.703125 0.015625 0.613992 0.242662 247 247 247 255
-0.492188 -0.671875 0.062500 0.398938 0.255633 245 245 245 255
0.203125 -0.742188 0.093750 0.572941 0.258564 250 250 250 255
-0.203125 -0.742188 0.093750 0.466409 0.259709 241 241 241 255
-0.375000 -0.703125 0.015625 0.424464 0.244473 237 237 237 255
0.000000 -0.726562 0.046875 0.519760 0.248864 248 248 248 255
0.125000 -0.765625 0.304688 0.558527 0.316594 255 255 255 255
-0.125000 -0.765625 0.304688 0.482619 0.317843 255 255 255 255
0.000000 -0.765625 0.210938 0.520277 0.294764 254 254 254 255
0.132812 -0.757812 0.210938 0.556923 0.291214 255 255 255 255
-0.132812 -0.757812 0.210938 0.483433 0.292249 253 253 253 255
0.164062 -0.750000 0.140625 0.563905 0.272007 254 254 254 255
-0.164062 -0.750000 0.140625 0.475886 0.273078 248 248 248 255
0.062500 -0.695312 -0.882812 0.525483 0.068967 255 255 255 255
-0.062500 -0.695312 -0.882812 0.512375 0.068956 255 255 255 255
0.117188 -0.710938 -0.835938 0.531231 0.073829 255 255 255 255
-0.117188 -0.710938 -0.835938 0.506626 0.073811 255 255 255 255
0.109375 -0.734375 -0.718750 0.531019 0.087431 255 255 255 255
0.210938 -0.710938 -0.445312 0.555621 0.121749 247 247 247 255
0.117188 -0.734375 -0.687500 0.532669 0.090920 254 254 254 255
-0.117188 -0.734375 -0.687500 0.505177 0.090908 255 255 255 255
-0.210938 -0.710938 -0.445312 0.482177 0.121781 245 245 245 255
-0.109375 -0.734375 -0.718750 0.506827 0.087416 255 255 255 255
0.000000 -0.742188 -0.328125 0.518981 0.151749 202 202 202 255
0.078125 -0.750000 -0.445312 0.532042 0.127713 253 253 253 255
0.085938 -0.742188 -0.289062 0.538112 0.158382 196 196 196 255
-0.078125 -0.750000 -0.445312 0.505828 0.127728 250 250 250 255
0.000000 -0.750000 -0.445312 0.518941 0.128358 252 252 252 255
0.000000 -0.734375 -0.679688 0.518925 0.093952 255 255 255 255
0.000000 -0.734375 -0.765625 0.518927 0.085180 255 255 255 255
0.125000 -0.750000 -0.226562 0.548362 0.173560 196 196 196 255
0.093750 -0.781250 -0.273438 0.535214 0.166808 243 243 243 255
-0.093750 -0.781250 -0.273438 0.502799 0.166857 243 243 243 255
-0.125000 -0.750000 -0.226562 0.489683 0.173693 212 212 212 255
-0.085938 -0.742188 -0.289062 0.499851 0.158434 196 196 196 255
0.109375 -0.781250 -0.132812 0.537248 0.187577 205 205 205 255
0.101562 -0.742188 -0.148438 0.544281 0.193366 198 198 198 255
-0.109375 -0.781250 -0.132812 0.500890 0.187571 234 234 234 255
-0.132812 -0.796875 -0.226562 0.500100 0.176033 240 240 240 255
0.039062 -0.781250 -0.125000 0.528757 0.191785 245 245 245 255
0.000000 -0.742188 -0.140625 0.519841 0.200843 183 183 183 255
-0.039062 -0.781250 -0.125000 0.509219 0.191626 220 220 220 255
-0.101562 -0.742188 -0.148438 0.493996 0.193428 185 185 185 255
0.000000 -0.796875 -0.187500 0.519132 0.185382 245 245 245 255
0.000000 -0.750000 -0.195312 0.517577 0.190607 240 240 240 255
0.000000 -0.781250 -0.320312 0.518998 0.159028 224 224 224 255
0.000000 -0.804688 -0.289062 0.519016 0.165599 248 248 248 255
-0.078125 -0.804688 -0.250000 0.506910 0.171667 245 245 245 255
0.046875 -0.812500 -0.148438 0.528222 0.186316 248 248 248 255
-0.046875 -0.812500 -0.148438 0.509787 0.186260 245 245 245 255
0.093750 -0.812500 -0.156250 0.533528 0.184215 248 248 248 255
-0.093750 -0.812500 -0.156250 0.504547 0.184206 242 242 242 255
0.132812 -0.796875 -0.226562 0.537959 0.175966 226 226 226 255
-0.109375 -0.828125 -0.226562 0.504604 0.176791 243 243 243 255
0.078125 -0.804688 -0.250000 0.531131 0.171631 249 249 249 255
0.109375 -0.828125 -0.226562 0.533449 0.176739 249 249 249 255
0.000000 -0.828125 -0.203125 0.519099 0.179457 248 248 248 255
0.164062 -0.710938 -0.242188 0.561572 0.167779 233 233 233 255
-0.164062 -0.710938 -0.242188 0.476363 0.167996 233 233 233 255
-0.179688 -0.710938 -0.312500 0.478371 0.149447 235 235 235 255
0.179688 -0.710938 -0.312500 0.559475 0.149319 234 234 234 255
0.257812 -0.554688 -0.312500 0.596138 0.133426 182 182 182 255
-0.257812 -0.554688 -0.312500 0.441395 0.133592 204 204 204 255
0.234375 -0.554688 -0.250000 0.601169 0.147885 177 177 177 255
-0.234375 -0.554688 -0.250000 0.436337 0.148194 176 176 176 255
0.093750 -0.726562 -0.742188 0.528933 0.084957 255 255 255 255
-0.093750 -0.726562 -0.742188 0.508915 0.084945 254 254 254 255
0.000000 -0.718750 -0.773438 0.518925 0.083865 219 219 219 255
0.093750 -0.710938 -0.820312 0.529036 0.075429 255 255 255 255
-0.093750 -0.710938 -0.820312 0.508820 0.075415 254 254 254 255
0.046875 -0.687500 -0.867188 0.523751 0.070508 253 253 253 255
-0.046875 -0.687500 -0.867188 0.514106 0.070501 251 251 251 255
0.000000 -0.687500 -0.890625 0.518928 0.067899 254 254 254 255
0.000000 -0.687500 -0.875000 0.518929 0.069468 250 250 250 255
0.000000 -0.632812 -0.859375 0.518928 0.074259 227 227 227 255
-0.046875 -0.632812 -0.851562 0.516297 0.074966 218 218 218 255
0.093750 -0.640625 -0.812500 0.524236 0.076691 229 229 229 255
0.046875 -0.632812 -0.851562 0.521560 0.074970 223 223 223 255
-0.093750 -0.640625 -0.812500 0.513619 0.076684 227 227 227 255
0.093750 -0.664062 -0.750000 0.524601 0.079886 229 229 229 255
-0.093750 -0.664062 -0.750000 0.513252 0.079879 220 220 220 255
0.000000 -0.656250 -0.781250 0.518926 0.079331 209 209 209 255
0.187500 -0.773438 0.156250 0.571787 0.277295 227 227 227 255
0.171875 -0.781250 0.218750 0.568351 0.292904 230 230 230 255
-0.187500 -0.773438 0.156250 0.468070 0.278617 250 250 250 255
-0.171875 -0.781250 0.218750 0.471978 0.294282 253 253 253 255
0.179688 -0.781250 0.296875 0.573085 0.311386 230 230 230 255
-0.179688 -0.781250 0.296875 0.467790 0.313081 254 254 254 255
0.210938 -0.781250 0.375000 0.584855 0.327708 230 230 230 255
-0.210938 -0.781250 0.375000 0.456477 0.329961 255 255 255 255
-0.226562 -0.781250 0.109375 0.458737 0.268049 243 243 243 255
0.375000 -0.742188 0.062500 0.611720 0.255725 251 251 251 255
0.226562 -0.781250 0.109375 0.580734 0.266620 228 228 228 255
-0.375000 -0.742188 0.062500 0.427062 0.257728 242 242 242 255
0.476562 -0.718750 0.101562 0.632494 0.262853 230 230 230 255
-0.476562 -0.718750 0.101562 0.406068 0.265508 248 248 248 255
0.578125 -0.679688 0.195312 0.653658 0.279971 245 245 245 255
-0.578125 -0.679688 0.195312 0.384904 0.283634 253 253 253 255
0.585938 -0.687500 0.289062 0.656064 0.297636 255 255 255 255
-0.585938 -0.687500 0.289062 0.383015 0.301864 254 254 254 255
-0.562500 -0.695312 0.351562 0.386858 0.314615 238 238 238 255
0.562500 -0.695312 0.351562 0.652752 0.310186 255 255 255 255
-0.421875 -0.773438 0.398438 0.411556 0.327673 255 255 255 255
0.335938 -0.757812 0.429688 0.614408 0.331972 251 251 251 255
0.421875 -0.773438 0.398438 0.629040 0.323864 246 246 246 255
-0.335938 -0.757812 0.429688 0.426727 0.335361 255 255 255 255
0.273438 -0.773438 0.421875 0.601033 0.333624 255 255 255 255
-0.273438 -0.773438 0.421875 0.440344 0.336537 255 255 255 255
0.234375 -0.757812 0.359375 0.590644 0.321516 237 237 237 255
0.281250 -0.765625 0.398438 0.601799 0.328453 248 248 248 255
-0.234375 -0.757812 0.359375 0.450408 0.323919 230 230 230 255
-0.281250 -0.765625 0.398438 0.439372 0.331331 230 230 230 255
0.335938 -0.750000 0.406250 0.613335 0.327083 230 230 230 255
-0.335938 -0.750000 0.406250 0.427623 0.330358 237 237 237 255
0.414062 -0.750000 0.390625 0.626851 0.320513 230 230 230 255
-0.414062 -0.750000 0.390625 0.413648 0.324175 230 230 230 255
0.531250 -0.679688 0.335938 0.646248 0.306421 230 230 230 255
-0.531250 -0.679688 0.335938 0.393381 0.310510 221 221 221 255
0.554688 -0.671875 0.281250 0.649541 0.296225 249 249 249 255
-0.554688 -0.671875 0.281250 0.389662 0.300183 209 209 209 255
0.546875 -0.671875 0.210938 0.647785 0.283486 230 230 230 255
-0.546875 -0.671875 0.210938 0.391040 0.287071 202 202 202 255
0.460938 -0.703125 0.117188 0.629829 0.267263 230 230 230 255
-0.460938 -0.703125 0.117188 0.408893 0.269959 214 214 214 255
0.375000 -0.726562 0.085938 0.612641 0.261560 228 228 228 255
-0.375000 -0.726562 0.085938 0.426254 0.263693 220 220 220 255
0.242188 -0.757812 0.125000 0.585166 0.270991 229 229 229 255
-0.242188 -0.757812 0.125000 0.454369 0.272583 222 222 222 255
0.203125 -0.750000 0.171875 0.578124 0.281900 208 208 208 255
-0.203125 -0.750000 0.171875 0.461798 0.283441 225 225 225 255
0.195312 -0.757812 0.296875 0.579548 0.309340 237 237 237 255
-0.195312 -0.757812 0.296875 0.461204 0.311233 230 230 230 255
0.195312 -0.750000 0.226562 0.577524 0.293776 208 208 208 255
-0.195312 -0.750000 0.226562 0.462754 0.295432 228 228 228 255
0.109375 -0.609375 0.460938 0.553209 0.433063 139 139 139 255
0.000000 -0.601562 0.406250 0.523031 0.433628 227 227 227 255
-0.109375 -0.609375 0.460938 0.492809 0.434538 157 157 157 255
0.195312 -0.617188 0.664062 0.609819 0.431516 255 255 255 255
-0.195312 -0.617188 0.664062 0.435860 0.435740 250 250 250 255
-0.320312 -0.734375 0.757812 0.416915 0.400552 255 255 255 255
-0.335938 -0.593750 0.687500 0.396518 0.425416 255 255 255 255
0.335938 -0.593750 0.687500 0.648174 0.419316 255 255 255 255
-0.484375 -0.554688 0.554688 0.350292 0.396229 154 154 154 255
0.484375 -0.554688 0.554688 0.692106 0.388274 205 205 205 255
-0.679688 -0.492188 0.453125 0.312756 0.350588 224 224 224 255
0.796875 -0.460938 0.406250 0.735879 0.312112 251 251 251 255
0.679688 -0.492188 0.453125 0.726332 0.341754 230 230 230 255
-0.796875 -0.460938 0.406250 0.301067 0.320593 241 241 241 255
-0.828125 -0.445312 0.148438 0.320452 0.270303 236 236 236 255
-0.773438 -0.375000 0.164062 0.304876 0.261087 226 226 226 255
0.601562 -0.414062 0.000000 0.698172 0.216906 194 194 194 255
0.773438 -0.375000 0.164062 0.729900 0.256393 228 228 228 255
-0.601562 -0.414062 0.000000 0.337414 0.219179 201 201 201 255
0.437500 -0.468750 -0.093750 0.663103 0.190671 153 153 153 255
-0.437500 -0.468750 -0.093750 0.373474 0.191872 123 123 123 255
0.000000 -0.281250 -0.484375 0.649444 0.022378 133 133 133 255
0.125000 -0.359375 -0.539062 0.621440 0.048089 175 175 175 255
0.000000 -0.320312 -0.570312 0.626908 0.015608 159 159 159 255
0.000000 -0.281250 -0.484375 0.388827 0.021586 133 133 133 255
-0.125000 -0.359375 -0.539062 0.416419 0.047631 167 167 167 255
-0.179688 -0.257812 -0.414062 0.376796 0.075296 154 154 154 255
0.140625 -0.367188 -0.757812 0.577206 0.032801 234 234 234 255
0.000000 -0.343750 -0.804688 0.567460 0.000144 229 229 229 255
0.000000 -0.320312 -0.570312 0.411318 0.015131 159 159 159 255
-0.140625 -0.367188 -0.757812 0.460782 0.032656 226 226 226 255
0.164062 -0.437500 -0.945312 0.547413 0.041724 254 254 254 255
0.000000 -0.460938 -0.976562 0.518922 0.024886 254 254 254 255
0.000000 -0.343750 -0.804688 0.470636 0.000144 229 229 229 255
-0.164062 -0.437500 -0.945312 0.490511 0.041669 254 254 254 255
0.328125 -0.398438 -0.914062 0.558059 0.053871 255 255 255 255
-0.328125 -0.398438 -0.914062 0.479842 0.053785 254 254 254 255
0.289062 -0.382812 -0.710938 0.576951 0.057998 242 242 242 255
-0.289062 -0.382812 -0.710938 0.460920 0.057845 243 243 243 255
0.250000 -0.390625 -0.500000 0.611687 0.078268 233 233 233 255
-0.250000 -0.390625 -0.500000 0.425932 0.077985 237 237 237 255
0.179688 -0.257812 -0.414062 0.660451 0.076084 173 173 173 255
0.234375 -0.406250 -0.351562 0.626663 0.111357 177 177 177 255
-0.234375 -0.406250 -0.351562 0.410618 0.111244 177 177 177 255
0.218750 -0.429688 -0.281250 0.629482 0.130456 145 145 145 255
-0.218750 -0.429688 -0.281250 0.407648 0.130594 134 134 134 255
-0.210938 -0.468750 -0.226562 0.413741 0.147158 127 127 127 255
0.203125 -0.500000 -0.171875 0.619303 0.159841 128 128 128 255
-0.203125 -0.500000 -0.171875 0.418035 0.160361 132 132 132 255
-0.437500 -0.531250 -0.140625 0.389677 0.201890 211 211 211 255
0.335938 0.664062 0.054688 0.886245 0.121777 254 254 254 255
0.000000 0.671875 -0.195312 0.891780 0.036916 245 245 245 255
0.000000 0.828125 0.070312 0.945900 0.079569 254 254 254 255
-0.335938 0.664062 0.054688 0.141314 0.112482 253 253 253 255
0.000000 0.671875 -0.195312 0.142277 0.021467 245 245 245 255
-0.343750 0.539062 -0.148438 0.183115 0.092127 245 245 245 255
0.343750 0.539062 -0.148438 0.849114 0.099732 249 249 249 255
0.000000 0.351562 -0.382812 0.805584 0.010786 231 231 231 255
0.000000 0.351562 -0.382812 0.232648 0.003484 231 231 231 255
-0.296875 0.265625 -0.312500 0.246353 0.076510 231 231 231 255
0.210938 -0.164062 -0.390625 0.687018 0.077204 167 167 167 255
0.000000 -0.187500 -0.460938 0.672384 0.022201 169 169 169 255
-0.210938 -0.164062 -0.390625 0.349875 0.075955 161 161 161 255
0.000000 -0.187500 -0.460938 0.365979 0.020991 169 169 169 255
0.734375 -0.070312 -0.046875 0.760215 0.193244 234 234 234 255
0.851562 -0.054688 0.234375 0.789046 0.233323 253 253 253 255
-0.734375 -0.070312 -0.046875 0.271553 0.193871 243 243 243 255
-0.851562 -0.054688 0.234375 0.241255 0.236977 236 236 236 255
0.460938 0.703125 0.437500 0.909112 0.183261 255 255 255 255
0.000000 0.851562 0.562500 0.994525 0.167705 255 255 255 255
-0.460938 0.703125 0.437500 0.107928 0.179083 255 255 255 255
0.000000 0.828125 0.070312 0.078961 0.060719 254 254 254 255
0.453125 -0.234375 0.851562 0.862868 0.338556 255 255 255 255
0.000000 0.078125 0.984375 0.962901 0.344752 255 255 255 255
0.000000 -0.289062 0.898438 0.911671 0.402429 255 255 255 255
-0.453125 -0.234375 0.851562 0.160557 0.356821 255 255 255 255
0.000000 0.078125 0.984375 0.043968 0.367038 255 255 255 255
-0.453125 0.070312 0.929688 0.123776 0.315519 255 255 255 255
0.453125 0.382812 0.867188 0.915360 0.259804 255 255 255 255
0.000000 0.546875 0.898438 0.999856 0.254640 255 255 255 255
-0.453125 0.382812 0.867188 0.098965 0.266968 255 255 255 255
0.000000 0.546875 0.898438 0.000144 0.259113 255 255 255 255
0.000000 0.851562 0.562500 0.011829 0.155367 255 255 255 255
0.679688 -0.492188 0.453125 0.749542 0.334683 230 230 230 255
0.726562 -0.335938 0.406250 0.766337 0.300809 254 254 254 255
0.632812 -0.281250 0.453125 0.789162 0.313727 255 255 255 255
-0.726562 -0.335938 0.406250 0.267408 0.310142 242 242 242 255
-0.679688 -0.492188 0.453125 0.288183 0.346496 224 224 224 255
-0.632812 -0.281250 0.453125 0.242992 0.325552 253 253 253 255
0.796875 -0.125000 0.562500 0.815314 0.276388 255 255 255 255
0.640625 -0.054688 0.703125 0.846174 0.293397 255 255 255 255
-0.796875 -0.125000 0.562500 0.213065 0.285164 255 255 255 255
-0.640625 -0.054688 0.703125 0.178537 0.304983 255 255 255 255
0.796875 0.117188 0.617188 0.845007 0.256352 255 255 255 255
0.640625 0.195312 0.750000 0.873517 0.265922 255 255 255 255
-0.796875 0.117188 0.617188 0.179662 0.263312 255 255 255 255
-0.640625 0.195312 0.750000 0.147089 0.274284 255 255 255 255
0.796875 0.359375 0.539062 0.859075 0.228168 255 255 255 255
0.640625 0.445312 0.679688 0.886999 0.233769 255 255 255 255
-0.796875 0.359375 0.539062 0.162803 0.231720 254 254 254 255
-0.640625 0.445312 0.679688 0.131514 0.237587 255 255 255 255
0.617188 0.585938 0.328125 0.875030 0.184705 255 255 255 255
0.773438 0.437500 0.265625 0.842355 0.195160 214 214 214 255
-0.617188 0.585938 0.328125 0.145224 0.182749 252 252 252 255
0.453125 0.070312 0.929688 0.894128 0.301884 255 255 255 255
0.460938 -0.429688 0.523438 0.794286 0.364062 253 253 253 255
0.484375 -0.554688 0.554688 0.770185 0.379538 205 205 205 255
-0.460938 -0.429688 0.523438 0.239776 0.382592 243 243 243 255
0.000000 -0.570312 0.570312 0.845499 0.449967 229 229 229 255
0.000000 -0.289062 0.898438 0.106400 0.432652 255 255 255 255
0.195312 -0.617188 0.664062 0.770572 0.444261 255 255 255 255
0.109375 -0.609375 0.460938 0.815858 0.445381 139 139 139 255
-0.195312 -0.617188 0.664062 0.271364 0.473316 250 250 250 255
-0.484375 -0.554688 0.554688 0.268122 0.398737 154 154 154 255
-0.335938 -0.593750 0.687500 0.287033 0.442912 255 255 255 255
-0.109375 -0.609375 0.460938 0.219260 0.477186 157 157 157 255
0.000000 -0.570312 0.570312 0.185281 0.484099 229 229 229 255
0.000000 -0.601562 0.406250 0.819845 0.468071 227 227 227 255
0.000000 -0.601562 0.406250 0.215894 0.503605 227 227 227 255
0.859375 0.046875 0.320312 0.809631 0.233887 255 255 255 255
-0.859375 0.046875 0.320312 0.219168 0.237388 252 252 252 255
0.820312 0.203125 0.328125 0.829287 0.219562 255 255 255 255
-0.820312 0.203125 0.328125 0.199067 0.222464 208 208 208 255
0.296875 0.265625 -0.312500 0.788458 0.080826 236 236 236 255
0.406250 -0.148438 -0.171875 0.715482 0.139727 162 162 162 255
-0.406250 -0.148438 -0.171875 0.319538 0.139409 188 188 188 255
-0.429688 0.210938 -0.195312 0.246666 0.114850 237 237 237 255
0.593750 0.164062 -0.125000 0.785486 0.152330 253 253 253 255
-0.593750 0.164062 -0.125000 0.245969 0.151002 224 224 224 255
0.210938 -0.468750 -0.226562 0.623495 0.146796 122 122 122 255
0.640625 0.429688 -0.007812 0.837382 0.156361 209 209 209 255
-0.640625 0.429688 -0.007812 0.196622 0.155241 190 190 190 255
-0.484375 0.546875 0.023438 0.171653 0.132294 250 250 250 255
0.429688 0.210938 -0.195312 0.786480 0.117591 244 244 244 255
0.484375 0.546875 0.023438 0.858171 0.137775 254 254 254 255
0.890625 0.234375 0.406250 0.432388 0.894943 255 255 255 255
1.015625 0.289062 0.414062 0.491058 0.881714 255 255 255 255
1.023438 0.312500 0.476562 0.506166 0.904851 255 255 255 255
-0.890625 0.234375 0.406250 0.321637 0.893225 255 255 255 255
-1.015625 0.289062 0.414062 0.263032 0.878321 255 255 255 255
-0.921875 0.218750 0.359375 0.315867 0.868209 248 248 248 255
1.187500 0.390625 0.437500 0.572792 0.860484 255 255 255 255
1.234375 0.421875 0.507812 0.604825 0.879946 255 255 255 255
-1.187500 0.390625 0.437500 0.181486 0.854693 249 249 249 255
-1.023438 0.312500 0.476562 0.247207 0.901159 255 255 255 255
-1.234375 0.421875 0.507812 0.148729 0.873349 255 255 255 255
1.351562 0.421875 0.320312 0.619962 0.791615 255 255 255 255
-1.351562 0.421875 0.320312 0.136063 0.784093 254 254 254 255
-1.265625 0.406250 0.289062 0.169745 0.787474 230 230 230 255
1.265625 0.406250 0.289062 0.586396 0.793977 250 250 250 255
1.281250 0.429688 0.054688 0.563786 0.739211 255 255 255 255
-1.281250 0.429688 0.054688 0.194086 0.733241 233 233 233 255
-1.210938 0.406250 0.078125 0.208656 0.740879 230 230 230 255
1.210938 0.406250 0.078125 0.549027 0.746412 254 254 254 255
1.039062 0.328125 -0.101562 0.508270 0.697693 255 255 255 255
-1.039062 0.328125 -0.101562 0.250811 0.693249 249 249 249 255
-1.031250 0.304688 -0.039062 0.258399 0.707497 247 247 247 255
0.828125 0.132812 -0.070312 0.438641 0.680683 255 255 255 255
0.773438 0.125000 -0.140625 0.434803 0.658882 254 254 254 255
-0.828125 0.132812 -0.070312 0.320962 0.677959 251 251 251 255
-0.773438 0.125000 -0.140625 0.325318 0.656224 223 223 223 255
1.031250 0.304688 -0.039062 0.500314 0.711729 255 255 255 255
0.882812 0.210938 -0.023438 0.452955 0.700023 255 255 255 255
-0.882812 0.210938 -0.023438 0.306136 0.696976 230 230 230 255
1.039062 0.367188 0.000000 0.505666 0.730944 223 223 223 255
-1.039062 0.367188 0.000000 0.252524 0.726592 229 229 229 255
1.234375 0.445312 0.250000 0.568148 0.787367 208 208 208 255
-1.234375 0.445312 0.250000 0.188269 0.781375 208 208 208 255
-1.187500 0.445312 0.093750 0.214575 0.750414 222 222 222 255
1.171875 0.437500 0.359375 0.555495 0.826352 230 230 230 255
-1.171875 0.437500 0.359375 0.199850 0.820889 208 208 208 255
1.023438 0.359375 0.343750 0.501231 0.844356 208 208 208 255
-1.023438 0.359375 0.343750 0.253846 0.840502 224 224 224 255
0.945312 0.289062 0.304688 0.457832 0.840040 225 225 225 255
-0.945312 0.289062 0.304688 0.297562 0.837358 189 189 189 255
0.726562 0.070312 0.000000 0.783193 0.187449 255 255 255 255
-0.726562 0.070312 0.000000 0.246955 0.187075 201 201 201 255
-0.718750 0.171875 -0.023438 0.233625 0.175620 171 171 171 255
0.718750 0.171875 -0.023438 0.394766 0.686125 254 254 254 255
0.593750 0.164062 -0.125000 0.391039 0.611891 253 253 253 255
-0.718750 0.171875 -0.023438 0.364838 0.684445 171 171 171 255
0.820312 0.203125 0.328125 0.391747 0.862097 255 255 255 255
0.921875 0.218750 0.359375 0.438797 0.870229 255 255 255 255
-0.820312 0.203125 0.328125 0.363377 0.861308 208 208 208 255
0.812500 0.273438 -0.015625 0.435018 0.718280 226 226 226 255
-0.812500 0.273438 -0.015625 0.323658 0.715731 200 200 200 255
0.718750 0.187500 0.039062 0.384658 0.710299 233 233 233 255
0.843750 0.273438 0.015625 0.433669 0.729661 184 184 184 255
-0.718750 0.187500 0.039062 0.374400 0.708969 165 165 165 255
0.757812 0.273438 0.093750 0.410995 0.747662 151 151 151 255
0.820312 0.273438 0.085938 0.427812 0.742828 194 194 194 255
-0.843750 0.273438 0.015625 0.324726 0.727177 191 191 191 255
-0.757812 0.273438 0.093750 0.347028 0.745816 133 133 133 255
-0.820312 0.273438 0.085938 0.330270 0.740536 186 186 186 255
0.796875 0.210938 0.203125 0.384657 0.795423 233 233 233 255
0.835938 0.273438 0.171875 0.418086 0.784946 176 176 176 255
-0.796875 0.210938 0.203125 0.372270 0.794472 173 173 173 255
0.890625 0.265625 0.242188 0.431333 0.817535 194 194 194 255
0.843750 0.210938 0.289062 0.401605 0.841460 251 251 251 255
-0.890625 0.265625 0.242188 0.324790 0.815460 158 158 158 255
-0.835938 0.273438 0.171875 0.338952 0.783073 138 138 138 255
-0.843750 0.210938 0.289062 0.354026 0.840297 187 187 187 255
0.796875 0.210938 0.203125 0.816266 0.203086 233 233 233 255
-0.796875 0.210938 0.203125 0.209828 0.206161 173 173 173 255
-0.843750 0.210938 0.289062 0.199767 0.214827 187 187 187 255
-0.718750 0.187500 0.039062 0.226485 0.183086 165 165 165 255
0.718750 0.171875 -0.023438 0.796021 0.176969 254 254 254 255
0.718750 0.187500 0.039062 0.802192 0.184609 233 233 233 255
0.890625 0.320312 0.234375 0.448505 0.804621 178 178 178 255
0.953125 0.343750 0.289062 0.473386 0.824700 199 199 199 255
-0.890625 0.320312 0.234375 0.307886 0.802031 161 161 161 255
-0.953125 0.343750 0.289062 0.282357 0.821525 188 188 188 255
-0.843750 0.320312 0.171875 0.321237 0.777208 211 211 211 255
0.765625 0.320312 0.093750 0.423718 0.754191 171 171 171 255
0.843750 0.320312 0.171875 0.435868 0.779569 217 217 217 255
-0.765625 0.320312 0.093750 0.334089 0.752045 210 210 210 255
-0.828125 0.320312 0.078125 0.319919 0.747250 221 221 221 255
0.828125 0.320312 0.078125 0.437950 0.749777 230 230 230 255
-0.851562 0.320312 0.015625 0.312907 0.729222 208 208 208 255
0.812500 0.320312 -0.015625 0.440995 0.724383 229 229 229 255
0.851562 0.320312 0.015625 0.445392 0.731997 225 225 225 255
-0.812500 0.320312 -0.015625 0.317510 0.721697 208 208 208 255
0.882812 0.265625 -0.015625 0.455277 0.713731 208 208 208 255
-0.882812 0.265625 -0.015625 0.303460 0.710657 208 208 208 255
1.039062 0.414062 0.328125 0.512485 0.828811 200 200 200 255
-1.039062 0.414062 0.328125 0.242975 0.824574 224 224 224 255
1.187500 0.484375 0.343750 0.550942 0.811814 208 208 208 255
-1.187500 0.484375 0.343750 0.204839 0.806417 208 208 208 255
1.257812 0.492188 0.242188 0.552139 0.787682 208 208 208 255
-1.257812 0.492188 0.242188 0.204331 0.782156 208 208 208 255
1.210938 0.484375 0.085938 0.539407 0.764539 189 189 189 255
1.187500 0.445312 0.093750 0.542850 0.755753 198 198 198 255
-1.210938 0.484375 0.085938 0.217774 0.759319 217 217 217 255
1.046875 0.421875 0.000000 0.508439 0.743135 208 208 208 255
-1.046875 0.421875 0.000000 0.249419 0.738732 207 207 207 255
0.890625 0.328125 0.109375 0.454776 0.761665 242 242 242 255
-0.890625 0.328125 0.109375 0.302729 0.758742 248 248 248 255
-0.937500 0.335938 0.062500 0.286960 0.745020 207 207 207 255
0.937500 0.335938 0.062500 0.470841 0.748408 219 219 219 255
0.960938 0.351562 0.171875 0.475403 0.783904 230 230 230 255
-0.960938 0.351562 0.171875 0.281439 0.780511 233 233 233 255
-1.000000 0.367188 0.125000 0.268291 0.766661 203 203 203 255
1.054688 0.382812 0.187500 0.503673 0.787562 246 246 246 255
1.015625 0.375000 0.234375 0.494476 0.802470 213 213 213 255
-1.054688 0.382812 0.187500 0.252972 0.783410 230 230 230 255
-1.015625 0.375000 0.234375 0.261790 0.798626 231 231 231 255
1.085938 0.390625 0.273438 0.516802 0.807339 208 208 208 255
-1.085938 0.390625 0.273438 0.239243 0.802891 214 214 214 255
-1.109375 0.390625 0.210938 0.237920 0.787045 225 225 225 255
1.109375 0.390625 0.210938 0.518562 0.791602 245 245 245 255
0.789062 0.328125 -0.125000 0.484068 0.628776 209 209 209 255
1.039062 0.492188 -0.085938 0.543385 0.683538 254 254 254 255
-0.789062 0.328125 -0.125000 0.276936 0.625067 189 189 189 255
-1.039062 0.492188 -0.085938 0.216123 0.678120 245 245 245 255
1.312500 0.531250 0.054688 0.581052 0.726933 255 255 255 255
-1.312500 0.531250 0.054688 0.177176 0.720426 255 255 255 255
1.367188 0.500000 0.296875 0.616701 0.759965 255 255 255 255
-1.367188 0.500000 0.296875 0.140379 0.752377 255 255 255 255
1.250000 0.546875 0.468750 0.660647 0.741167 255 255 255 255
1.234375 0.421875 0.507812 0.707492 0.759884 255 255 255 255
-1.250000 0.546875 0.468750 0.097038 0.732052 255 255 255 255
1.023438 0.484375 0.437500 0.677256 0.670436 255 255 255 255
1.023438 0.312500 0.476562 0.745511 0.652100 255 255 255 255
-1.234375 0.421875 0.507812 0.049526 0.748824 255 255 255 255
-1.023438 0.484375 0.437500 0.083564 0.662038 251 251 251 255
0.859375 0.382812 0.382812 0.671403 0.592656 230 230 230 255
0.890625 0.234375 0.406250 0.740843 0.572428 255 255 255 255
-1.023438 0.312500 0.476562 0.019409 0.639749 255 255 255 255
-0.859375 0.382812 0.382812 0.092820 0.589862 210 210 210 255
0.859375 0.382812 0.382812 0.834705 0.206959 230 230 230 255
-0.820312 0.203125 0.328125 0.051216 0.522659 208 208 208 255
-0.890625 0.234375 0.406250 0.033664 0.564403 255 255 255 255
0.773438 0.437500 0.265625 0.620420 0.565675 214 214 214 255
0.640625 0.429688 -0.007812 0.498072 0.552315 209 209 209 255
-0.773438 0.437500 0.265625 0.145041 0.562595 203 203 203 255
-0.640625 0.429688 -0.007812 0.264218 0.550140 190 190 190 255
-0.593750 0.164062 -0.125000 0.369913 0.610196 224 224 224 255
-0.164062 -0.773438 0.414062 0.464579 0.342230 255 255 255 255
-0.773438 0.437500 0.265625 0.176788 0.196179 203 203 203 255
0.335938 -0.593750 0.687500 0.755700 0.418603 255 255 255 255
0.843750 0.210938 0.289062 0.825107 0.209762 251 251 251 255
1.000000 0.367188 0.125000 0.488870 0.770464 235 235 235 255
0.890625 0.234375 0.406250 0.834578 0.206879 255 255 255 255
3 0 1 2
3 3 4 5
3 2 6 7
3 8 5 9
3 1 10 6
3 11 3 8
3 12 13 1
3 14 15 3
3 16 17 13
3 18 19 14
3 13 20 10
3 21 14 11
3 22 20 17
3 23 21 24
3 25 17 26
3 27 18 23
3 25 28 22
3 29 27 23
3 28 30 22
3 29 24 31
3 32 33 28
3 34 31 35
3 36 28 37
3 38 29 34
3 39 32 36
3 40 34 41
3 42 43 32
3 41 35 44
3 2 45 42
3 5 44 9
3 0 42 39
3 4 41 5
3 39 46 0
3 40 47 48
3 36 49 39
3 38 48 50
3 37 51 36
3 52 50 53
3 25 54 37
3 27 53 55
3 25 56 57
3 58 27 55
3 26 59 56
3 60 61 58
3 16 62 59
3 63 19 60
3 12 46 62
3 47 15 63
3 64 62 46
3 47 63 65
3 59 62 64
3 65 63 60
3 64 56 59
3 60 58 65
3 64 57 56
3 58 55 65
3 64 54 57
3 55 53 65
3 64 51 54
3 53 50 65
3 64 49 51
3 50 48 65
3 64 46 49
3 48 47 65
3 66 67 68
3 69 67 70
3 71 68 72
3 73 74 69
3 75 71 72
3 73 76 77
3 78 79 75
3 80 81 76
3 82 83 78
3 84 85 81
3 86 87 88
3 89 90 91
3 92 87 93
3 94 89 95
3 92 96 97
3 98 94 95
3 99 96 100
3 101 98 102
3 103 104 99
3 105 102 106
3 107 108 103
3 109 106 110
3 107 111 112
3 113 109 110
3 114 111 115
3 116 113 117
3 118 119 114
3 120 117 121
3 122 123 118
3 122 121 124
3 125 123 126
3 127 121 117
3 125 111 119
3 113 127 117
3 112 128 129
3 110 130 113
3 108 129 131
3 106 132 110
3 104 131 133
3 102 134 106
3 96 133 135
3 98 136 102
3 97 135 137
3 95 138 98
3 87 137 139
3 89 140 95
3 141 87 139
3 89 142 143
3 141 144 88
3 144 142 91
3 123 145 126
3 121 146 124
3 145 147 148
3 147 146 149
3 150 147 144
3 151 147 149
3 152 70 66
3 70 153 69
3 154 66 71
3 69 155 73
3 154 79 156
3 155 80 73
3 157 158 83
3 159 160 84
3 156 83 158
3 84 161 159
3 162 163 164
3 162 165 166
3 163 167 158
3 165 167 166
3 156 167 168
3 161 167 159
3 169 170 164
3 171 172 173
3 174 169 175
3 176 172 177
3 178 175 179
3 180 181 176
3 182 179 183
3 182 179 180
3 164 184 162
3 173 184 171
3 170 185 184
3 171 185 186
3 182 187 178
3 188 182 180
3 178 189 174
3 190 180 176
3 189 191 174
3 190 177 192
3 191 193 170
3 186 177 171
3 194 187 195
3 192 188 190
3 195 193 194
3 186 195 192
3 179 88 144
3 91 179 144
3 175 196 88
3 197 181 91
3 164 196 169
3 173 197 198
3 163 199 164
3 165 198 160
3 200 157 82
3 201 160 198
3 202 199 200
3 203 198 197
3 86 196 202
3 197 90 203
3 168 204 156
3 168 205 206
3 154 204 207
3 205 155 208
3 152 207 209
3 208 153 210
3 211 209 212
3 210 211 212
3 209 213 212
3 210 213 214
3 209 215 216
3 217 210 214
3 207 218 215
3 219 208 217
3 206 218 204
3 206 219 220
3 220 216 218
3 214 220 219
3 218 216 215
3 217 214 219
3 148 221 222
3 223 149 224
3 145 222 225
3 224 146 226
3 145 227 126
3 146 228 226
3 141 221 150
3 142 223 229
3 141 230 231
3 232 142 229
3 139 233 230
3 234 143 232
3 137 235 233
3 236 140 234
3 135 237 235
3 238 138 236
3 131 237 133
3 134 238 239
3 129 240 131
3 132 239 241
3 129 242 243
3 244 132 241
3 128 245 242
3 246 130 244
3 125 227 245
3 228 127 246
3 245 247 248
3 249 246 250
3 242 248 251
3 250 244 252
3 242 253 243
3 244 254 252
3 243 255 240
3 241 256 254
3 237 255 257
3 256 238 258
3 237 259 235
3 238 260 258
3 233 259 261
3 260 234 262
3 233 263 230
3 234 264 262
3 230 265 231
3 232 266 264
3 221 265 267
3 266 223 268
3 227 269 247
3 270 228 249
3 225 271 269
3 272 226 270
3 222 267 271
3 268 224 272
3 122 273 274
3 275 122 274
3 118 276 273
3 277 120 275
3 115 276 114
3 278 277 279
3 107 280 115
3 109 279 281
3 103 282 107
3 105 281 283
3 103 284 285
3 286 105 283
3 100 284 99
3 287 286 288
3 100 289 290
3 291 287 288
3 92 292 289
3 293 94 291
3 294 295 296
3 297 298 299
3 296 300 301
3 302 303 298
3 301 304 305
3 306 307 303
3 68 305 304
3 305 74 307
3 72 304 308
3 307 77 309
3 75 308 310
3 309 76 311
3 78 310 312
3 311 81 313
3 310 295 312
3 298 311 313
3 308 300 310
3 309 303 307
3 312 314 315
3 313 299 298
3 82 312 315
3 313 85 316
3 317 202 200
3 318 203 319
3 315 200 82
3 316 201 318
3 202 320 86
3 203 321 319
3 320 93 86
3 321 322 293
3 323 324 325
3 326 327 328
3 329 330 324
3 328 331 332
3 330 333 334
3 335 331 336
3 334 314 294
3 299 336 297
3 314 317 315
3 299 318 335
3 290 337 338
3 339 288 340
3 341 325 342
3 343 344 326
3 345 346 347
3 348 349 350
3 346 351 352
3 353 349 354
3 352 341 342
3 343 354 355
3 356 357 358
3 359 360 361
3 358 362 363
3 364 361 365
3 363 366 367
3 368 365 369
3 367 370 371
3 372 369 373
3 374 370 375
3 376 372 373
3 341 371 374
3 373 343 376
3 351 367 371
3 369 353 373
3 377 363 367
3 365 350 369
3 345 358 363
3 361 348 365
3 356 378 379
3 360 380 361
3 378 347 381
3 380 382 348
3 383 379 384
3 385 386 387
3 384 378 381
3 380 388 389
3 390 384 381
3 389 388 391
3 290 357 284
3 288 359 340
3 338 362 357
3 364 340 359
3 392 366 362
3 368 393 364
3 370 394 375
3 372 395 368
3 396 397 333
3 332 398 399
3 397 400 337
3 398 401 399
3 289 397 337
3 398 291 339
3 292 317 397
3 318 293 398
3 317 333 397
3 398 335 318
3 292 320 402
3 319 321 293
3 403 374 375
3 404 376 405
3 374 323 341
3 376 326 405
3 406 403 400
3 399 404 405
3 329 406 396
3 328 399 405
3 323 407 329
3 328 405 326
3 408 409 410
3 411 412 413
3 410 414 415
3 416 417 418
3 414 419 415
3 416 420 421
3 422 423 419
3 421 424 425
3 426 427 423
3 425 428 429
3 427 430 431
3 432 428 433
3 434 435 430
3 436 429 432
3 426 437 434
3 438 425 429
3 439 426 422
3 440 425 441
3 442 422 414
3 443 421 440
3 444 414 409
3 445 416 443
3 409 446 444
3 447 412 445
3 400 448 337
3 401 449 450
3 431 451 452
3 433 453 432
3 338 448 392
3 449 340 393
3 454 455 408
3 413 456 411
3 430 457 451
3 458 432 453
3 459 457 460
3 461 458 453
3 462 460 463
3 464 465 466
3 467 462 468
3 469 465 461
3 467 470 471
3 469 472 473
3 471 446 455
3 474 447 472
3 475 394 392
3 476 395 477
3 448 475 392
3 449 476 478
3 448 479 480
3 478 450 449
3 446 481 482
3 483 447 484
3 468 481 470
3 473 483 485
3 468 486 487
3 488 473 485
3 463 486 462
3 466 488 489
3 460 490 463
3 464 489 491
3 460 492 493
3 494 464 491
3 457 495 492
3 496 458 494
3 444 482 497
3 484 445 498
3 442 497 499
3 498 443 500
3 439 499 501
3 500 440 502
3 439 503 504
3 440 505 502
3 504 506 437
3 441 507 505
3 437 495 435
3 438 496 507
3 493 508 490
3 491 509 510
3 511 512 508
3 510 513 514
3 512 515 516
3 517 513 518
3 515 519 516
3 517 520 521
3 497 516 519
3 518 498 520
3 512 482 481
3 513 484 518
3 487 512 481
3 485 513 509
3 490 487 486
3 485 489 488
3 495 493 492
3 496 491 510
3 506 511 495
3 510 507 496
3 515 506 503
3 517 507 514
3 522 503 501
3 521 505 517
3 499 522 501
3 521 500 502
3 497 519 499
3 500 520 498
3 427 523 524
3 525 428 526
3 423 524 527
3 526 424 528
3 423 529 419
3 424 530 528
3 419 531 532
3 420 533 530
3 532 534 535
3 536 537 533
3 535 538 539
3 540 541 537
3 524 538 534
3 526 541 525
3 534 527 524
3 528 537 526
3 531 529 527
3 528 530 533
3 394 542 375
3 543 541 544
3 545 523 546
3 525 547 548
3 452 523 431
3 525 549 433
3 0 12 1
3 3 15 4
3 2 1 6
3 8 3 5
3 1 13 10
3 11 14 3
3 12 16 13
3 14 19 15
3 16 26 17
3 18 61 19
3 13 17 20
3 21 18 14
3 22 30 20
3 23 18 21
3 25 22 17
3 27 61 18
3 25 37 28
3 29 52 27
3 28 33 30
3 29 23 24
3 32 43 33
3 34 29 31
3 36 32 28
3 38 52 29
3 39 42 32
3 40 38 34
3 42 45 43
3 41 34 35
3 2 7 45
3 5 41 44
3 0 2 42
3 4 40 41
3 39 49 46
3 40 4 47
3 36 51 49
3 38 40 48
3 37 54 51
3 52 38 50
3 25 57 54
3 27 52 53
3 25 26 56
3 58 61 27
3 26 16 59
3 60 19 61
3 16 12 62
3 63 15 19
3 12 0 46
3 47 4 15
3 66 70 67
3 69 74 67
3 71 66 68
3 73 77 74
3 75 79 71
3 73 80 76
3 78 83 79
3 80 84 81
3 82 157 83
3 84 160 85
3 86 93 87
3 89 322 90
3 92 97 87
3 94 322 89
3 92 100 96
3 98 287 94
3 99 104 96
3 101 287 98
3 103 108 104
3 105 101 102
3 107 112 108
3 109 105 106
3 107 115 111
3 113 278 109
3 114 119 111
3 116 278 113
3 118 123 119
3 120 116 117
3 122 124 123
3 122 120 121
3 125 119 123
3 127 550 121
3 125 128 111
3 113 130 127
3 112 111 128
3 110 132 130
3 108 112 129
3 106 134 132
3 104 108 131
3 102 136 134
3 96 104 133
3 98 138 136
3 97 96 135
3 95 140 138
3 87 97 137
3 89 143 140
3 141 88 87
3 89 91 142
3 141 150 144
3 144 151 142
3 123 124 145
3 121 550 146
3 145 124 147
3 147 124 146
3 150 148 147
3 151 144 147
3 152 211 70
3 70 211 153
3 154 152 66
3 69 153 155
3 154 71 79
3 155 161 80
3 157 163 158
3 159 165 160
3 156 79 83
3 84 80 161
3 162 166 163
3 162 173 165
3 163 166 167
3 165 159 167
3 156 158 167
3 161 168 167
3 169 191 170
3 171 177 172
3 174 191 169
3 176 181 172
3 178 174 175
3 180 179 181
3 182 178 179
3 164 170 184
3 173 162 184
3 170 193 185
3 171 184 185
3 182 195 187
3 188 195 182
3 178 187 189
3 190 188 180
3 189 194 191
3 190 176 177
3 191 194 193
3 186 192 177
3 194 189 187
3 192 195 188
3 195 185 193
3 186 185 195
3 179 175 88
3 91 181 179
3 175 169 196
3 197 172 181
3 164 199 196
3 173 172 197
3 163 157 199
3 165 173 198
3 200 199 157
3 201 85 160
3 202 196 199
3 203 201 198
3 86 88 196
3 197 91 90
3 168 206 204
3 168 161 205
3 154 156 204
3 205 161 155
3 152 154 207
3 208 155 153
3 211 152 209
3 210 153 211
3 209 216 213
3 210 212 213
3 209 207 215
3 217 208 210
3 207 204 218
3 219 205 208
3 206 220 218
3 206 205 219
3 220 213 216
3 214 213 220
3 148 150 221
3 223 151 149
3 145 148 222
3 224 149 146
3 145 225 227
3 146 550 228
3 141 231 221
3 142 151 223
3 141 139 230
3 232 143 142
3 139 137 233
3 234 140 143
3 137 135 235
3 236 138 140
3 135 133 237
3 238 136 138
3 131 240 237
3 134 136 238
3 129 243 240
3 132 134 239
3 129 128 242
3 244 130 132
3 128 125 245
3 246 127 130
3 125 126 227
3 228 550 127
3 245 227 247
3 249 228 246
3 242 245 248
3 250 246 244
3 242 251 253
3 244 241 254
3 243 253 255
3 241 239 256
3 237 240 255
3 256 239 238
3 237 257 259
3 238 236 260
3 233 235 259
3 260 236 234
3 233 261 263
3 234 232 264
3 230 263 265
3 232 229 266
3 221 231 265
3 266 229 223
3 227 225 269
3 270 226 228
3 225 222 271
3 272 224 226
3 222 221 267
3 268 223 224
3 122 118 273
3 275 120 122
3 118 114 276
3 277 116 120
3 115 280 276
3 278 116 277
3 107 282 280
3 109 278 279
3 103 285 282
3 105 109 281
3 103 99 284
3 286 101 105
3 100 290 284
3 287 101 286
3 100 92 289
3 291 94 287
3 92 93 292
3 293 322 94
3 294 314 295
3 297 302 298
3 296 295 300
3 302 306 303
3 301 300 304
3 306 305 307
3 68 67 305
3 305 67 74
3 72 68 304
3 307 74 77
3 75 72 308
3 309 77 76
3 78 75 310
3 311 76 81
3 310 300 295
3 298 303 311
3 308 304 300
3 309 311 303
3 312 295 314
3 313 316 299
3 82 78 312
3 313 81 85
3 317 402 202
3 318 201 203
3 315 317 200
3 316 85 201
3 202 402 320
3 203 90 321
3 320 292 93
3 321 90 322
3 323 329 324
3 326 344 327
3 329 396 330
3 328 327 331
3 330 396 333
3 335 332 331
3 334 333 314
3 299 335 336
3 314 333 317
3 299 316 318
3 290 289 337
3 339 291 288
3 341 323 325
3 343 355 344
3 345 377 346
3 348 382 349
3 346 377 351
3 353 350 349
3 352 351 341
3 343 353 354
3 356 284 357
3 359 286 360
3 358 357 362
3 364 359 361
3 363 362 366
3 368 364 365
3 367 366 370
3 372 368 369
3 374 371 370
3 376 551 372
3 341 351 371
3 373 353 343
3 351 377 367
3 369 350 353
3 377 345 363
3 365 348 350
3 345 378 358
3 361 380 348
3 356 358 378
3 360 386 380
3 378 345 347
3 380 389 382
3 383 552 379
3 385 388 386
3 384 379 378
3 380 386 388
3 290 338 357
3 288 286 359
3 338 392 362
3 364 393 340
3 392 394 366
3 368 395 393
3 370 366 394
3 372 551 395
3 396 406 397
3 332 335 398
3 397 406 400
3 398 339 401
3 289 292 397
3 398 293 291
3 292 402 317
3 318 319 293
3 403 407 374
3 404 551 376
3 374 407 323
3 376 343 326
3 406 407 403
3 399 401 404
3 329 407 406
3 328 332 399
3 408 455 409
3 411 417 412
3 410 409 414
3 416 412 417
3 414 422 419
3 416 418 420
3 422 426 423
3 421 420 424
3 426 434 427
3 425 424 428
3 427 434 430
3 432 429 428
3 434 437 435
3 436 438 429
3 426 504 437
3 438 441 425
3 439 504 426
3 440 421 425
3 442 439 422
3 443 416 421
3 444 442 414
3 445 412 416
3 409 455 446
3 447 413 412
3 400 479 448
3 401 339 449
3 431 430 451
3 433 549 453
3 338 337 448
3 449 339 340
3 454 471 455
3 413 474 456
3 430 435 457
3 458 436 432
3 459 451 457
3 461 464 458
3 462 459 460
3 464 461 465
3 467 459 462
3 469 473 465
3 467 468 470
3 469 474 472
3 471 470 446
3 474 413 447
3 475 553 394
3 476 393 395
3 448 480 475
3 449 393 476
3 446 470 481
3 483 472 447
3 468 487 481
3 473 472 483
3 468 462 486
3 488 465 473
3 463 490 486
3 466 465 488
3 460 493 490
3 464 466 489
3 460 457 492
3 494 458 464
3 457 435 495
3 496 436 458
3 444 446 482
3 484 447 445
3 442 444 497
3 498 445 443
3 439 442 499
3 500 443 440
3 439 501 503
3 440 441 505
3 504 503 506
3 441 438 507
3 437 506 495
3 438 436 496
3 493 511 508
3 491 489 509
3 511 554 512
3 510 509 513
3 512 554 515
3 517 514 513
3 515 522 519
3 517 518 520
3 497 482 516
3 518 484 498
3 512 516 482
3 513 483 484
3 487 508 512
3 485 483 513
3 490 508 487
3 485 509 489
3 495 511 493
3 496 494 491
3 506 554 511
3 510 514 507
3 515 554 506
3 517 505 507
3 522 515 503
3 521 502 505
3 499 519 522
3 521 520 500
3 427 431 523
3 525 433 428
3 423 427 524
3 526 428 424
3 423 527 529
3 424 420 530
3 419 529 531
3 420 536 533
3 532 531 534
3 536 540 537
3 535 534 538
3 540 544 541
3 524 523 538
3 526 537 541
3 534 531 527
3 528 533 537
3 394 555 542
3 543 547 541
3 545 538 523
3 525 541 547
3 452 546 523
3 525 548 549
