ply
format ascii 1.0
comment Created by Blender 2.81 (sub 16) - www.blender.org, source file: 'suz.blend'
element vertex 615
property float x
property float y
property float z
property float s
property float t
property uchar red
property uchar green
property uchar blue
property uchar alpha
element face 566
property list uchar uint vertex_indices
end_header
0.294186 15.824343 -0.030956 0.995741 0.112327 0 0 0 255
0.158085 16.710953 -0.195402 0.991558 0.001692 0 0 0 255
0.294186 15.824343 -0.068576 0.991081 0.112861 0 0 0 255
0.331468 15.829376 -0.068576 0.986278 0.112125 0 0 0 255
0.331468 15.829376 -0.030956 0.981945 0.111636 0 0 0 255
0.294186 15.824343 -0.030956 0.977553 0.111955 0 0 0 255
0.031050 1.855226 0.025476 0.930715 0.226778 0 0 0 255
-0.104810 0.971393 0.076075 0.958084 0.135398 0 0 0 255
0.099997 0.971393 0.076075 0.934994 0.132722 0 0 0 255
-0.076250 3.622893 0.108607 0.944421 0.414103 0 0 0 255
-0.158404 1.855226 0.025476 0.950804 0.227840 0 0 0 255
0.026652 5.390560 0.017704 0.916951 0.598824 0 0 0 255
0.117555 3.622893 0.108607 0.924775 0.413338 0 0 0 255
0.096642 7.158226 0.088713 0.908851 0.781938 0 0 0 255
-0.059024 7.184196 0.086626 0.926352 0.785581 0 0 0 255
-0.147259 5.390560 0.017703 0.935111 0.599560 0 0 0 255
0.097661 7.158226 0.088713 0.908318 0.781891 0 0 0 255
0.097617 7.158828 0.088671 0.908319 0.782197 0 0 0 255
-0.030336 8.921479 -0.031589 0.945688 0.990996 0 0 0 255
0.289221 10.638633 0.157948 0.939484 0.771526 0 0 0 255
-0.160908 8.921479 -0.031589 0.929750 0.992067 0 0 0 255
0.178507 14.999701 -0.301021 0.975540 0.228673 0 0 0 255
0.292228 13.496355 0.098454 0.954477 0.423036 0 0 0 255
0.385370 13.496355 0.098454 0.965037 0.423468 0 0 0 255
0.099997 0.971393 -0.128732 0.913936 0.132589 0 0 0 255
0.117555 3.622893 -0.085198 0.905161 0.412646 0 0 0 255
0.031050 1.855226 -0.163979 0.910547 0.226049 0 0 0 255
0.095594 7.160841 -0.067948 0.891949 0.782541 0 0 0 255
0.097661 7.158226 0.087671 0.907809 0.781923 0 0 0 255
-0.030336 8.921479 -0.031589 0.907900 0.995903 0 0 0 255
0.412533 10.638633 0.034636 0.967280 0.772747 0 0 0 255
-0.030336 8.921479 -0.162162 0.962205 0.991923 0 0 0 255
0.385370 13.496355 0.005313 0.975224 0.421994 0 0 0 255
-0.104810 0.971393 -0.128732 0.892529 0.133228 0 0 0 255
-0.076250 3.622893 -0.085198 0.884802 0.412006 0 0 0 255
-0.158404 1.855226 -0.163979 0.891047 0.225715 0 0 0 255
0.026652 5.390560 -0.156207 0.898674 0.598109 0 0 0 255
-0.063873 7.012059 -0.072821 0.876562 0.765797 0 0 0 255
-0.147259 5.390560 -0.156207 0.880781 0.597600 0 0 0 255
-0.056358 7.407124 -0.065305 0.875960 0.812897 0 0 0 255
-0.030336 8.921479 -0.162162 0.891367 0.995323 0 0 0 255
0.289221 10.638633 0.034636 0.981407 0.774107 0 0 0 255
-0.160908 8.921479 -0.162162 0.977451 0.993667 0 0 0 255
0.292228 13.496355 0.005313 0.986562 0.422041 0 0 0 255
0.178507 14.999701 -0.355420 0.982283 0.229203 0 0 0 255
-0.158404 1.855226 0.025476 0.871671 0.225255 0 0 0 255
-0.104810 0.971393 0.076075 0.871152 0.132986 0 0 0 255
-0.147259 5.390560 0.017703 0.862892 0.597304 0 0 0 255
-0.076250 3.622893 0.108607 0.864364 0.411476 0 0 0 255
-0.160908 8.921479 -0.031589 0.860743 0.994246 0 0 0 255
-0.059024 7.184196 0.086626 0.859299 0.785184 0 0 0 255
-0.160908 8.921479 -0.031589 0.992800 0.993641 0 0 0 255
0.124108 14.999701 -0.301021 0.994646 0.229159 0 0 0 255
0.292228 13.496355 0.098454 0.996701 0.424090 0 0 0 255
0.036605 5.368862 0.021446 0.779708 0.359398 0 0 0 255
0.333704 6.510807 0.038753 0.784901 0.486020 0 0 0 255
-0.129307 5.408385 0.021446 0.797989 0.358269 0 0 0 255
0.036605 5.368862 -0.149109 0.761644 0.358543 0 0 0 255
0.467116 6.479025 -0.029819 0.768617 0.487778 0 0 0 255
0.333704 6.510807 -0.098391 0.752252 0.485923 0 0 0 255
-0.129307 5.408385 -0.149109 0.743657 0.356728 0 0 0 255
-0.129307 5.408385 0.021446 0.725674 0.358581 0 0 0 255
0.854201 7.459147 -0.049003 0.769651 0.611444 0 0 0 255
0.755677 7.540606 0.014916 0.786209 0.613581 0 0 0 255
0.755677 7.540606 0.014916 0.739751 0.613679 0 0 0 255
0.755677 7.540606 -0.112922 0.753830 0.613208 0 0 0 255
1.585743 8.378972 -0.057568 0.757090 0.750049 0 0 0 255
1.676281 8.357403 -0.011032 0.767338 0.753142 0 0 0 255
1.585743 8.378972 0.035504 0.777716 0.750596 0 0 0 255
2.351727 10.562426 -0.038465 0.755240 0.989282 0 0 0 255
2.351727 10.562426 -0.059540 0.759126 0.989261 0 0 0 255
2.372229 10.557542 -0.049002 0.763812 0.989619 0 0 0 255
2.351727 10.562426 -0.038465 0.768506 0.989326 0 0 0 255
-0.573324 3.631515 -0.142308 0.092133 0.074497 0 0 0 255
0.069436 3.094775 -0.054577 0.012528 0.057250 0 0 0 255
-0.003636 2.942684 -0.079424 0.006016 0.070647 0 0 0 255
-0.058543 2.942684 0.082051 0.007308 0.085443 0 0 0 255
0.014530 3.094775 0.106898 0.015024 0.098223 0 0 0 255
-0.490559 3.684742 -0.161633 0.090704 0.064728 0 0 0 255
0.014530 3.094775 0.106898 0.015503 0.041431 0 0 0 255
-1.329054 4.347933 -0.356293 0.198630 0.084144 0 0 0 255
-1.378829 4.298684 -0.416859 0.199930 0.075861 0 0 0 255
-1.302420 4.347823 -0.434701 0.198675 0.067286 0 0 0 255
-0.519408 3.684861 -0.076704 0.091655 0.055966 0 0 0 255
-1.329054 4.347933 -0.356293 0.198897 0.059438 0 0 0 255
-2.013776 5.178284 -0.601001 0.299183 0.082899 0 0 0 255
-2.051398 5.141058 -0.646778 0.300962 0.076300 0 0 0 255
-1.993645 5.178200 -0.660263 0.299263 0.069713 0 0 0 255
-2.013776 5.178284 -0.601001 0.299518 0.063850 0 0 0 255
-3.118382 5.734635 -1.020534 0.428957 0.073684 0 0 0 255
-3.125160 5.734663 -1.000579 0.429055 0.071420 0 0 0 255
-3.125160 5.734663 -1.000579 0.428979 0.077689 0 0 0 255
-3.137828 5.722129 -1.015993 0.429846 0.075682 0 0 0 255
-0.872002 8.455031 -0.417794 0.281534 0.023843 0 0 0 255
0.095594 7.160841 -0.067948 0.424436 0.051015 0 0 0 255
-0.063873 7.012059 -0.072821 0.429646 0.033815 0 0 0 255
-0.059024 7.184196 0.086626 0.421583 0.016199 0 0 0 255
-0.056358 7.407124 -0.065305 0.402152 0.004795 0 0 0 255
-0.751147 8.492729 -0.504299 0.280323 0.037629 0 0 0 255
-0.056358 7.407124 -0.065305 0.401181 0.055396 0 0 0 255
-1.169868 8.923449 -0.799130 0.219731 0.012042 0 0 0 255
-1.214021 8.851685 -0.914580 0.215656 0.023197 0 0 0 255
-1.091187 8.923265 -0.899886 0.216009 0.035611 0 0 0 255
-1.169868 8.923449 -0.799130 0.217909 0.046116 0 0 0 255
-0.749901 8.537065 -0.374526 0.282224 0.050044 0 0 0 255
-1.500519 9.847736 -1.625155 0.113850 0.009226 0 0 0 255
-1.532665 9.795488 -1.709208 0.113101 0.017837 0 0 0 255
-1.443234 9.847603 -1.698510 0.112031 0.025745 0 0 0 255
-1.500519 9.847736 -1.625155 0.112306 0.032875 0 0 0 255
-2.045931 11.020985 -2.035039 0.005160 0.016788 0 0 0 255
-2.058902 11.021015 -2.018429 0.004861 0.018656 0 0 0 255
-2.066181 11.009183 -2.037462 0.005380 0.014782 0 0 0 255
0.124108 14.999701 -0.301021 0.968572 0.228579 0 0 0 255
0.124108 14.999701 -0.355420 0.988520 0.229463 0 0 0 255
-0.295954 11.927814 0.064671 0.726357 0.894056 0 0 0 255
0.314131 11.357581 0.068639 0.708889 0.987616 0 0 0 255
0.232867 11.279391 0.068487 0.720425 0.989198 0 0 0 255
0.232551 11.279502 0.181257 0.732032 0.990006 0 0 0 255
0.313816 11.357690 0.181409 0.743557 0.988432 0 0 0 255
-0.230735 11.990729 0.110133 0.704400 0.894108 0 0 0 255
0.313816 11.357690 0.181409 0.696267 0.987563 0 0 0 255
-0.230481 11.990642 0.019453 0.714607 0.893852 0 0 0 255
-0.964431 12.478559 -0.011075 0.712196 0.794125 0 0 0 255
0.412551 10.612804 0.086748 0.706365 0.712472 0 0 0 255
0.671174 11.313012 -0.305920 0.694679 0.619882 0 0 0 255
0.393409 10.690938 0.183832 0.692416 0.712694 0 0 0 255
-0.964258 12.478500 -0.072614 0.719025 0.794358 0 0 0 255
0.671174 11.313012 -0.305920 0.727072 0.619722 0 0 0 255
0.314994 10.691048 0.102787 0.718883 0.710635 0 0 0 255
0.393409 10.690938 0.183832 0.731226 0.712455 0 0 0 255
0.686567 11.250187 -0.383987 0.706049 0.618510 0 0 0 255
-1.421438 12.885971 -0.031164 0.722901 0.728913 0 0 0 255
-1.421477 12.885984 -0.017229 0.721411 0.728714 0 0 0 255
-1.008691 12.435863 -0.041927 0.726177 0.793815 0 0 0 255
-1.421477 12.885984 -0.017229 0.726405 0.728784 0 0 0 255
-1.431499 12.876318 -0.024215 0.724653 0.728849 0 0 0 255
-0.964431 12.478559 -0.011075 0.733365 0.794429 0 0 0 255
-0.230735 11.990729 0.110133 0.737915 0.894939 0 0 0 255
1.254220 11.695271 -0.842575 0.714230 0.519451 0 0 0 255
0.608121 11.313100 -0.371089 0.717111 0.619741 0 0 0 255
1.297011 11.695211 -0.798348 0.700307 0.518932 0 0 0 255
1.708478 11.891355 -1.281446 0.713060 0.446652 0 0 0 255
1.698788 11.891370 -1.291460 0.711548 0.446680 0 0 0 255
1.307458 11.652575 -0.851328 0.707318 0.516670 0 0 0 255
1.710843 11.881701 -1.293442 0.710016 0.446036 0 0 0 255
1.708478 11.891355 -1.281446 0.708471 0.446652 0 0 0 255
0.589101 10.065190 0.359744 0.839625 0.343572 0 0 0 255
0.025638 9.560262 -0.011164 0.842809 0.382233 0 0 0 255
0.099074 9.468765 0.035013 0.842665 0.381637 0 0 0 255
0.530050 10.138763 0.322612 0.855365 0.344838 0 0 0 255
0.117868 9.534692 -0.070804 0.843157 0.381016 0 0 0 255
0.894683 10.594900 1.011293 0.849532 0.225031 0 0 0 255
0.604213 10.118201 0.274656 0.847883 0.345563 0 0 0 255
0.844353 10.608854 1.043838 0.827040 0.224817 0 0 0 255
0.530050 10.138763 0.322612 0.830756 0.344765 0 0 0 255
1.319136 11.037414 1.241485 0.843931 0.090302 0 0 0 255
1.330533 11.034251 1.234115 0.844306 0.090084 0 0 0 255
1.328210 11.026106 1.247191 0.844263 0.090740 0 0 0 255
0.884428 10.558925 1.069037 0.838375 0.224774 0 0 0 255
-0.016743 5.745062 -0.083831 0.218690 0.978203 0 0 0 255
-0.836509 6.047039 -0.609762 0.175704 0.976635 0 0 0 255
-0.055129 5.728769 -0.037285 0.218700 0.975567 0 0 0 255
-1.183648 6.155295 -0.722816 0.160016 0.973189 0 0 0 255
-1.210487 6.126340 -0.700800 0.160016 0.971282 0 0 0 255
-1.776098 6.372073 -1.080339 0.129474 0.971553 0 0 0 255
-1.805056 6.340830 -1.056583 0.129474 0.969495 0 0 0 255
-2.150039 6.565759 -1.492085 0.105011 0.975879 0 0 0 255
-1.069520 9.943801 0.214196 0.072458 0.975967 0 0 0 255
-0.374799 9.667291 0.010106 0.104692 0.981436 0 0 0 255
-0.358205 9.716214 0.003109 0.104293 0.983599 0 0 0 255
-1.346164 10.243456 0.532731 0.051610 0.982434 0 0 0 255
-1.088288 9.909477 0.202258 0.072687 0.974257 0 0 0 255
-1.783504 10.294032 0.769778 0.031537 0.975958 0 0 0 255
-1.802174 10.259887 0.757903 0.031765 0.974257 0 0 0 255
-2.222554 10.608602 0.789098 0.008741 0.975808 0 0 0 255
-1.022879 3.289845 -0.093232 0.081216 0.960845 0 0 0 255
-0.605416 3.686153 -0.144983 0.104692 0.966451 0 0 0 255
-0.626393 3.721441 -0.151987 0.104692 0.968190 0 0 0 255
-0.980366 4.059319 -0.281834 0.065471 0.821097 0 0 0 255
-1.057276 4.421520 -0.181526 0.081617 0.820033 0 0 0 255
-1.010356 4.053599 -0.291978 0.065474 0.822455 0 0 0 255
-1.039852 4.425560 -0.163716 0.081758 0.818977 0 0 0 255
-1.034111 4.826979 -0.216985 0.098813 0.819950 0 0 0 255
-1.615793 3.214059 0.321527 0.053192 0.972581 0 0 0 255
-2.107281 2.753719 0.127017 0.024985 0.964764 0 0 0 255
-2.102984 2.745406 0.125720 0.024971 0.964227 0 0 0 255
-1.386584 4.383540 -0.408474 0.093999 0.986081 0 0 0 255
-1.795515 4.327536 -0.628146 0.074300 0.985997 0 0 0 255
-1.379492 4.342568 -0.406145 0.094107 0.984330 0 0 0 255
-2.254694 4.139944 -0.546351 0.053125 0.986436 0 0 0 255
-2.245776 4.113461 -0.557602 0.053103 0.985167 0 0 0 255
-2.639428 4.120485 -0.846053 0.032563 0.986160 0 0 0 255
-2.859166 4.215750 -1.360897 0.008682 0.984749 0 0 0 255
-2.856370 4.207443 -1.364425 0.008675 0.984330 0 0 0 255
-1.086215 6.289479 -1.079381 0.121477 0.875193 0 0 0 255
-1.097696 6.283165 -1.077016 0.121477 0.875755 0 0 0 255
-1.008874 6.205574 -0.917979 0.113140 0.875267 0 0 0 255
-2.230858 6.319427 -0.858863 0.066996 0.874625 0 0 0 255
-2.055732 6.355665 -0.990917 0.075836 0.876504 0 0 0 255
-2.057938 6.366078 -0.999031 0.075920 0.877042 0 0 0 255
-1.788377 6.365435 -1.067783 0.087071 0.875157 0 0 0 255
-1.784383 6.358357 -1.052784 0.086966 0.874472 0 0 0 255
-1.008013 3.261095 -0.097716 0.081174 0.959481 0 0 0 255
-1.217792 5.085849 -0.082700 0.113270 0.821481 0 0 0 255
-1.235125 5.081829 -0.100417 0.113129 0.822530 0 0 0 255
-1.133537 5.353055 -0.139121 0.125283 0.820483 0 0 0 255
-0.039506 8.927513 -0.069806 0.821602 0.392756 0 0 0 255
-0.535386 10.072072 0.164176 0.816774 0.489788 0 0 0 255
-0.122246 8.917569 -0.034539 0.827431 0.395108 0 0 0 255
-0.074989 8.927513 -0.153049 0.814856 0.391952 0 0 0 255
-0.476083 10.142795 0.077268 0.807385 0.489304 0 0 0 255
-0.579848 10.072072 0.059867 0.825597 0.489997 0 0 0 255
-0.074989 8.927513 -0.153049 0.840640 0.394533 0 0 0 255
-0.157728 8.917569 -0.117782 0.834074 0.395724 0 0 0 255
-1.101521 10.850688 0.520855 0.824818 0.567134 0 0 0 255
-0.476083 10.142795 0.077268 0.834806 0.492093 0 0 0 255
-1.101521 10.850688 0.520855 0.802605 0.564702 0 0 0 255
-1.171971 10.810532 0.612059 0.809961 0.565896 0 0 0 255
-1.213949 10.804143 0.511499 0.816747 0.566106 0 0 0 255
-1.330302 11.892105 0.455484 0.808002 0.641888 0 0 0 255
-1.266065 11.935889 0.466256 0.812889 0.644353 0 0 0 255
-1.302777 11.892105 0.520058 0.803026 0.641061 0 0 0 255
-1.776362 12.936594 0.655579 0.798004 0.719811 0 0 0 255
-1.784626 12.936594 0.636192 0.799384 0.719977 0 0 0 255
-1.765339 12.949739 0.639426 0.800893 0.720469 0 0 0 255
-1.266065 11.935889 0.466256 0.797877 0.642977 0 0 0 255
0.055608 3.560220 -0.048751 0.039473 0.898168 0 0 0 255
0.826595 3.874328 -0.423686 0.077922 0.896032 0 0 0 255
0.035369 3.617897 -0.061766 0.039959 0.900759 0 0 0 255
1.162532 4.356265 -0.675778 0.102867 0.906262 0 0 0 255
1.137110 4.378886 -0.694422 0.102703 0.907891 0 0 0 255
1.685477 4.652565 -0.969785 0.131040 0.907891 0 0 0 255
1.708634 4.631958 -0.952802 0.131190 0.906408 0 0 0 255
2.215510 4.807147 -1.199992 0.155997 0.904196 0 0 0 255
1.797402 3.970418 -0.766333 0.181140 0.919616 0 0 0 255
1.639487 3.956787 -0.711430 0.174073 0.919964 0 0 0 255
1.643045 3.947299 -0.702793 0.174035 0.919403 0 0 0 255
1.707335 4.906066 -1.043124 0.116545 0.806473 0 0 0 255
1.610189 5.107585 -1.084086 0.125786 0.809051 0 0 0 255
1.694143 4.905428 -1.045292 0.116629 0.807031 0 0 0 255
1.702057 4.642761 -0.953500 0.104960 0.808339 0 0 0 255
1.685731 4.644478 -0.948860 0.105063 0.809051 0 0 0 255
1.112783 3.873807 -0.504567 0.149604 0.919403 0 0 0 255
0.838072 3.870487 -0.415986 0.137508 0.920799 0 0 0 255
0.840666 3.854280 -0.411336 0.137462 0.920081 0 0 0 255
1.286417 3.999998 -0.604076 0.158770 0.923350 0 0 0 255
1.109206 3.883344 -0.513250 0.149642 0.919967 0 0 0 255
1.283119 4.008791 -0.612081 0.158805 0.923869 0 0 0 255
1.203431 4.584830 -0.773114 0.137690 0.806473 0 0 0 255
1.151616 4.798140 -0.832605 0.146930 0.809051 0 0 0 255
1.190538 4.586657 -0.776209 0.137774 0.807031 0 0 0 255
1.139700 4.334779 -0.669180 0.126105 0.808339 0 0 0 255
1.123805 4.340008 -0.665862 0.126208 0.809051 0 0 0 255
0.349308 2.590176 0.504477 0.159008 0.888163 0 0 0 255
0.048348 2.352726 -0.070108 0.188065 0.890269 0 0 0 255
0.080466 2.299159 -0.072274 0.188137 0.892904 0 0 0 255
0.563883 2.803955 0.901587 0.138225 0.884737 0 0 0 255
0.791279 2.932989 1.317900 0.117493 0.885014 0 0 0 255
0.785615 2.970427 1.309416 0.117470 0.883378 0 0 0 255
1.121229 3.083067 1.820680 0.091368 0.885939 0 0 0 255
1.126389 3.048965 1.828409 0.091389 0.887430 0 0 0 255
1.494760 3.093570 2.287789 0.066996 0.892460 0 0 0 255
0.469293 3.453547 1.309829 0.115069 0.828846 0 0 0 255
0.515766 3.269101 1.220234 0.107287 0.825001 0 0 0 255
0.520046 3.260939 1.229845 0.107370 0.824458 0 0 0 255
1.065706 3.252940 2.022256 0.131625 0.838840 0 0 0 255
1.004131 3.494997 2.026541 0.141296 0.843025 0 0 0 255
1.058410 3.264895 2.012031 0.131948 0.839496 0 0 0 255
1.121230 3.083067 1.820681 0.121060 0.843025 0 0 0 255
1.126389 3.048964 1.828408 0.119919 0.842066 0 0 0 255
0.366055 2.977350 0.813637 0.085637 0.828462 0 0 0 255
0.342858 2.625377 0.501421 0.066315 0.826270 0 0 0 255
0.346526 2.610406 0.494112 0.065471 0.825813 0 0 0 255
0.505323 3.056503 1.040836 0.095912 0.823353 0 0 0 255
0.361750 2.985090 0.803602 0.085530 0.829004 0 0 0 255
0.509290 3.048939 1.049743 0.095990 0.822850 0 0 0 255
0.897054 2.488845 1.292549 0.154651 0.925821 0 0 0 255
1.048880 2.377069 1.655909 0.137462 0.924189 0 0 0 255
0.901271 2.500854 1.296691 0.154621 0.925258 0 0 0 255
0.622758 2.612662 1.132635 0.169023 0.926117 0 0 0 255
0.620631 2.599999 1.125233 0.169035 0.926742 0 0 0 255
0.570294 2.761584 0.911189 0.180479 0.925515 0 0 0 255
0.563883 2.803955 0.901586 0.181772 0.924189 0 0 0 255
0.791279 2.932989 1.317900 0.065471 0.805999 0 0 0 255
0.843412 3.310333 1.540974 0.084091 0.805999 0 0 0 255
0.785614 2.970426 1.309415 0.066611 0.807173 0 0 0 255
0.145009 12.123902 0.136886 0.982905 0.591659 0 0 0 255
0.145009 12.123902 0.225280 0.993673 0.591963 0 0 0 255
0.233403 12.123902 0.136886 0.972615 0.591453 0 0 0 255
0.233403 12.123902 0.225280 0.961011 0.591350 0 0 0 255
0.145009 12.123902 0.225280 0.950250 0.590950 0 0 0 255
0.412533 10.638633 0.157948 0.953605 0.771156 0 0 0 255
0.289221 10.638633 0.157948 0.996507 0.772956 0 0 0 255
0.634742 12.342699 0.550889 0.032572 0.863241 0 0 0 255
0.237871 11.630095 0.131716 0.024045 0.825629 0 0 0 255
0.268677 11.586410 0.164090 0.026543 0.824812 0 0 0 255
0.623498 12.362096 0.507285 0.030511 0.863289 0 0 0 255
0.664747 12.996517 0.574214 0.023459 0.889232 0 0 0 255
0.655848 13.011867 0.539706 0.021828 0.889270 0 0 0 255
0.828115 13.570598 0.733704 0.022053 0.915175 0 0 0 255
0.820008 13.584581 0.702271 0.020567 0.915210 0 0 0 255
1.197683 14.016127 1.087273 0.032054 0.941890 0 0 0 255
1.166991 13.022065 1.078261 0.147027 0.814604 0 0 0 255
0.982453 12.720316 0.884529 0.130566 0.812713 0 0 0 255
0.982861 12.710578 0.893599 0.130515 0.812168 0 0 0 255
0.792366 12.523967 0.689642 0.116817 0.813789 0 0 0 255
0.792775 12.514177 0.698759 0.116766 0.813242 0 0 0 255
-0.827784 14.391110 -0.017359 0.126060 0.869769 0 0 0 255
-1.252180 14.837531 -0.007936 0.152042 0.870153 0 0 0 255
-1.275594 14.816321 -0.023785 0.152042 0.871644 0 0 0 255
0.624443 12.360635 0.521523 0.105023 0.814899 0 0 0 255
0.631187 12.346662 0.528616 0.104960 0.814201 0 0 0 255
-0.207805 14.139217 0.005627 0.100213 0.858383 0 0 0 255
0.242877 13.340532 0.099087 0.061772 0.864234 0 0 0 255
0.299928 13.366044 0.099171 0.061136 0.861676 0 0 0 255
-0.240284 14.109795 -0.016359 0.100213 0.860452 0 0 0 255
-0.802082 14.414394 0.000040 0.126061 0.868132 0 0 0 255
0.820004 13.576906 0.726299 0.135771 0.829375 0 0 0 255
0.711041 13.960021 0.607542 0.153288 0.830092 0 0 0 255
0.809376 13.569590 0.715139 0.135709 0.830092 0 0 0 255
-1.479694 15.475642 -0.031559 0.179066 0.860808 0 0 0 255
0.663284 12.966843 0.562221 0.114659 0.829387 0 0 0 255
0.525818 13.414699 0.413622 0.135390 0.829387 0 0 0 255
0.651805 12.963099 0.550170 0.114804 0.830092 0 0 0 255
-0.564471 15.085426 -0.015001 0.146207 0.818302 0 0 0 255
-0.334302 14.648458 -0.015368 0.126490 0.815753 0 0 0 255
-0.322731 14.651242 -0.009397 0.126440 0.815219 0 0 0 255
-0.218309 14.123407 -0.007186 0.104960 0.817974 0 0 0 255
-0.234900 14.119440 -0.007209 0.105019 0.818658 0 0 0 255
-0.778041 14.394488 -0.007186 0.108120 0.877042 0 0 0 255
-1.268938 14.370783 -0.010417 0.087391 0.877042 0 0 0 255
-0.780672 14.377634 -0.007209 0.107975 0.876337 0 0 0 255
1.064973 6.870414 -0.236926 0.128390 0.959481 0 0 0 255
0.567194 6.960141 -0.025461 0.105634 0.963594 0 0 0 255
0.550811 6.899925 -0.028796 0.105011 0.961032 0 0 0 255
1.055701 6.916898 -0.249467 0.128284 0.961547 0 0 0 255
1.958303 7.110300 -0.560978 0.168938 0.967541 0 0 0 255
1.950964 7.147086 -0.570902 0.168854 0.969176 0 0 0 255
2.555062 7.165865 -0.816712 0.196376 0.969176 0 0 0 255
2.561746 7.132354 -0.807673 0.196452 0.967687 0 0 0 255
2.988269 6.944632 -1.041224 0.217181 0.960353 0 0 0 255
2.220456 6.772568 -0.714365 0.188768 0.955420 0 0 0 255
2.489405 6.541129 -0.909851 0.204710 0.950056 0 0 0 255
2.223282 6.784266 -0.720063 0.188862 0.955965 0 0 0 255
2.686023 7.258630 -0.856710 0.087908 0.805546 0 0 0 255
2.900216 7.373264 -0.966334 0.086900 0.794349 0 0 0 255
2.678775 7.269807 -0.858008 0.088472 0.805516 0 0 0 255
2.562428 7.144733 -0.805076 0.086900 0.812894 0 0 0 255
2.549691 7.153961 -0.798469 0.087553 0.813196 0 0 0 255
1.576923 6.807776 -0.465571 0.160044 0.951402 0 0 0 255
1.062634 6.905518 -0.244157 0.136465 0.950465 0 0 0 255
1.055429 6.890059 -0.243811 0.136326 0.949771 0 0 0 255
1.900358 6.730237 -0.626933 0.175387 0.951707 0 0 0 255
1.579764 6.819533 -0.471299 0.160137 0.951950 0 0 0 255
1.902977 6.741077 -0.632214 0.175474 0.952212 0 0 0 255
2.020340 7.337006 -0.537124 0.075840 0.812641 0 0 0 255
2.205582 7.506302 -0.605723 0.086580 0.810390 0 0 0 255
2.010879 7.346397 -0.538319 0.075943 0.813196 0 0 0 255
1.916708 7.116377 -0.551214 0.065659 0.811085 0 0 0 255
1.927047 7.104270 -0.557338 0.065471 0.810390 0 0 0 255
1.570356 6.808508 -0.463548 0.086296 0.808204 0 0 0 255
1.704656 6.584698 -0.560264 0.074628 0.809512 0 0 0 255
1.584100 6.817792 -0.467537 0.086193 0.807492 0 0 0 255
1.697223 6.577264 -0.551979 0.074711 0.810071 0 0 0 255
1.872323 6.465727 -0.644850 0.065471 0.807492 0 0 0 255
-0.125347 -0.278784 -0.124876 0.888463 0.003558 0 0 0 255
-0.125347 -0.278784 0.158067 0.859299 0.004328 0 0 0 255
0.157596 -0.278784 -0.124876 0.917580 0.003154 0 0 0 255
0.157596 -0.278784 0.158067 0.946779 0.003960 0 0 0 255
-0.125347 -0.278784 0.158067 0.975685 0.008010 0 0 0 255
-0.505300 8.045835 -0.357589 0.162003 0.938239 0 0 0 255
-1.291063 8.183887 -0.992669 0.119210 0.935529 0 0 0 255
-0.513513 7.984225 -0.364075 0.162083 0.935612 0 0 0 255
-1.600905 8.145909 -1.210756 0.103668 0.931675 0 0 0 255
-1.593773 8.106065 -1.230883 0.103719 0.929775 0 0 0 255
-2.166064 8.226627 -1.657849 0.073274 0.929229 0 0 0 255
-2.158369 8.183636 -1.679566 0.073329 0.927179 0 0 0 255
-2.796795 8.594998 -2.181814 0.036135 0.936262 0 0 0 255
-1.651915 8.487062 -1.264147 0.086878 0.818120 0 0 0 255
-1.823748 8.878082 -1.406911 0.104641 0.813838 0 0 0 255
-1.654067 8.477710 -1.273377 0.086825 0.818658 0 0 0 255
-2.395317 7.812094 -1.842875 0.131743 0.819564 0 0 0 255
-2.158703 8.195742 -1.655023 0.148521 0.819271 0 0 0 255
-2.167749 8.208399 -1.662021 0.148630 0.819847 0 0 0 255
1.135276 8.810461 -0.492360 0.020247 0.863291 0 0 0 255
1.231350 8.010305 -0.054714 0.012041 0.825608 0 0 0 255
1.291979 8.018042 -0.041682 0.014545 0.824812 0 0 0 255
1.100328 8.783467 -0.513667 0.018185 0.863321 0 0 0 255
0.738358 9.182201 -0.875935 0.010333 0.889462 0 0 0 255
0.707195 9.160760 -0.884577 0.008704 0.889369 0 0 0 255
0.566482 9.537184 -1.351481 0.006852 0.915211 0 0 0 255
0.538093 9.517654 -1.359354 0.005368 0.915126 0 0 0 255
0.695563 9.960287 -1.865687 0.014681 0.942641 0 0 0 255
1.070097 9.718780 -0.659816 0.144874 0.811551 0 0 0 255
1.162328 9.327164 -0.639297 0.128209 0.810096 0 0 0 255
1.176177 9.327361 -0.628472 0.128125 0.809371 0 0 0 255
0.553985 9.535252 -1.350752 0.093133 0.939275 0 0 0 255
0.194821 9.623155 -1.540559 0.075616 0.938559 0 0 0 255
0.546453 9.524627 -1.339736 0.093195 0.938559 0 0 0 255
0.738360 9.182200 -0.875936 0.055918 0.939686 0 0 0 255
0.319090 9.255491 -1.072936 0.036135 0.939686 0 0 0 255
0.707195 9.160761 -0.884577 0.054731 0.938559 0 0 0 255
1.135276 8.810461 -0.492361 0.105874 0.810029 0 0 0 255
1.100329 8.783467 -0.513667 0.104960 0.811849 0 0 0 255
-0.189420 5.139961 0.635034 0.813076 0.903564 0 0 0 255
-0.094475 4.622014 -0.031962 0.783896 0.984531 0 0 0 255
-0.119218 4.469923 0.041146 0.797469 0.992820 0 0 0 255
0.042334 4.469923 0.095823 0.813318 0.993485 0 0 0 255
0.067077 4.622014 0.022715 0.828090 0.987573 0 0 0 255
-0.219149 5.221345 0.508529 0.842283 0.907012 0 0 0 255
-0.094475 4.622014 -0.031962 0.845035 0.988145 0 0 0 255
-0.369023 5.884119 1.362723 0.833400 0.794908 0 0 0 255
-0.462415 5.808088 1.439699 0.819897 0.791994 0 0 0 255
-0.490126 5.883948 1.321778 0.806458 0.792863 0 0 0 255
-0.219149 5.221345 0.508529 0.797191 0.904658 0 0 0 255
-0.089229 5.221527 0.552455 0.828526 0.906536 0 0 0 255
-0.490126 5.883948 1.321778 0.846313 0.795189 0 0 0 255
-0.634910 6.706600 2.051513 0.835791 0.690665 0 0 0 255
-0.684597 6.666150 2.092466 0.828479 0.688233 0 0 0 255
-0.699339 6.706509 2.029729 0.820870 0.689575 0 0 0 255
-1.055909 7.261874 3.157222 0.843115 0.555024 0 0 0 255
-1.035944 7.261901 3.163973 0.840611 0.554974 0 0 0 255
-1.051341 7.249368 3.176662 0.838604 0.553912 0 0 0 255
-1.055909 7.261874 3.157222 0.836461 0.554659 0 0 0 255
-0.313090 4.797003 1.033729 0.188140 0.941474 0 0 0 255
-0.183924 5.213391 0.643017 0.212322 0.946479 0 0 0 255
-0.190899 5.248680 0.664005 0.212370 0.948235 0 0 0 255
-0.349762 6.019899 1.110206 0.084186 0.841962 0 0 0 255
-0.330345 5.580838 1.048166 0.065471 0.841472 0 0 0 255
-0.320243 5.586558 1.018162 0.065549 0.840117 0 0 0 255
-0.334798 6.343225 1.025996 0.097614 0.837637 0 0 0 255
-0.367547 6.015860 1.127655 0.084125 0.843025 0 0 0 255
-0.573622 4.542023 1.743100 0.155153 0.948080 0 0 0 255
-0.675474 4.221772 2.049814 0.136326 0.944357 0 0 0 255
-0.678063 4.214622 2.044208 0.136326 0.943959 0 0 0 255
-0.446307 5.910778 1.424559 0.142753 0.881974 0 0 0 255
-0.669687 5.767395 2.050100 0.114110 0.880929 0 0 0 255
-0.443988 5.869807 1.417463 0.142760 0.880217 0 0 0 255
-0.731002 5.657486 2.270452 0.103655 0.878632 0 0 0 255
-0.742266 5.631003 2.261551 0.103655 0.877361 0 0 0 255
-0.888043 5.669136 2.679734 0.085412 0.881687 0 0 0 255
-1.022264 5.567378 3.083031 0.066996 0.880823 0 0 0 255
-1.025797 5.559071 3.080240 0.066996 0.880424 0 0 0 255
-0.322043 4.772276 1.014337 0.188140 0.940096 0 0 0 255
-0.376027 6.618656 1.171481 0.110141 0.841967 0 0 0 255
-0.393719 6.614635 1.188839 0.110080 0.843025 0 0 0 255
-0.373933 6.844806 1.121679 0.119582 0.839460 0 0 0 255
0.113080 6.785434 0.337550 0.084515 0.848369 0 0 0 255
-0.014370 6.433318 -0.062854 0.061758 0.852481 0 0 0 255
-0.008742 6.383318 -0.025788 0.061136 0.849920 0 0 0 255
0.127205 6.809047 0.296968 0.084409 0.850435 0 0 0 255
0.289222 7.662345 0.738291 0.125064 0.856429 0 0 0 255
0.300400 7.681031 0.706176 0.124979 0.858064 0 0 0 255
0.445073 8.187211 1.091611 0.152501 0.858064 0 0 0 255
0.434891 8.170189 1.120866 0.152577 0.856575 0 0 0 255
0.595170 8.408718 1.555748 0.173305 0.849242 0 0 0 255
0.396261 7.670506 1.179643 0.153398 0.913435 0 0 0 255
0.544305 7.755822 1.546954 0.137462 0.918798 0 0 0 255
0.401488 7.680724 1.172894 0.153305 0.912890 0 0 0 255
0.463793 8.351020 1.104745 0.127569 0.837957 0 0 0 255
0.537834 8.601073 1.159770 0.138767 0.836949 0 0 0 255
0.466309 8.352631 1.091697 0.127599 0.838521 0 0 0 255
0.432284 8.178168 1.111381 0.120221 0.836949 0 0 0 255
0.427880 8.173366 1.095616 0.119919 0.837602 0 0 0 255
0.255327 7.167564 0.727469 0.182124 0.917453 0 0 0 255
0.120781 6.806574 0.309553 0.205705 0.918389 0 0 0 255
0.121525 6.791286 0.317084 0.205843 0.919084 0 0 0 255
0.361680 7.387215 1.005143 0.166779 0.917148 0 0 0 255
0.260582 7.177835 0.720685 0.182030 0.916905 0 0 0 255
0.366524 7.396685 0.998888 0.166693 0.916643 0 0 0 255
0.256827 7.849471 0.597767 0.142834 0.822418 0 0 0 255
0.295373 8.106573 0.587987 0.153575 0.820167 0 0 0 255
0.259591 7.848247 0.584728 0.142937 0.822973 0 0 0 255
0.286365 7.633000 0.706776 0.132653 0.820861 0 0 0 255
0.290667 7.634094 0.723249 0.132465 0.820167 0 0 0 255
0.254400 7.162730 0.722618 0.121072 0.871056 0 0 0 255
0.326862 7.137238 0.990165 0.109403 0.872364 0 0 0 255
0.256157 7.179612 0.724327 0.120968 0.870344 0 0 0 255
0.319853 7.125839 0.990470 0.109487 0.872922 0 0 0 255
0.382501 7.201742 1.195505 0.100246 0.870344 0 0 0 255
0.342150 2.637482 0.493757 0.158980 0.886096 0 0 0 255
0.570294 2.761583 0.911189 0.138251 0.886589 0 0 0 255
0.752273 13.169991 -0.115944 0.041167 0.825050 0 0 0 255
0.304259 12.569271 0.081962 0.046636 0.792818 0 0 0 255
0.265829 12.602620 0.093306 0.048798 0.793216 0 0 0 255
0.820868 13.586133 -0.415794 0.047633 0.845898 0 0 0 255
0.786428 13.149219 -0.107291 0.039457 0.824821 0 0 0 255
1.158133 13.864209 -0.658572 0.041158 0.865971 0 0 0 255
1.192109 13.843548 -0.649964 0.039457 0.865743 0 0 0 255
1.377913 14.357940 -0.663040 0.041009 0.888768 0 0 0 255
-0.034029 2.790255 -0.141922 0.105507 0.985201 0 0 0 255
-0.166164 2.976531 -0.446632 0.121500 0.984769 0 0 0 255
-0.153739 2.949497 -0.480666 0.121957 0.986612 0 0 0 255
-0.360863 3.458605 -0.952111 0.151418 0.979023 0 0 0 255
-0.347457 3.429435 -0.988833 0.151911 0.981012 0 0 0 255
-0.503973 3.635758 -1.438590 0.173617 0.983080 0 0 0 255
-0.769632 3.989299 -2.180104 0.209775 0.985961 0 0 0 255
-0.765736 3.980820 -2.190778 0.209936 0.986613 0 0 0 255
-0.192494 3.459676 -0.667782 0.136936 0.835701 0 0 0 255
-0.204532 3.908568 -0.620423 0.154801 0.830737 0 0 0 255
-0.191381 3.458230 -0.683216 0.136981 0.836338 0 0 0 255
-0.492098 3.291922 -1.414306 0.075296 0.939389 0 0 0 255
-0.347456 3.429435 -0.988834 0.057670 0.939697 0 0 0 255
-0.360861 3.458605 -0.952111 0.056238 0.938559 0 0 0 255
-0.166164 2.976531 -0.446631 0.115459 0.830411 0 0 0 255
-0.137941 3.231285 -0.561433 0.126670 0.833121 0 0 0 255
-0.153739 2.949497 -0.480666 0.114659 0.832087 0 0 0 255
-0.137902 3.235440 -0.542960 0.126698 0.832344 0 0 0 255
-0.356823 4.105381 -1.820525 0.091530 0.836338 0 0 0 255
0.000844 4.484691 -1.981164 0.114120 0.831956 0 0 0 255
0.003014 4.482029 -1.992828 0.114340 0.832420 0 0 0 255
-0.513821 3.657185 -1.411616 0.065471 0.831838 0 0 0 255
-0.428582 3.894346 -1.513527 0.076802 0.830080 0 0 0 255
-0.503974 3.635758 -1.438590 0.065471 0.833349 0 0 0 255
-0.358448 4.107491 -1.798001 0.091097 0.835485 0 0 0 255
-0.428543 3.898502 -1.495054 0.076544 0.829324 0 0 0 255
-0.513821 3.657185 -1.411615 0.173255 0.981619 0 0 0 255
-0.106686 8.317108 0.669545 0.104239 0.941817 0 0 0 255
-0.027058 7.861511 0.065777 0.136007 0.945792 0 0 0 255
-0.020041 7.899013 0.030251 0.136007 0.947987 0 0 0 255
0.069418 8.897792 0.979909 0.078232 0.953935 0 0 0 255
-0.129734 8.292435 0.692628 0.104201 0.940096 0 0 0 255
0.089452 9.144704 1.607158 0.050870 0.946370 0 0 0 255
0.066524 9.120159 1.630120 0.050833 0.944657 0 0 0 255
-0.066813 9.730169 2.035977 0.019664 0.948020 0 0 0 255
0.090668 8.920542 0.958627 0.115702 0.823292 0 0 0 255
0.058338 9.252617 1.344685 0.136453 0.829004 0 0 0 255
0.069418 8.897792 0.979909 0.115388 0.824852 0 0 0 255
0.081266 9.277162 1.321723 0.136791 0.827322 0 0 0 255
-0.058272 9.725104 1.353772 0.156309 0.823781 0 0 0 255
-0.018735 4.950878 -0.160310 0.036930 0.926859 0 0 0 255
-0.000820 5.134703 -0.493316 0.052550 0.923967 0 0 0 255
0.027512 5.108797 -0.517183 0.053283 0.925705 0 0 0 255
0.041807 5.613693 -1.036054 0.081008 0.913714 0 0 0 255
0.072378 5.585740 -1.061805 0.081799 0.915588 0 0 0 255
0.136172 5.790433 -1.534434 0.103408 0.914267 0 0 0 255
0.258359 5.695136 -2.369644 0.136816 0.926074 0 0 0 255
0.267245 5.687010 -2.377129 0.137142 0.926859 0 0 0 255
-0.097956 5.494447 -1.529676 0.120516 0.869683 0 0 0 255
0.072378 5.585740 -1.061806 0.100992 0.870024 0 0 0 255
0.041808 5.613693 -1.036053 0.100246 0.868297 0 0 0 255
0.360332 6.242934 -1.814548 0.057154 0.817226 0 0 0 255
0.755779 6.340867 -2.141872 0.064663 0.797513 0 0 0 255
0.760602 6.329975 -2.144304 0.065151 0.797563 0 0 0 255
0.378384 5.961019 -1.711889 0.064525 0.827719 0 0 0 255
0.136171 5.790433 -1.534435 0.063829 0.842437 0 0 0 255
0.113716 5.810967 -1.515519 0.062418 0.843025 0 0 0 255
0.348182 6.244643 -1.795473 0.056478 0.817919 0 0 0 255
0.387263 5.957128 -1.728154 0.065151 0.827208 0 0 0 255
0.113716 5.810967 -1.515518 0.102827 0.912890 0 0 0 255
-1.298055 8.194795 -0.986513 0.065471 0.814205 0 0 0 255
-1.289721 8.208184 -0.980011 0.065532 0.813516 0 0 0 255
-0.160908 8.921479 -0.031589 0.923812 0.994499 0 0 0 255
-0.160908 8.921479 -0.162162 0.876087 0.993899 0 0 0 255
-0.059024 7.184196 0.086626 0.860439 0.784108 0 0 0 255
0.333704 6.510807 0.038753 0.736963 0.486719 0 0 0 255
1.585743 8.378972 0.035504 0.746937 0.750403 0 0 0 255
-0.519408 3.684861 -0.076704 0.091170 0.084443 0 0 0 255
-0.749901 8.537065 -0.374526 0.283891 0.010012 0 0 0 255
-2.058902 11.021015 -2.018429 0.005178 0.012892 0 0 0 255
1.297011 11.695211 -0.798348 0.721114 0.518889 0 0 0 255
0.844353 10.608854 1.043838 0.859752 0.225006 0 0 0 255
-0.807399 6.078445 -0.633642 0.175704 0.978703 0 0 0 255
-2.141622 6.574840 -1.498989 0.105011 0.976477 0 0 0 255
-1.328861 10.275102 0.543737 0.051399 0.984010 0 0 0 255
-2.217127 10.618526 0.792550 0.008675 0.976303 0 0 0 255
-1.018047 4.830704 -0.200565 0.098943 0.818977 0 0 0 255
-1.630582 3.242658 0.325987 0.053234 0.973937 0 0 0 255
-1.805187 4.356262 -0.615942 0.074324 0.987374 0 0 0 255
-2.649050 4.149061 -0.833914 0.032587 0.987530 0 0 0 255
-0.831928 6.059227 -0.615781 0.097121 0.874099 0 0 0 255
-0.816332 6.060498 -0.622574 0.097124 0.873379 0 0 0 255
-0.934281 6.168242 -0.850524 0.108857 0.873806 0 0 0 255
-0.922739 6.174589 -0.852901 0.108857 0.873241 0 0 0 255
-1.113335 6.351023 -1.226202 0.128155 0.873848 0 0 0 255
-1.116672 6.349188 -1.225515 0.128155 0.874012 0 0 0 255
-0.998233 6.211425 -0.920171 0.113140 0.874747 0 0 0 255
-2.230858 6.319427 -0.858863 0.067032 0.874472 0 0 0 255
-1.128499 5.354223 -0.133971 0.125324 0.820178 0 0 0 255
-1.765339 12.949739 0.639426 0.796438 0.720078 0 0 0 255
0.858718 3.845743 -0.400126 0.078130 0.893975 0 0 0 255
2.222342 4.801066 -1.194981 0.156041 0.903754 0 0 0 255
1.796368 3.973176 -0.768843 0.181151 0.919779 0 0 0 255
1.496283 3.083508 2.290069 0.067003 0.892904 0 0 0 255
0.468049 3.455920 1.307036 0.115044 0.829004 0 0 0 255
1.200075 14.011999 1.096549 0.032572 0.941848 0 0 0 255
1.166873 13.024898 1.075625 0.147052 0.814899 0 0 0 255
-1.471046 15.483474 -0.025706 0.179066 0.860258 0 0 0 255
-0.567835 15.084617 -0.016737 0.146237 0.818658 0 0 0 255
2.990240 6.934744 -1.038556 0.217204 0.959914 0 0 0 255
2.488584 6.537729 -0.908195 0.204638 0.949771 0 0 0 255
-1.298798 8.227102 -0.970838 0.119155 0.937590 0 0 0 255
-2.799032 8.607495 -2.175503 0.036135 0.936936 0 0 0 255
-1.823123 8.880799 -1.404228 0.104614 0.813516 0 0 0 255
-2.395317 7.812094 -1.842875 0.131743 0.819271 0 0 0 255
0.703940 9.966051 -1.863364 0.015202 0.942641 0 0 0 255
1.067049 9.718737 -0.662199 0.144906 0.811849 0 0 0 255
-0.699339 6.706509 2.029729 0.842521 0.690703 0 0 0 255
-0.318401 6.346951 1.009909 0.097670 0.836657 0 0 0 255
-0.564716 4.566621 1.762391 0.155153 0.949451 0 0 0 255
-0.657470 5.796120 2.059754 0.114110 0.882307 0 0 0 255
-0.875890 5.697711 2.689339 0.085412 0.883058 0 0 0 255
-0.368791 6.845973 1.116633 0.119599 0.839153 0 0 0 255
0.592166 8.403694 1.564380 0.173328 0.848803 0 0 0 255
0.542786 7.752852 1.548915 0.137534 0.919084 0 0 0 255
0.789378 13.605285 -0.423772 0.049210 0.846109 0 0 0 255
1.368037 14.363947 -0.665542 0.041503 0.888834 0 0 0 255
-0.047506 2.819577 -0.105008 0.105011 0.983202 0 0 0 255
-0.205223 3.909415 -0.616710 0.154762 0.830411 0 0 0 255
-0.492098 3.291922 -1.414306 0.075296 0.939697 0 0 0 255
0.090668 8.920542 0.958627 0.078267 0.955522 0 0 0 255
-0.060148 9.737305 2.029303 0.019678 0.948566 0 0 0 255
-0.051607 9.732239 1.347098 0.156407 0.823292 0 0 0 255
-0.049466 4.978975 -0.134423 0.036135 0.924975 0 0 0 255
-0.097956 5.494447 -1.529676 0.120516 0.870024 0 0 0 255
3 0 1 2
3 2 1 3
3 3 1 4
3 4 1 5
3 6 7 8
3 6 9 10
3 11 9 12
3 13 14 15
3 16 17 13
3 18 19 20
3 21 22 23
3 24 6 8
3 25 6 26
3 25 11 12
3 27 28 11
3 17 27 29
3 30 18 31
3 32 21 23
3 33 26 24
3 34 26 35
3 34 36 25
3 37 36 38
3 39 40 27
3 41 31 42
3 43 44 32
3 45 33 46
3 45 34 35
3 47 34 48
3 47 37 38
3 49 39 50
3 51 41 42
3 52 43 53
3 54 55 56
3 57 58 54
3 59 57 60
3 61 59 60
3 59 62 58
3 55 62 63
3 59 64 65
3 62 66 67
3 62 68 63
3 64 66 65
3 66 69 70
3 67 70 71
3 67 72 68
3 73 74 75
3 76 73 75
3 77 73 76
3 78 79 74
3 73 80 81
3 73 82 78
3 83 82 84
3 81 85 86
3 81 87 82
3 82 88 84
3 88 89 90
3 86 91 92
3 86 89 87
3 93 94 95
3 96 93 95
3 97 93 96
3 98 99 94
3 93 100 101
3 93 102 98
3 98 103 104
3 101 105 106
3 102 106 107
3 102 108 103
3 108 109 110
3 105 111 106
3 107 111 109
3 21 5 112
3 3 21 44
3 2 44 113
3 52 2 113
3 114 115 116
3 117 114 116
3 118 114 117
3 115 119 120
3 121 122 119
3 123 124 125
3 114 126 121
3 127 128 129
3 128 130 123
3 122 131 132
3 133 134 135
3 133 131 126
3 136 114 137
3 127 138 139
3 130 140 124
3 138 141 142
3 143 142 144
3 143 145 140
3 138 130 139
3 146 147 148
3 149 150 147
3 150 146 148
3 149 151 152
3 146 153 154
3 151 155 156
3 151 157 158
3 158 155 153
3 151 146 152
3 147 150 148
3 156 155 157
3 159 160 161
3 160 162 163
3 163 164 165
3 164 166 165
3 167 168 169
3 167 170 171
3 170 172 173
3 172 174 173
3 175 176 177
3 178 179 180
3 181 182 179
3 183 184 185
3 186 187 188
3 187 189 190
3 189 191 190
3 191 192 193
3 194 195 196
3 197 198 199
3 200 198 201
3 175 183 202
3 182 203 204
3 203 205 204
3 206 207 208
3 209 210 206
3 211 212 213
3 208 211 213
3 211 214 215
3 207 216 217
3 207 218 211
3 214 219 220
3 216 221 217
3 218 221 219
3 219 222 223
3 220 223 224
3 225 222 221
3 226 227 228
3 227 229 230
3 229 231 230
3 232 233 231
3 234 235 236
3 237 238 239
3 240 239 241
3 242 243 244
3 245 246 242
3 245 235 247
3 248 249 250
3 251 250 252
3 253 254 255
3 256 257 258
3 257 259 258
3 260 261 259
3 262 263 264
3 265 266 267
3 265 268 269
3 270 271 272
3 270 273 274
3 275 263 273
3 276 277 278
3 276 279 280
3 281 279 282
3 283 284 285
3 53 286 287
3 43 288 286
3 288 23 289
3 289 22 290
3 289 19 291
3 288 291 30
3 41 288 30
3 292 286 41
3 293 294 295
3 296 297 298
3 298 299 300
3 299 301 300
3 302 303 304
3 304 305 306
3 307 308 309
3 306 310 311
3 312 313 314
3 315 316 307
3 317 318 319
3 308 320 309
3 321 322 323
3 324 325 326
3 327 325 328
3 329 330 331
3 332 333 334
3 335 336 337
3 336 338 337
3 339 340 338
3 341 342 343
3 344 345 346
3 347 346 348
3 349 350 351
3 352 353 349
3 341 354 352
3 355 356 357
3 355 358 359
3 360 361 362
3 363 364 361
3 46 365 366
3 365 24 367
3 367 8 368
3 8 369 368
3 370 371 372
3 371 373 374
3 374 375 376
3 375 377 376
3 378 379 380
3 381 382 383
3 384 385 386
3 387 388 389
3 389 390 391
3 390 392 391
3 393 394 395
3 396 397 398
3 399 400 401
3 402 394 403
3 404 405 406
3 407 404 406
3 408 404 407
3 409 408 410
3 404 411 412
3 404 413 414
3 415 416 411
3 412 417 418
3 412 419 413
3 416 417 411
3 417 420 421
3 418 421 422
3 418 423 419
3 424 425 426
3 427 428 429
3 427 430 431
3 432 433 434
3 435 436 437
3 436 438 439
3 438 440 439
3 440 441 442
3 424 432 443
3 430 444 445
3 444 446 445
3 447 448 449
3 450 451 452
3 451 453 452
3 454 455 453
3 456 457 458
3 459 460 461
3 462 461 463
3 464 465 466
3 467 468 464
3 456 469 467
3 470 471 472
3 470 473 474
3 475 476 477
3 478 479 476
3 480 481 256
3 482 483 484
3 482 485 486
3 485 487 488
3 487 489 488
3 490 491 492
3 492 493 494
3 495 496 497
3 498 499 500
3 501 502 503
3 504 505 506
3 498 505 507
3 508 509 510
3 511 512 513
3 514 512 515
3 494 516 495
3 517 518 519
3 517 520 521
3 520 522 523
3 522 524 523
3 525 526 527
3 528 529 526
3 530 531 532
3 532 533 534
3 535 536 537
3 538 539 540
3 541 542 543
3 544 545 546
3 547 548 544
3 534 549 535
3 378 550 551
3 29 552 14
3 28 17 16
3 6 10 7
3 6 12 9
3 11 15 9
3 15 11 13
3 11 16 13
3 18 291 19
3 21 112 22
3 24 26 6
3 25 12 6
3 25 36 11
3 11 36 27
3 28 16 11
3 28 27 17
3 27 40 29
3 30 291 18
3 32 44 21
3 33 35 26
3 34 25 26
3 34 38 36
3 37 27 36
3 39 553 40
3 41 30 31
3 43 113 44
3 45 35 33
3 45 48 34
3 47 38 34
3 47 554 37
3 49 553 39
3 51 292 41
3 52 113 43
3 54 58 55
3 59 58 57
3 61 555 59
3 59 65 62
3 55 58 62
3 59 555 64
3 62 65 66
3 62 67 68
3 64 556 66
3 66 556 69
3 67 66 70
3 67 71 72
3 73 78 74
3 77 557 73
3 78 83 79
3 73 557 80
3 73 81 82
3 83 78 82
3 81 80 85
3 81 86 87
3 82 87 88
3 88 87 89
3 86 85 91
3 86 92 89
3 93 98 94
3 97 558 93
3 98 104 99
3 93 558 100
3 93 101 102
3 98 102 103
3 101 100 105
3 102 101 106
3 102 107 108
3 108 107 109
3 105 559 111
3 107 106 111
3 21 4 5
3 3 4 21
3 2 3 44
3 52 0 2
3 114 121 115
3 118 137 114
3 115 121 119
3 121 126 122
3 123 130 124
3 114 133 126
3 127 139 128
3 128 139 130
3 122 126 131
3 133 136 134
3 133 135 131
3 136 133 114
3 127 560 138
3 130 143 140
3 138 560 141
3 143 138 142
3 143 144 145
3 138 143 130
3 146 154 147
3 149 152 150
3 150 152 146
3 149 561 151
3 146 158 153
3 151 561 155
3 151 156 157
3 158 157 155
3 151 158 146
3 159 562 160
3 160 562 162
3 163 162 164
3 164 563 166
3 167 171 168
3 167 564 170
3 170 564 172
3 172 565 174
3 175 202 176
3 178 181 179
3 181 566 182
3 183 567 184
3 186 568 187
3 187 568 189
3 189 569 191
3 191 569 192
3 570 571 572
3 571 573 572
3 574 575 194
3 575 195 194
3 196 572 576
3 572 573 576
3 576 194 196
3 197 577 198
3 200 199 198
3 175 567 183
3 182 566 203
3 203 578 205
3 206 210 207
3 211 215 212
3 208 207 211
3 211 218 214
3 207 210 216
3 207 217 218
3 214 218 219
3 216 225 221
3 218 217 221
3 219 221 222
3 220 219 223
3 225 579 222
3 226 580 227
3 227 580 229
3 229 232 231
3 232 581 233
3 234 582 235
3 240 237 239
3 242 246 243
3 245 247 246
3 245 236 235
3 251 248 250
3 253 480 254
3 256 481 257
3 257 260 259
3 260 583 261
3 262 584 263
3 265 267 268
3 270 274 271
3 270 275 273
3 275 264 263
3 276 278 279
3 281 280 279
3 53 43 286
3 43 32 288
3 288 32 23
3 289 23 22
3 289 290 19
3 288 289 291
3 41 286 288
3 292 287 286
3 293 296 294
3 296 293 297
3 298 297 299
3 299 585 301
3 302 586 303
3 304 303 305
3 307 316 308
3 306 305 310
3 312 315 313
3 315 312 316
3 308 587 320
3 324 588 325
3 327 326 325
3 332 335 333
3 335 332 336
3 336 339 338
3 339 589 340
3 341 590 342
3 347 344 346
3 349 353 350
3 352 354 353
3 341 343 354
3 355 357 358
3 360 363 361
3 46 33 365
3 365 33 24
3 367 24 8
3 8 7 369
3 370 591 371
3 371 591 373
3 374 373 375
3 375 592 377
3 378 593 379
3 381 594 382
3 384 387 385
3 387 384 388
3 389 388 390
3 390 595 392
3 393 596 394
3 402 395 394
3 404 414 405
3 408 415 404
3 409 415 408
3 404 415 411
3 404 412 413
3 415 409 416
3 412 411 417
3 412 418 419
3 416 597 417
3 417 597 420
3 418 417 421
3 418 422 423
3 424 443 425
3 427 431 428
3 427 598 430
3 432 599 433
3 435 600 436
3 436 600 438
3 438 601 440
3 440 601 441
3 424 599 432
3 430 598 444
3 444 602 446
3 447 450 448
3 450 447 451
3 451 454 453
3 454 603 455
3 456 604 457
3 462 459 461
3 464 468 465
3 467 469 468
3 456 458 469
3 470 472 473
3 475 478 476
3 480 253 481
3 482 486 483
3 482 605 485
3 485 605 487
3 487 606 489
3 490 607 491
3 492 491 493
3 495 516 496
3 498 608 499
3 501 609 502
3 504 507 505
3 498 500 505
3 508 514 509
3 511 515 512
3 514 508 512
3 494 493 516
3 517 521 518
3 517 610 520
3 520 610 522
3 522 611 524
3 525 528 526
3 528 612 529
3 530 613 531
3 532 531 533
3 535 549 536
3 538 614 539
3 541 547 542
3 544 548 545
3 547 541 548
3 534 533 549
3 378 380 550
3 14 13 17
3 17 29 14
