ply
format ascii 1.0
comment Created by Blender 2.81 (sub 16) - www.blender.org, source file: 'suz.blend'
element vertex 14
property float x
property float y
property float z
property float s
property float t
property uchar red
property uchar green
property uchar blue
property uchar alpha
element face 12
property list uchar uint vertex_indices
end_header
1.000000 1.000000 -1.000000 0.625000 0.000000 0 0 0 255
1.000000 -1.000000 1.000000 0.375000 0.250000 0 0 0 255
1.000000 -1.000000 -1.000000 0.375000 0.000000 0 0 0 255
1.000000 1.000000 1.000000 0.625000 0.250000 0 0 0 255
-1.000000 -1.000000 1.000000 0.375000 0.500000 0 0 0 255
-1.000000 1.000000 1.000000 0.625000 0.500000 0 0 0 255
-1.000000 -1.000000 -1.000000 0.375000 0.750000 0 0 0 255
-1.000000 1.000000 -1.000000 0.625000 0.750000 0 0 0 255
1.000000 -1.000000 -1.000000 0.375000 1.000000 0 0 0 255
1.000000 -1.000000 -1.000000 0.125000 0.750000 0 0 0 255
1.000000 -1.000000 1.000000 0.125000 0.500000 0 0 0 255
1.000000 1.000000 1.000000 0.875000 0.500000 0 0 0 255
1.000000 1.000000 -1.000000 0.625000 1.000000 0 0 0 255
1.000000 1.000000 -1.000000 0.875000 0.750000 0 0 0 255
3 0 1 2
3 3 4 1
3 5 6 4
3 7 8 6
3 4 9 10
3 11 7 5
3 0 3 1
3 3 5 4
3 5 7 6
3 7 12 8
3 4 6 9
3 11 13 7
