ply
format ascii 1.0
comment Created by Blender 2.81 (sub 16) - www.blender.org, source file: ''
element vertex 8
property float x
property float y
property float z
property uchar red
property uchar green
property uchar blue
property uchar alpha
element face 12
property list uchar uint vertex_indices
end_header
-1.000000 -1.000000 1.000000 255 1 9 255
-1.000000 1.000000 -1.000000 255 174 119 255
-1.000000 -1.000000 -1.000000 1 255 248 255
-1.000000 1.000000 1.000000 255 0 9 255
1.000000 1.000000 -1.000000 36 1 255 255
1.000000 1.000000 1.000000 255 63 64 255
1.000000 -1.000000 -1.000000 33 251 255 255
1.000000 -1.000000 1.000000 255 0 9 255
3 0 1 2
3 3 4 1
3 5 6 4
3 7 2 6
3 4 2 1
3 3 7 5
3 0 3 1
3 3 5 4
3 5 7 6
3 7 0 2
3 4 6 2
3 3 0 7
