ply
format ascii 1.0
comment Created by Blender 2.81 (sub 16) - www.blender.org, source file: 'suz.blend'
element vertex 16
property float x
property float y
property float z
property float s
property float t
property uchar red
property uchar green
property uchar blue
property uchar alpha
element face 12
property list uchar uint vertex_indices
end_header
1.000000 1.000000 -1.000000 0.000000 1.000000 0 0 0 255
1.000000 -1.000000 1.000000 1.000000 0.000000 0 0 0 255
1.000000 -1.000000 -1.000000 0.000000 0.000000 0 0 0 255
1.000000 1.000000 1.000000 0.000000 1.000000 0 0 0 255
-1.000000 -1.000000 1.000000 1.000000 0.000000 0 0 0 255
1.000000 -1.000000 1.000000 0.000000 0.000000 0 0 0 255
-1.000000 1.000000 1.000000 1.000000 1.000000 0 0 0 255
-1.000000 -1.000000 -1.000000 0.000000 0.000000 0 0 0 255
-1.000000 1.000000 -1.000000 1.000000 1.000000 0 0 0 255
-1.000000 -1.000000 -1.000000 1.000000 0.000000 0 0 0 255
-1.000000 -1.000000 1.000000 1.000000 1.000000 0 0 0 255
1.000000 -1.000000 1.000000 0.000000 1.000000 0 0 0 255
-1.000000 1.000000 -1.000000 1.000000 0.000000 0 0 0 255
1.000000 1.000000 1.000000 1.000000 1.000000 0 0 0 255
-1.000000 1.000000 -1.000000 0.000000 1.000000 0 0 0 255
1.000000 1.000000 -1.000000 0.000000 0.000000 0 0 0 255
3 0 1 2
3 3 4 5
3 6 7 4
3 8 2 9
3 10 2 11
3 3 12 6
3 0 13 1
3 3 6 4
3 6 14 7
3 8 0 2
3 10 9 2
3 3 15 12
