ply
format ascii 1.0
comment Created by Blender 2.81 (sub 16) - www.blender.org, source file: 'TUFT.blend'
element vertex 202
property float x
property float y
property float z
property float s
property float t
property uchar red
property uchar green
property uchar blue
property uchar alpha
element face 228
property list uchar uint vertex_indices
end_header
4.617867 1.100001 2.967635 0.944642 0.071043 0 0 0 255
4.617867 0.300000 4.349068 0.981547 0.004796 0 0 0 255
4.617867 0.300000 2.967635 0.981547 0.071043 0 0 0 255
-4.689729 0.300000 4.349068 0.327130 0.504796 0 0 0 255
4.617867 0.300000 4.349068 0.327130 0.951148 0 0 0 255
-1.604726 1.100001 4.349068 0.290225 0.652739 0 0 0 255
-4.689729 0.300000 -3.279124 0.183047 0.504796 0 0 0 255
-4.689729 0.300000 0.534972 0.183047 0.687703 0 0 0 255
-4.689729 1.100000 -2.064990 0.146141 0.563020 0 0 0 255
2.706049 1.100000 -3.279124 0.853859 0.734872 0 0 0 255
4.617867 0.300000 -3.279124 0.816953 0.826555 0 0 0 255
2.706049 0.300000 -3.279124 0.816953 0.734872 0 0 0 255
4.617867 2.923302 0.534972 0.860530 0.187703 0 0 0 255
4.617867 2.923301 -3.279124 0.860530 0.370611 0 0 0 255
4.617867 4.167911 0.534972 0.803114 0.187703 0 0 0 255
4.617867 2.923302 4.349068 0.024207 0.473176 0 0 0 255
-5.149073 2.789377 4.773794 0.004613 0.004796 0 0 0 255
-4.689729 2.923302 4.349068 0.024207 0.026824 0 0 0 255
-5.149073 4.167911 0.534972 0.200158 0.004796 0 0 0 255
-4.689729 4.167911 0.534972 0.200158 0.026824 0 0 0 255
-4.689729 2.923302 0.534972 0.062029 0.687703 0 0 0 255
-4.689729 2.923302 4.349068 0.062029 0.870611 0 0 0 255
-4.689729 4.167911 0.534972 0.004613 0.687703 0 0 0 255
-4.689729 2.923301 -3.279124 0.062029 0.504796 0 0 0 255
-4.689729 1.100000 1.667129 0.146141 0.741997 0 0 0 255
-4.689729 0.300000 4.349068 0.183047 0.870611 0 0 0 255
4.617867 2.923302 4.349068 0.860530 0.004796 0 0 0 255
4.617867 1.100000 0.534972 0.944642 0.187703 0 0 0 255
4.617867 0.300000 -3.279124 0.981547 0.370611 0 0 0 255
4.617867 1.100000 -3.279124 0.944642 0.370611 0 0 0 255
-4.689729 2.923301 -3.279124 0.376109 0.026824 0 0 0 255
5.077211 2.789376 -3.703851 0.395702 0.495204 0 0 0 255
4.617867 2.923301 -3.279124 0.376109 0.473176 0 0 0 255
5.077211 4.167911 0.534972 0.200158 0.495204 0 0 0 255
5.077211 2.789377 4.773794 0.004613 0.495204 0 0 0 255
4.617867 4.167911 0.534972 0.200158 0.473176 0 0 0 255
-5.149073 2.789376 -3.703851 0.395702 0.004796 0 0 0 255
-5.149073 2.789376 -3.703851 0.350196 0.504796 0 0 0 255
5.077211 3.140415 -3.703851 0.366391 0.995204 0 0 0 255
5.077211 2.789376 -3.703851 0.350196 0.995204 0 0 0 255
5.077211 4.167911 0.534972 0.641278 0.708071 0 0 0 255
5.077211 3.140416 4.773794 0.688678 0.504796 0 0 0 255
5.077211 2.789377 4.773794 0.704872 0.504796 0 0 0 255
-5.149073 4.167911 0.534972 0.730293 0.708071 0 0 0 255
-5.149073 3.140415 -3.703851 0.777693 0.504796 0 0 0 255
-5.149073 2.789376 -3.703851 0.793887 0.504796 0 0 0 255
5.077211 3.140415 -3.703851 0.688678 0.911347 0 0 0 255
5.077211 4.518950 0.534972 0.625084 0.708071 0 0 0 255
-5.149073 3.140416 4.773794 0.777693 0.911347 0 0 0 255
-5.149073 4.518950 0.534972 0.714099 0.708071 0 0 0 255
5.077211 2.789377 4.773794 0.391811 0.995204 0 0 0 255
-5.149073 3.140416 4.773794 0.375617 0.504796 0 0 0 255
-5.149073 2.789377 4.773794 0.391811 0.504796 0 0 0 255
5.077211 3.140415 -3.703851 0.404929 0.495204 0 0 0 255
-5.149073 4.518950 0.534972 0.606036 0.004796 0 0 0 255
5.077211 4.518950 0.534972 0.606036 0.495204 0 0 0 255
5.077211 3.140416 4.773794 0.793887 0.495204 0 0 0 255
-5.149073 3.140416 4.773794 0.793887 0.004796 0 0 0 255
4.617867 2.499999 -3.279124 0.880057 0.370611 0 0 0 255
-4.689729 2.500000 1.667129 0.081557 0.741997 0 0 0 255
-4.689729 2.500000 3.216911 0.081557 0.816318 0 0 0 255
0.741946 2.499999 -3.279124 0.918443 0.640682 0 0 0 255
-0.794860 2.499999 -3.279124 0.918443 0.566983 0 0 0 255
4.617867 2.923301 -3.279124 0.937971 0.826555 0 0 0 255
-4.689729 2.499999 -3.279124 0.081557 0.504796 0 0 0 255
-4.689729 2.500000 -2.064990 0.081557 0.563020 0 0 0 255
-3.491058 2.500000 4.349068 0.225641 0.562279 0 0 0 255
-1.604726 2.500000 4.349068 0.225641 0.652739 0 0 0 255
-4.689729 2.923302 4.349068 0.206113 0.504796 0 0 0 255
4.617867 2.500000 2.967635 0.880057 0.071043 0 0 0 255
4.617867 2.500000 1.916404 0.880057 0.121456 0 0 0 255
4.617867 2.500000 0.534972 0.880057 0.187703 0 0 0 255
-4.689729 2.500000 0.534972 0.081557 0.687703 0 0 0 255
2.706049 2.499999 -3.279124 0.918443 0.734872 0 0 0 255
4.617867 1.100000 -3.279124 0.853859 0.826555 0 0 0 255
-4.689729 2.500000 4.349068 0.225641 0.504796 0 0 0 255
-3.491058 1.100001 4.349068 0.290225 0.562279 0 0 0 255
4.617867 1.100001 4.349068 0.944642 0.004796 0 0 0 255
-4.586467 2.500000 -0.602342 0.081557 0.633163 0 0 0 255
-4.689729 2.500000 -0.602342 0.081557 0.633163 0 0 0 255
-4.689729 1.100000 0.534972 0.146141 0.687703 0 0 0 255
-4.689729 1.100001 4.349068 0.146141 0.870611 0 0 0 255
-4.689729 2.500000 4.349068 0.081557 0.870611 0 0 0 255
-4.586467 1.100000 -0.602342 0.146141 0.633163 0 0 0 255
-4.689729 1.100000 -0.602342 0.146141 0.633163 0 0 0 255
1.723922 2.499999 -3.279124 0.918443 0.687773 0 0 0 255
0.741946 1.100000 -3.279124 0.853859 0.640682 0 0 0 255
2.706049 2.499999 -3.346198 0.918443 0.734872 0 0 0 255
1.723922 0.300000 -3.279124 0.816953 0.687773 0 0 0 255
-4.689729 0.300000 -3.279124 0.816953 0.380202 0 0 0 255
-2.032680 1.100000 -3.279124 0.853859 0.507623 0 0 0 255
2.706049 1.100000 -3.346198 0.853859 0.734872 0 0 0 255
-4.689729 0.000000 0.534972 0.196886 0.687703 0 0 0 255
4.617867 -0.000000 -3.279124 0.803114 0.826555 0 0 0 255
2.706049 -0.000000 -3.279124 0.803114 0.734872 0 0 0 255
4.617867 0.000000 4.349068 0.340970 0.951148 0 0 0 255
4.617867 0.000000 4.349068 0.995387 0.004796 0 0 0 255
4.617867 0.000000 2.967635 0.995387 0.071043 0 0 0 255
-4.689729 -0.000000 -3.279124 0.803114 0.380202 0 0 0 255
2.706049 -0.000000 -3.279124 0.433381 0.534623 0 0 0 255
2.706049 0.300000 -3.686020 0.419542 0.554136 0 0 0 255
2.706049 0.300000 -3.279124 0.419542 0.534623 0 0 0 255
-4.689729 0.000000 4.349068 0.196886 0.870611 0 0 0 255
4.617867 0.300000 0.534972 0.981547 0.187703 0 0 0 255
4.617867 -0.000000 -3.279124 0.995387 0.370611 0 0 0 255
1.723922 0.300000 -3.686020 0.479513 0.504796 0 0 0 255
2.706049 -0.000000 -3.686020 0.465673 0.551894 0 0 0 255
1.723922 -0.000000 -3.686020 0.465673 0.504796 0 0 0 255
1.723922 0.300000 -3.279124 0.442608 0.554136 0 0 0 255
1.723922 -0.000000 -3.686020 0.456447 0.534623 0 0 0 255
1.723922 -0.000000 -3.279124 0.456447 0.554136 0 0 0 255
2.706049 0.300000 -3.279124 0.530474 0.551894 0 0 0 255
1.723922 0.300000 -3.686020 0.511805 0.504796 0 0 0 255
1.723922 0.300000 -3.279124 0.530474 0.504796 0 0 0 255
1.723922 -0.000000 -3.279124 0.539700 0.504796 0 0 0 255
2.706049 -0.000000 -3.686020 0.558471 0.551894 0 0 0 255
2.706049 -0.000000 -3.279124 0.539700 0.551894 0 0 0 255
4.617867 0.000000 1.916404 0.995387 0.121456 0 0 0 255
4.617867 0.000000 0.534972 0.995387 0.187703 0 0 0 255
4.617867 0.300000 2.967635 0.567697 0.504796 0 0 0 255
5.039853 0.300000 1.916404 0.587164 0.554934 0 0 0 255
4.617867 0.300000 1.916404 0.567697 0.554934 0 0 0 255
4.617867 1.100000 1.916404 0.944642 0.121456 0 0 0 255
4.681872 0.300000 1.916404 0.981547 0.121456 0 0 0 255
4.617867 0.300000 1.916404 0.981547 0.121456 0 0 0 255
4.681872 2.500000 1.916404 0.880057 0.121456 0 0 0 255
5.039853 0.300000 1.916404 0.488739 0.555208 0 0 0 255
5.039853 0.000000 2.967635 0.502579 0.504796 0 0 0 255
5.039853 0.000000 1.916404 0.502579 0.555208 0 0 0 255
4.617867 0.300000 1.916404 0.433381 0.504796 0 0 0 255
5.039853 0.000000 1.916404 0.419542 0.525032 0 0 0 255
4.617867 0.000000 1.916404 0.419542 0.504796 0 0 0 255
4.617867 0.300000 2.967635 0.456447 0.525032 0 0 0 255
5.039853 0.000000 2.967635 0.442608 0.504796 0 0 0 255
5.039853 0.300000 2.967635 0.456447 0.504796 0 0 0 255
4.617867 0.000000 1.916404 0.615858 0.555208 0 0 0 255
5.039853 0.000000 2.967635 0.596391 0.504796 0 0 0 255
4.617867 0.000000 2.967635 0.615858 0.504796 0 0 0 255
-2.032680 2.499999 -3.279124 0.918443 0.507623 0 0 0 255
-0.794860 2.499999 -3.179817 0.918443 0.566983 0 0 0 255
-3.508444 2.499999 -3.279124 0.918443 0.436852 0 0 0 255
-4.689729 1.100000 -3.279124 0.853859 0.380202 0 0 0 255
-4.689729 2.499999 -3.279124 0.918443 0.380202 0 0 0 255
-0.794860 1.100000 -3.279124 0.853859 0.566983 0 0 0 255
0.741946 1.100000 -3.179817 0.853859 0.640682 0 0 0 255
4.617867 2.500000 4.349068 0.225641 0.951148 0 0 0 255
4.617867 1.100001 4.349068 0.290225 0.951148 0 0 0 255
-3.491058 2.500000 4.236102 0.225641 0.562279 0 0 0 255
1.723922 1.100000 -3.346198 0.853859 0.687773 0 0 0 255
1.723922 2.499999 -3.346198 0.918443 0.687773 0 0 0 255
2.706049 0.300000 -3.346198 0.816953 0.734872 0 0 0 255
1.723922 0.300000 -3.346198 0.816953 0.687773 0 0 0 255
2.706049 0.300000 -3.346198 0.530474 0.551894 0 0 0 255
1.723922 1.100000 -3.279124 0.853859 0.687773 0 0 0 255
0.741946 2.499999 -3.179817 0.918443 0.640682 0 0 0 255
-0.794860 1.100000 -3.179817 0.853859 0.566983 0 0 0 255
-2.032680 2.499999 -3.179817 0.918443 0.507623 0 0 0 255
-3.508444 1.100000 -3.179817 0.853859 0.436852 0 0 0 255
-3.508444 2.499999 -3.179817 0.918443 0.436852 0 0 0 255
-3.508444 1.100000 -3.279124 0.853859 0.436852 0 0 0 255
-2.032680 1.100000 -3.179817 0.853859 0.507623 0 0 0 255
4.681872 1.100001 2.967635 0.944642 0.071043 0 0 0 255
4.681872 1.100000 1.916404 0.944642 0.121456 0 0 0 255
4.681872 0.300000 2.967635 0.981547 0.071043 0 0 0 255
4.681872 0.300000 2.967635 0.567697 0.504796 0 0 0 255
4.681872 2.500000 2.967635 0.880057 0.071043 0 0 0 255
-1.604726 2.500000 4.236102 0.225641 0.652739 0 0 0 255
-3.491058 1.100001 4.236102 0.290225 0.562279 0 0 0 255
-1.604726 1.100001 4.236102 0.290225 0.652739 0 0 0 255
-4.586467 1.100000 -2.064990 0.146141 0.563020 0 0 0 255
-4.586467 2.500000 3.216911 0.081557 0.816318 0 0 0 255
-4.586467 1.100000 1.667129 0.146141 0.741997 0 0 0 255
-4.586467 1.100000 3.216911 0.146141 0.816318 0 0 0 255
-4.689729 1.100000 3.216911 0.146141 0.816318 0 0 0 255
-4.586467 2.500000 -2.064990 0.081557 0.563020 0 0 0 255
-4.586467 2.500000 1.667129 0.081557 0.741997 0 0 0 255
-4.689729 1.100001 4.349068 0.290225 0.504796 0 0 0 255
-4.689729 1.100000 -3.279124 0.146141 0.504796 0 0 0 255
-5.149073 3.140415 -3.703851 0.366390 0.504796 0 0 0 255
5.077211 2.789376 -3.703851 0.704872 0.911347 0 0 0 255
-5.149073 2.789377 4.773794 0.793887 0.911347 0 0 0 255
5.077211 3.140416 4.773794 0.375617 0.995204 0 0 0 255
-5.149073 3.140415 -3.703851 0.404929 0.004796 0 0 0 255
-4.689729 2.923301 -3.279124 0.937971 0.380202 0 0 0 255
4.617867 2.499999 -3.279124 0.918443 0.826555 0 0 0 255
4.617867 2.923302 4.349068 0.206113 0.951148 0 0 0 255
4.617867 2.500000 4.349068 0.880057 0.004796 0 0 0 255
-4.689729 -0.000000 -3.279124 0.196886 0.504796 0 0 0 255
-4.689729 0.000000 4.349068 0.340970 0.504796 0 0 0 255
1.723922 -0.000000 -3.279124 0.803114 0.687773 0 0 0 255
2.706049 -0.000000 -3.686020 0.433381 0.554136 0 0 0 255
2.706049 0.300000 -3.686020 0.479513 0.551894 0 0 0 255
1.723922 0.300000 -3.686020 0.442608 0.534623 0 0 0 255
2.706049 0.300000 -3.686020 0.511805 0.551894 0 0 0 255
1.723922 -0.000000 -3.686020 0.558471 0.504796 0 0 0 255
5.039853 0.300000 2.967635 0.587164 0.504796 0 0 0 255
5.039853 0.300000 2.967635 0.488739 0.504796 0 0 0 255
5.039853 0.300000 1.916404 0.433381 0.525032 0 0 0 255
4.617867 0.000000 2.967635 0.442608 0.525032 0 0 0 255
5.039853 0.000000 1.916404 0.596391 0.555208 0 0 0 255
1.723922 0.300000 -3.346198 0.530474 0.504796 0 0 0 255
4.681872 0.300000 1.916404 0.567697 0.554934 0 0 0 255
3 0 1 2
3 3 4 5
3 6 7 8
3 9 10 11
3 12 13 14
3 15 16 17
3 17 18 19
3 20 21 22
3 23 20 22
3 24 7 25
3 26 12 14
3 27 28 29
3 30 31 32
3 15 33 34
3 32 33 35
3 30 18 36
3 37 38 39
3 40 41 42
3 43 44 45
3 40 46 47
3 43 48 49
3 50 51 52
3 53 54 55
3 56 54 57
3 12 58 13
3 20 59 60
3 61 62 63
3 23 64 65
3 66 67 68
3 26 69 70
3 71 29 58
3 72 24 59
3 73 74 9
3 64 8 65
3 75 76 66
3 69 77 0
3 65 78 79
3 79 80 72
3 60 81 82
3 79 83 84
3 85 86 61
3 9 87 73
3 88 89 90
3 11 91 9
3 6 92 7
3 11 93 94
3 3 95 4
3 2 96 97
3 88 98 89
3 99 100 101
3 7 102 25
3 103 104 28
3 105 106 107
3 108 109 110
3 111 112 113
3 114 115 116
3 103 117 118
3 119 120 121
3 70 27 71
3 122 123 124
3 122 103 27
3 69 125 70
3 126 127 128
3 129 130 131
3 132 133 134
3 135 136 137
3 62 90 138
3 61 139 62
3 140 141 142
3 143 144 86
3 145 5 146
3 76 147 66
3 87 148 149
3 148 150 151
3 73 149 85
3 113 152 111
3 153 151 88
3 85 148 153
3 154 155 139
3 156 157 158
3 140 157 159
3 62 155 143
3 90 156 138
3 159 160 90
3 138 158 140
3 86 154 61
3 125 161 162
3 162 163 123
3 121 164 119
3 70 162 122
3 2 161 0
3 0 165 69
3 166 167 168
3 5 167 76
3 66 166 67
3 67 168 5
3 78 169 83
3 170 171 172
3 60 172 173
3 84 169 8
3 8 174 65
3 24 175 59
3 173 171 24
3 59 170 60
3 0 77 1
3 4 146 5
3 5 76 3
3 76 176 3
3 7 80 84
3 84 8 7
3 8 177 6
3 9 74 10
3 15 34 16
3 17 16 18
3 25 81 173
3 24 80 7
3 25 173 24
3 27 103 28
3 30 36 31
3 15 35 33
3 32 31 33
3 30 19 18
3 37 178 38
3 40 47 41
3 43 49 44
3 40 179 46
3 43 180 48
3 50 181 51
3 53 182 54
3 56 55 54
3 12 71 58
3 82 21 60
3 21 20 60
3 20 72 59
3 142 183 140
3 183 63 62
3 140 183 138
3 63 184 73
3 73 85 63
3 85 61 63
3 138 183 62
3 72 20 79
3 20 23 65
3 79 20 65
3 145 185 67
3 185 68 67
3 68 75 66
3 71 12 70
3 12 26 70
3 26 186 69
3 71 27 29
3 72 80 24
3 73 184 74
3 64 177 8
3 75 176 76
3 69 186 77
3 65 174 78
3 79 84 80
3 60 173 81
3 79 78 83
3 85 153 86
3 9 91 87
3 89 141 159
3 90 143 88
3 143 86 88
3 89 159 90
3 153 88 86
3 11 150 91
3 6 187 92
3 11 10 93
3 3 188 95
3 2 1 96
3 88 189 98
3 99 190 100
3 7 92 102
3 103 118 104
3 105 191 106
3 108 192 109
3 111 193 112
3 114 194 115
3 103 124 117
3 119 195 120
3 70 122 27
3 122 162 123
3 122 124 103
3 69 165 125
3 126 196 127
3 129 197 130
3 132 198 133
3 135 199 136
3 62 143 90
3 61 154 139
3 140 159 141
3 143 155 144
3 145 67 5
3 76 167 147
3 87 91 148
3 148 91 150
3 73 87 149
3 113 200 152
3 153 148 151
3 85 149 148
3 154 144 155
3 156 160 157
3 140 158 157
3 62 139 155
3 90 160 156
3 159 157 160
3 138 156 158
3 86 144 154
3 125 165 161
3 162 161 163
3 121 201 164
3 70 125 162
3 2 163 161
3 0 161 165
3 166 147 167
3 5 168 167
3 66 147 166
3 67 166 168
3 78 174 169
3 170 175 171
3 60 170 172
3 84 83 169
3 8 169 174
3 24 171 175
3 173 172 171
3 59 175 170
