ply
format ascii 1.0
comment Created by Blender 2.81 (sub 16) - www.blender.org, source file: 'suz.blend'
element vertex 72
property float x
property float y
property float z
property float s
property float t
property uchar red
property uchar green
property uchar blue
property uchar alpha
element face 36
property list uchar uint vertex_indices
end_header
0.063685 0.172672 0.764610 0.342393 0.449304 255 0 0 255
0.026982 -0.069529 0.143113 0.653621 0.328228 0 0 0 255
0.063685 -0.069529 0.764610 0.342393 0.328228 0 0 0 255
0.023886 0.170637 0.098293 0.000100 0.449304 255 0 0 255
-0.030454 -0.071563 -0.584270 0.342393 0.328228 0 0 0 255
-0.030454 0.170637 -0.584270 0.342393 0.449304 255 0 0 255
0.467947 -0.040931 -0.251008 0.000100 0.686677 0 0 0 255
0.033723 0.312809 -0.009945 0.248376 0.863512 255 0 0 255
0.467947 0.312809 -0.251008 0.000100 0.863512 255 0 0 255
0.129190 -0.042688 0.197657 0.465587 0.686677 0 0 0 255
0.471356 0.311052 -0.070150 0.248376 0.863512 255 0 0 255
0.471356 -0.042688 -0.070150 0.248376 0.686677 0 0 0 255
0.211880 -0.033586 0.152935 0.639977 0.890594 0 0 0 255
0.481507 0.185069 0.455574 0.437355 0.999900 255 0 0 255
0.481507 -0.033586 0.455574 0.437355 0.890594 0 0 0 255
-0.012360 -0.101331 -0.215437 0.747637 0.686677 0 0 0 255
-0.576573 0.252408 -0.215437 0.465587 0.863512 255 0 0 255
-0.576573 -0.101331 -0.215437 0.465587 0.686677 0 0 0 255
0.284789 -0.069372 -0.000326 0.249997 0.468422 0 0 0 255
-0.305365 0.309862 -0.000326 0.545015 0.658001 255 0 0 255
0.284789 0.309862 -0.000326 0.249997 0.658001 255 0 0 255
-0.482358 -0.027320 0.363838 0.999900 0.890594 0 0 0 255
-0.012553 0.191335 -0.181751 0.639977 0.999900 255 0 0 255
-0.012553 -0.027320 -0.181751 0.639977 0.890594 0 0 0 255
-0.256558 -0.077726 0.088059 0.783298 0.468422 0 0 0 255
0.181183 0.301508 0.276712 0.545015 0.658001 255 0 0 255
0.181183 -0.077726 0.276711 0.545015 0.468422 0 0 0 255
0.026982 -0.069529 0.143113 0.653621 0.328228 0 0 0 255
0.063685 0.172672 0.764610 0.342393 0.449304 255 0 0 255
0.063685 -0.069529 0.764610 0.342393 0.328228 0 0 0 255
0.023886 0.170637 0.098293 0.000100 0.449304 255 0 0 255
-0.030454 -0.071563 -0.584270 0.342393 0.328228 0 0 0 255
0.023886 -0.071564 0.098293 0.000100 0.328228 0 0 0 255
0.033723 0.312809 -0.009945 0.248376 0.863512 255 0 0 255
0.467947 -0.040931 -0.251008 0.000100 0.686677 0 0 0 255
0.467947 0.312809 -0.251008 0.000100 0.863512 255 0 0 255
0.471356 0.311052 -0.070150 0.248376 0.863512 255 0 0 255
0.129190 -0.042688 0.197657 0.465587 0.686677 0 0 0 255
0.471356 -0.042688 -0.070150 0.248376 0.686677 0 0 0 255
0.481507 0.185069 0.455574 0.437355 0.999900 255 0 0 255
0.211880 -0.033586 0.152935 0.639977 0.890594 0 0 0 255
0.481507 -0.033586 0.455574 0.437355 0.890594 0 0 0 255
-0.576573 0.252408 -0.215437 0.465587 0.863512 255 0 0 255
-0.012360 -0.101331 -0.215437 0.747637 0.686677 0 0 0 255
-0.576573 -0.101331 -0.215437 0.465587 0.686677 0 0 0 255
0.284789 -0.069372 -0.000326 0.249997 0.468422 0 0 0 255
-0.305365 0.309862 -0.000326 0.545015 0.658001 255 0 0 255
-0.305365 -0.069372 -0.000326 0.545015 0.468422 0 0 0 255
-0.012553 0.191335 -0.181751 0.639977 0.999900 255 0 0 255
-0.482358 -0.027320 0.363838 0.999900 0.890594 0 0 0 255
-0.012553 -0.027320 -0.181751 0.639977 0.890594 0 0 0 255
0.181183 0.301508 0.276712 0.545015 0.658001 255 0 0 255
-0.256558 -0.077726 0.088059 0.783298 0.468422 0 0 0 255
0.181183 -0.077726 0.276711 0.545015 0.468422 0 0 0 255
0.026982 0.172672 0.143113 0.653620 0.449304 255 0 0 255
0.023886 -0.071564 0.098293 0.000100 0.328228 0 0 0 255
0.033723 -0.040931 -0.009945 0.248376 0.686677 0 0 0 255
0.129190 0.311051 0.197658 0.465587 0.863512 255 0 0 255
0.211880 0.185070 0.152935 0.639977 0.999900 255 0 0 255
-0.012360 0.252408 -0.215437 0.747637 0.863512 255 0 0 255
-0.305365 -0.069372 -0.000326 0.545015 0.468422 0 0 0 255
-0.482358 0.191335 0.363838 0.999900 0.999900 255 0 0 255
-0.256558 0.301508 0.088059 0.783299 0.658001 255 0 0 255
0.026982 0.172672 0.143113 0.653620 0.449304 255 0 0 255
-0.030454 0.170637 -0.584270 0.342393 0.449304 255 0 0 255
0.033723 -0.040931 -0.009945 0.248376 0.686677 0 0 0 255
0.129190 0.311051 0.197658 0.465587 0.863512 255 0 0 255
0.211880 0.185070 0.152935 0.639977 0.999900 255 0 0 255
-0.012360 0.252408 -0.215437 0.747637 0.863512 255 0 0 255
0.284789 0.309862 -0.000326 0.249997 0.658001 255 0 0 255
-0.482358 0.191335 0.363838 0.999900 0.999900 255 0 0 255
-0.256558 0.301508 0.088059 0.783299 0.658001 255 0 0 255
3 0 1 2
3 3 4 5
3 6 7 8
3 9 10 11
3 12 13 14
3 15 16 17
3 18 19 20
3 21 22 23
3 24 25 26
3 27 28 29
3 30 31 32
3 33 34 35
3 36 37 38
3 39 40 41
3 42 43 44
3 45 46 47
3 48 49 50
3 51 52 53
3 0 54 1
3 3 55 4
3 6 56 7
3 9 57 10
3 12 58 13
3 15 59 16
3 18 60 19
3 21 61 22
3 24 62 25
3 27 63 28
3 30 64 31
3 33 65 34
3 36 66 37
3 39 67 40
3 42 68 43
3 45 69 46
3 48 70 49
3 51 71 52
