ply
format ascii 1.0
comment Created by Blender 2.81 (sub 16) - www.blender.org, source file: 'suz.blend'
element vertex 32
property float x
property float y
property float z
property float s
property float t
property uchar red
property uchar green
property uchar blue
property uchar alpha
element face 30
property list uchar uint vertex_indices
end_header
-57.735558 0.000000 -63.714390 0.028218 3.063827 0 0 0 255
-49.643707 0.000000 -77.524849 0.971781 3.458263 0 0 0 255
-61.735832 0.000000 -74.444336 0.028218 3.458263 0 0 0 255
6.239170 0.000000 87.615059 0.971782 -2.458263 0 0 0 255
-6.239170 0.000000 75.933052 0.028219 -2.063828 0 0 0 255
-6.239170 0.000000 87.615059 0.028219 -2.458263 0 0 0 255
6.239170 0.000000 75.933052 0.971782 -2.063828 0 0 0 255
-6.239170 0.000000 64.251045 0.028219 -1.669393 0 0 0 255
6.239170 0.000000 64.251045 0.971782 -1.669393 0 0 0 255
-6.239170 0.000000 52.569038 0.028218 -1.274958 0 0 0 255
6.239170 0.000000 52.569038 0.971781 -1.274958 0 0 0 255
-6.061413 0.000000 40.826431 0.028218 -0.880522 0 0 0 255
5.672207 0.000000 29.026817 0.971781 -0.486087 0 0 0 255
-6.343967 0.000000 28.955849 0.028218 -0.486087 0 0 0 255
3.598770 0.000000 17.122101 0.971781 -0.091653 0 0 0 255
-8.229488 0.000000 17.183823 0.028218 -0.091653 0 0 0 255
0.084297 0.000000 5.315735 0.971781 0.302782 0 0 0 255
-11.678780 0.000000 5.663719 0.028218 0.302782 0 0 0 255
-4.800251 0.000000 -6.178490 0.971781 0.697217 0 0 0 255
-16.597370 0.000000 -5.418228 0.028218 0.697217 0 0 0 255
-10.855888 0.000000 -17.194225 0.971781 1.091652 0 0 0 255
-22.796696 0.000000 -15.921368 0.028218 1.091652 0 0 0 255
-17.814480 0.000000 -27.635357 0.971781 1.486087 0 0 0 255
-29.963486 0.000000 -25.824390 0.028218 1.486087 0 0 0 255
-25.320272 0.000000 -37.534370 0.971781 1.880522 0 0 0 255
-37.592793 0.000000 -35.277328 0.028218 1.880522 0 0 0 255
-32.868755 0.000000 -47.109268 0.971781 2.274957 0 0 0 255
-45.078308 0.000000 -44.533268 0.028218 2.274957 0 0 0 255
-39.842453 0.000000 -56.713623 0.971781 2.669392 0 0 0 255
-51.996750 0.000000 -53.888367 0.028218 2.669392 0 0 0 255
-45.626312 0.000000 -66.726891 0.971781 3.063827 0 0 0 255
6.269382 0.000000 40.872643 0.971781 -0.880522 0 0 0 255
3 0 1 2
3 3 4 5
3 6 7 4
3 8 9 7
3 10 11 9
3 11 12 13
3 13 14 15
3 15 16 17
3 17 18 19
3 19 20 21
3 21 22 23
3 23 24 25
3 25 26 27
3 27 28 29
3 29 30 0
3 0 30 1
3 3 6 4
3 6 8 7
3 8 10 9
3 10 31 11
3 11 31 12
3 13 12 14
3 15 14 16
3 17 16 18
3 19 18 20
3 21 20 22
3 23 22 24
3 25 24 26
3 27 26 28
3 29 28 30
