ply
format ascii 1.0
comment Created by Blender 2.81 (sub 16) - www.blender.org, source file: 'suz.blend'
element vertex 176
property float x
property float y
property float z
property float s
property float t
property uchar red
property uchar green
property uchar blue
property uchar alpha
element face 270
property list uchar uint vertex_indices
end_header
-45.626312 0.000000 -66.726891 -2.215090 5.016568 0 0 0 255
-37.551582 0.000000 -80.605362 -1.586395 6.097139 0 0 0 255
-49.643707 0.000000 -77.524849 -2.527883 5.857292 0 0 0 255
-69.844803 0.000000 -60.701893 -4.100733 4.547465 0 0 0 255
-61.735832 0.000000 -74.444336 -3.469370 5.617444 0 0 0 255
-73.827957 0.000000 -71.363815 -4.410858 5.377598 0 0 0 255
-6.239170 0.000000 87.615059 0.851578 -7.000435 0 0 0 255
-18.717514 0.000000 75.933052 -0.119982 -6.090879 0 0 0 255
-18.717514 0.000000 87.615059 -0.119982 -7.000435 0 0 0 255
-6.239170 0.000000 75.933052 0.851578 -6.090879 0 0 0 255
-18.717514 0.000000 64.251045 -0.119982 -5.181323 0 0 0 255
-6.239170 0.000000 64.251045 0.851578 -5.181323 0 0 0 255
-18.717514 0.000000 52.569038 -0.119982 -4.271767 0 0 0 255
-6.239170 0.000000 52.569038 0.851578 -4.271767 0 0 0 255
-18.404093 0.000000 40.809822 -0.095579 -3.356198 0 0 0 255
-6.343967 0.000000 28.955849 0.843417 -2.433254 0 0 0 255
-18.763836 0.000000 29.066002 -0.123589 -2.441829 0 0 0 255
-8.229488 0.000000 17.183823 0.696612 -1.516688 0 0 0 255
-20.682367 0.000000 17.545235 -0.272965 -1.544826 0 0 0 255
-11.678780 0.000000 5.663719 0.428051 -0.619737 0 0 0 255
-24.130411 0.000000 6.381371 -0.541428 -0.675613 0 0 0 255
-16.597370 0.000000 -5.418228 0.045091 0.243100 0 0 0 255
-28.983706 0.000000 -4.298225 -0.919303 0.155897 0 0 0 255
-22.796696 0.000000 -15.921368 -0.437585 1.060870 0 0 0 255
-35.159744 0.000000 -14.395363 -1.400168 0.942056 0 0 0 255
-29.963486 0.000000 -25.824390 -0.995589 1.831915 0 0 0 255
-42.294388 0.000000 -23.911823 -1.955668 1.683004 0 0 0 255
-37.592793 0.000000 -35.277328 -1.589603 2.567918 0 0 0 255
-49.865314 0.000000 -33.020287 -2.545137 2.392184 0 0 0 255
-45.078308 0.000000 -44.533268 -2.172423 3.288582 0 0 0 255
-57.287868 0.000000 -41.957264 -3.123054 3.088016 0 0 0 255
-51.996750 0.000000 -53.888367 -2.711090 4.016965 0 0 0 255
-64.151047 0.000000 -51.063107 -3.657418 3.796991 0 0 0 255
-57.735558 0.000000 -63.714390 -3.157911 4.782017 0 0 0 255
18.717518 0.000000 87.615059 2.794696 -7.000435 0 0 0 255
6.239170 0.000000 75.933052 1.823136 -6.090879 0 0 0 255
6.239170 0.000000 87.615059 1.823136 -7.000435 0 0 0 255
18.717518 0.000000 75.933052 2.794696 -6.090879 0 0 0 255
6.239170 0.000000 64.251045 1.823136 -5.181323 0 0 0 255
18.717518 0.000000 64.251045 2.794696 -5.181323 0 0 0 255
6.239170 0.000000 52.569038 1.823136 -4.271767 0 0 0 255
18.717518 0.000000 52.569038 2.794696 -4.271767 0 0 0 255
6.269382 0.000000 40.872643 1.825488 -3.361089 0 0 0 255
17.932880 0.000000 29.056587 2.733605 -2.441096 0 0 0 255
5.672207 0.000000 29.026817 1.778992 -2.438778 0 0 0 255
15.707077 0.000000 17.043144 2.560303 -1.505734 0 0 0 255
3.598770 0.000000 17.122101 1.617554 -1.511881 0 0 0 255
12.002678 0.000000 5.063293 2.271879 -0.572987 0 0 0 255
0.084297 0.000000 5.315735 1.343920 -0.592643 0 0 0 255
6.880707 0.000000 -6.634422 1.873085 0.337792 0 0 0 255
-4.800251 0.000000 -6.178490 0.963610 0.302293 0 0 0 255
0.882381 0.000000 -18.122314 1.406058 1.232235 0 0 0 255
-10.855888 0.000000 -17.194225 0.492121 1.159974 0 0 0 255
-5.965218 0.000000 -29.107140 0.872907 2.087510 0 0 0 255
-17.814480 0.000000 -27.635357 -0.049672 1.972917 0 0 0 255
-13.353645 0.000000 -39.534962 0.297647 2.899415 0 0 0 255
-25.320272 0.000000 -37.534370 -0.634070 2.743650 0 0 0 255
-20.757330 0.000000 -49.600193 -0.278801 3.683090 0 0 0 255
-32.868755 0.000000 -47.109268 -1.221792 3.489148 0 0 0 255
-27.688156 0.000000 -59.538879 -0.818433 4.456912 0 0 0 255
-39.842453 0.000000 -56.713623 -1.764761 4.236939 0 0 0 255
-33.517059 0.000000 -69.739388 -1.272269 5.251119 0 0 0 255
18.714573 0.000000 40.887115 2.794465 -3.362216 0 0 0 255
40.928036 5.419569 25.920937 4.523998 -2.196955 0 0 0 255
-18.845186 5.419569 -63.415321 -0.129922 4.758730 0 0 0 255
36.720371 5.419569 13.903580 4.196391 -1.261289 0 0 0 255
-26.296635 5.419569 -73.267334 -0.710089 5.525804 0 0 0 255
31.011944 5.419569 1.886635 3.751936 -0.325655 0 0 0 255
24.412640 5.419569 -10.343697 3.238114 0.626594 0 0 0 255
49.777088 5.419569 84.277611 5.212981 -6.740583 0 0 0 255
48.120014 5.419569 72.713722 5.083961 -5.840224 0 0 0 255
-31.926590 5.419569 -83.653946 -1.148436 6.334501 0 0 0 255
16.618656 5.419569 -22.075928 2.631279 1.540062 0 0 0 255
46.462940 5.419569 61.149849 4.954943 -4.939865 0 0 0 255
7.888294 5.419569 -33.087494 1.951536 2.397418 0 0 0 255
44.805874 5.419569 49.585960 4.825926 -4.039504 0 0 0 255
-1.298714 5.419569 -43.477268 1.236239 3.206361 0 0 0 255
43.235493 5.419569 37.949463 4.703654 -3.133492 0 0 0 255
-10.292950 5.419569 -53.629429 0.535952 3.996806 0 0 0 255
41.154774 9.661695 -30.490765 4.541651 2.195237 0 0 0 255
65.226837 9.661695 67.963890 6.415894 -5.470404 0 0 0 255
64.558655 9.661695 56.301003 6.363867 -4.562336 0 0 0 255
32.837696 9.661695 -42.082260 3.894088 3.097748 0 0 0 255
63.890469 9.661695 44.638115 6.311843 -3.654267 0 0 0 255
24.456150 9.661695 -53.916519 3.241504 4.019156 0 0 0 255
63.837688 9.661695 32.362343 6.307735 -2.698481 0 0 0 255
15.988003 9.661695 -65.071793 2.582177 4.887702 0 0 0 255
63.180721 9.661695 19.300644 6.256583 -1.681503 0 0 0 255
8.049088 9.661695 -75.766052 1.964055 5.720354 0 0 0 255
60.456806 9.661695 6.084686 6.044500 -0.652512 0 0 0 255
1.323662 9.661695 -86.359253 1.440417 6.545135 0 0 0 255
55.700268 9.661695 -6.844727 5.674158 0.354166 0 0 0 255
-3.448105 9.661695 -97.240746 1.068889 7.392364 0 0 0 255
49.133389 9.661695 -19.108868 5.162863 1.309048 0 0 0 255
65.895020 9.661695 79.626762 6.467916 -6.378470 0 0 0 255
38.008564 9.661695 -101.655998 4.296688 7.736134 0 0 0 255
34.093502 9.661695 -112.992813 3.991863 8.618814 0 0 0 255
81.737091 9.661695 -30.599388 7.701375 2.203694 0 0 0 255
91.523468 9.661695 73.856148 8.463339 -5.929172 0 0 0 255
91.831284 9.661695 62.178200 8.487307 -5.019932 0 0 0 255
75.131088 9.661695 -44.210854 7.187034 3.263477 0 0 0 255
92.139084 9.661695 50.500237 8.511271 -4.110690 0 0 0 255
67.763123 9.661695 -57.012741 6.613367 4.260227 0 0 0 255
92.488052 9.661695 38.773918 8.538443 -3.197682 0 0 0 255
59.590038 9.661695 -68.703979 5.977014 5.170502 0 0 0 255
93.434235 9.661695 26.016609 8.612110 -2.204404 0 0 0 255
51.365498 9.661695 -79.443130 5.336655 6.006649 0 0 0 255
93.089584 9.661695 12.325005 8.585277 -1.138381 0 0 0 255
44.019108 9.661695 -90.299370 4.764668 6.851911 0 0 0 255
90.960419 9.661695 -1.937187 8.419498 -0.027933 0 0 0 255
87.118393 9.661695 -16.386612 8.120361 1.097094 0 0 0 255
115.744217 9.661695 9.126183 10.349156 -0.889323 0 0 0 255
64.906403 9.661695 -100.769699 6.390944 7.667127 0 0 0 255
112.188049 9.661695 -5.163239 10.072276 0.223246 0 0 0 255
60.995861 9.661695 -112.256836 6.086471 8.561510 0 0 0 255
107.281097 9.661695 -20.068352 9.690225 1.383752 0 0 0 255
117.719315 9.661695 69.532753 10.502935 -5.592555 0 0 0 255
101.115265 9.661695 -35.087971 9.210153 2.553174 0 0 0 255
118.027115 9.661695 57.854790 10.526902 -4.683312 0 0 0 255
93.919754 9.661695 -49.732536 8.649912 3.693394 0 0 0 255
118.334930 9.661695 46.176834 10.550868 -3.774071 0 0 0 255
86.096802 9.661695 -63.650654 8.040819 4.777053 0 0 0 255
118.638748 9.661695 34.499542 10.574524 -2.864882 0 0 0 255
78.203354 9.661695 -76.710213 7.426238 5.793866 0 0 0 255
117.915894 9.661695 22.410645 10.518242 -1.923646 0 0 0 255
70.900314 9.661695 -89.003113 6.857628 6.750986 0 0 0 255
-41.212280 -8.998676 44.999115 -1.871416 -3.682375 0 0 0 255
-41.369537 -8.998676 56.687584 -1.883659 -4.592435 0 0 0 255
-64.917694 -8.998676 -16.613323 -3.717109 1.114745 0 0 0 255
-41.369537 -8.998676 68.369591 -1.883659 -5.501991 0 0 0 255
-41.369537 -8.998676 80.051598 -1.883659 -6.411549 0 0 0 255
-41.369537 -8.998676 91.733604 -1.883659 -7.321105 0 0 0 255
-58.080246 -8.998676 -7.665527 -3.184749 0.418074 0 0 0 255
-51.980804 -8.998676 1.802467 -2.709849 -0.319102 0 0 0 255
-46.977909 -8.998676 11.842010 -2.320325 -1.100776 0 0 0 255
-94.762131 -8.998676 -61.780659 -6.040786 4.631457 0 0 0 255
-90.832520 -8.998676 -51.236553 -5.734827 3.810496 0 0 0 255
-43.429043 -8.998676 22.432068 -2.044012 -1.925314 0 0 0 255
-85.282341 -8.998676 -41.922806 -5.302694 3.085332 0 0 0 255
-41.498764 -8.998676 33.507790 -1.893721 -2.787665 0 0 0 255
-78.753143 -8.998676 -33.355133 -4.794333 2.418257 0 0 0 255
-71.817513 -8.998676 -25.062107 -4.254328 1.772564 0 0 0 255
-62.096687 -16.226463 41.217461 -3.497468 -3.387936 0 0 0 255
-92.128311 -16.226463 -24.545452 -5.835718 1.732337 0 0 0 255
-62.197636 -16.226463 52.804375 -3.505327 -4.290090 0 0 0 255
-84.649261 -16.226463 -16.666145 -5.253402 1.118858 0 0 0 255
-62.197636 -16.226463 64.486397 -3.505327 -5.199647 0 0 0 255
-78.421204 -16.226463 -8.356010 -4.768488 0.471834 0 0 0 255
-62.197636 -16.226463 76.168404 -3.505327 -6.109204 0 0 0 255
-73.058296 -16.226463 0.404533 -4.350935 -0.210258 0 0 0 255
-62.197636 -16.226463 87.850410 -3.505327 -7.018760 0 0 0 255
-68.583618 -16.226463 9.705299 -4.002538 -0.934412 0 0 0 255
-111.982010 -16.226463 -49.976616 -7.381519 3.712399 0 0 0 255
-65.197701 -16.226463 19.616608 -3.738912 -1.706103 0 0 0 255
-106.448776 -16.226463 -40.989414 -6.950704 3.012658 0 0 0 255
-63.020340 -16.226463 30.130615 -3.569383 -2.524720 0 0 0 255
-99.650558 -16.226463 -32.602318 -6.421396 2.359642 0 0 0 255
-131.958664 -30.600981 -25.998901 -8.936893 1.845502 0 0 0 255
-92.873566 -30.600981 28.607567 -5.893743 -2.406136 0 0 0 255
-90.877762 -30.600981 38.880089 -5.738352 -3.205950 0 0 0 255
-125.794022 -30.600981 -18.542812 -8.456916 1.264975 0 0 0 255
-90.393906 -30.600981 49.965034 -5.700678 -4.069020 0 0 0 255
-119.287430 -30.600981 -11.688339 -7.950316 0.731288 0 0 0 255
-90.439125 -30.600981 61.629845 -5.704198 -4.977237 0 0 0 255
-112.879684 -30.600981 -4.922462 -7.451413 0.204499 0 0 0 255
-90.439125 -30.600981 73.311852 -5.704198 -5.886794 0 0 0 255
-106.919098 -30.600981 2.195114 -6.987324 -0.349672 0 0 0 255
-90.439125 -30.600981 84.993858 -5.704198 -6.796350 0 0 0 255
-101.378609 -30.600981 10.155800 -6.555942 -0.969488 0 0 0 255
-90.439125 -30.600981 96.675865 -5.704198 -7.705906 0 0 0 255
-96.404755 -30.600981 19.066246 -6.168680 -1.663252 0 0 0 255
-141.092865 -30.600981 -44.877609 -9.648079 3.315392 0 0 0 255
-137.257523 -30.600981 -34.594193 -9.349460 2.514728 0 0 0 255
-6.061413 0.000000 40.826431 0.865417 -3.357492 0 0 0 255
117.411499 9.661695 81.210701 10.478970 -6.501795 0 0 0 255
-115.904221 -16.226463 -60.401859 -7.686901 4.524103 0 0 0 255
3 0 1 2
3 3 4 5
3 6 7 8
3 9 10 7
3 11 12 10
3 13 14 12
3 14 15 16
3 16 17 18
3 18 19 20
3 20 21 22
3 22 23 24
3 24 25 26
3 26 27 28
3 28 29 30
3 30 31 32
3 32 33 3
3 34 35 36
3 37 38 35
3 39 40 38
3 41 42 40
3 42 43 44
3 44 45 46
3 46 47 48
3 48 49 50
3 50 51 52
3 52 53 54
3 54 55 56
3 56 57 58
3 58 59 60
3 60 61 0
3 62 63 43
3 57 64 59
3 43 65 45
3 59 66 61
3 45 67 47
3 47 68 49
3 37 69 70
3 1 66 71
3 49 72 51
3 39 70 73
3 51 74 53
3 41 73 75
3 53 76 55
3 62 75 77
3 55 78 57
3 68 79 72
3 73 80 81
3 72 82 74
3 75 81 83
3 74 84 76
3 77 83 85
3 76 86 78
3 63 85 87
3 78 88 64
3 65 87 89
3 64 90 66
3 65 91 67
3 66 92 71
3 67 93 68
3 70 94 80
3 92 95 96
3 91 97 93
3 80 98 99
3 93 100 79
3 81 99 101
3 79 102 82
3 83 101 103
3 82 104 84
3 85 103 105
3 84 106 86
3 87 105 107
3 86 108 88
3 89 107 109
3 88 95 90
3 89 110 91
3 107 111 109
3 108 112 95
3 109 113 110
3 95 114 96
3 110 115 97
3 98 116 99
3 97 117 100
3 99 118 101
3 100 119 102
3 101 120 103
3 102 121 104
3 103 122 105
3 104 123 106
3 105 124 107
3 106 125 108
3 12 126 127
3 28 128 26
3 10 127 129
3 8 130 131
3 26 132 24
3 7 129 130
3 24 133 22
3 22 134 20
3 3 135 136
3 20 137 18
3 3 138 32
3 16 137 139
3 32 140 30
3 14 139 126
3 30 141 28
3 139 142 126
3 140 143 141
3 126 144 127
3 141 145 128
3 127 146 129
3 128 147 132
3 129 148 130
3 132 149 133
3 130 150 131
3 133 151 134
3 135 152 136
3 134 153 137
3 136 154 138
3 137 155 139
3 138 156 140
3 152 157 154
3 155 158 159
3 154 160 156
3 142 159 161
3 156 162 143
3 144 161 163
3 143 164 145
3 146 163 165
3 145 166 147
3 148 165 167
3 147 168 149
3 150 167 169
3 149 170 151
3 152 171 172
3 151 158 153
3 0 61 1
3 3 33 4
3 6 9 7
3 9 11 10
3 11 13 12
3 13 173 14
3 14 173 15
3 16 15 17
3 18 17 19
3 20 19 21
3 22 21 23
3 24 23 25
3 26 25 27
3 28 27 29
3 30 29 31
3 32 31 33
3 34 37 35
3 37 39 38
3 39 41 40
3 41 62 42
3 42 62 43
3 44 43 45
3 46 45 47
3 48 47 49
3 50 49 51
3 52 51 53
3 54 53 55
3 56 55 57
3 58 57 59
3 60 59 61
3 62 77 63
3 57 78 64
3 43 63 65
3 59 64 66
3 45 65 67
3 47 67 68
3 37 34 69
3 1 61 66
3 49 68 72
3 39 37 70
3 51 72 74
3 41 39 73
3 53 74 76
3 62 41 75
3 55 76 78
3 68 93 79
3 73 70 80
3 72 79 82
3 75 73 81
3 74 82 84
3 77 75 83
3 76 84 86
3 63 77 85
3 78 86 88
3 65 63 87
3 64 88 90
3 65 89 91
3 66 90 92
3 67 91 93
3 70 69 94
3 92 90 95
3 91 110 97
3 80 94 98
3 93 97 100
3 81 80 99
3 79 100 102
3 83 81 101
3 82 102 104
3 85 83 103
3 84 104 106
3 87 85 105
3 86 106 108
3 89 87 107
3 88 108 95
3 89 109 110
3 107 124 111
3 108 125 112
3 109 111 113
3 95 112 114
3 110 113 115
3 98 174 116
3 97 115 117
3 99 116 118
3 100 117 119
3 101 118 120
3 102 119 121
3 103 120 122
3 104 121 123
3 105 122 124
3 106 123 125
3 12 14 126
3 28 141 128
3 10 12 127
3 8 7 130
3 26 128 132
3 7 10 129
3 24 132 133
3 22 133 134
3 3 5 135
3 20 134 137
3 3 136 138
3 16 18 137
3 32 138 140
3 14 16 139
3 30 140 141
3 139 155 142
3 140 156 143
3 126 142 144
3 141 143 145
3 127 144 146
3 128 145 147
3 129 146 148
3 132 147 149
3 130 148 150
3 133 149 151
3 135 175 152
3 134 151 153
3 136 152 154
3 137 153 155
3 138 154 156
3 152 172 157
3 155 153 158
3 154 157 160
3 142 155 159
3 156 160 162
3 144 142 161
3 143 162 164
3 146 144 163
3 145 164 166
3 148 146 165
3 147 166 168
3 150 148 167
3 149 168 170
3 152 175 171
3 151 170 158
