ply
format ascii 1.0
comment Created by Blender 2.81 (sub 16) - www.blender.org, source file: 'suz.blend'
element vertex 189
property float x
property float y
property float z
property float s
property float t
property uchar red
property uchar green
property uchar blue
property uchar alpha
element face 188
property list uchar uint vertex_indices
end_header
4.747837 3.957414 0.868778 -0.328825 0.588056 0 0 0 255
4.747836 32.198757 4.747841 -0.191438 -0.397535 0 0 0 255
4.747836 2.702077 4.747841 -0.191438 0.631866 0 0 0 255
4.747836 32.198757 4.747841 0.144876 0.914991 0 0 0 255
-4.747838 2.702077 4.747838 -0.191438 -0.114410 0 0 0 255
4.747836 2.702077 4.747841 0.144876 -0.114410 0 0 0 255
-4.747837 32.198757 -0.868772 0.618577 0.914990 0 0 0 255
-4.747836 2.702077 -4.747835 0.481190 -0.114410 0 0 0 255
-4.747837 2.702077 -0.868772 0.618577 -0.114410 0 0 0 255
-4.747836 32.198757 -4.747835 0.144876 -0.397535 0 0 0 255
4.747838 2.702077 -4.747832 0.481190 0.631866 0 0 0 255
-4.747836 2.702077 -4.747835 0.144876 0.631866 0 0 0 255
-4.747837 -5.410638 -0.868772 -0.191438 1.111004 0 0 0 255
4.747838 -5.410638 -4.747832 -0.527751 1.246379 0 0 0 255
4.747838 -5.410638 -0.868769 -0.527751 1.111004 0 0 0 255
-4.747837 32.198757 -0.868772 0.144876 1.050366 0 0 0 255
4.747838 32.198757 -4.747832 -0.191438 0.914991 0 0 0 255
-4.747836 32.198757 -4.747835 0.144876 0.914991 0 0 0 255
4.747838 -0.144168 -4.747832 0.481190 0.731197 0 0 0 255
-4.747836 -0.144168 -4.747835 0.144876 0.731197 0 0 0 255
-4.747836 -0.144168 -4.747835 0.481190 -0.213741 0 0 0 255
-4.747837 -0.144168 -0.868772 0.618577 -0.213741 0 0 0 255
-4.747838 -0.144168 4.747838 -0.191438 -0.213741 0 0 0 255
4.747836 -0.144168 4.747841 0.144876 -0.213741 0 0 0 255
4.747837 -0.144168 0.868778 -0.328825 0.731197 0 0 0 255
4.747836 -0.144168 4.747841 -0.191438 0.731197 0 0 0 255
4.747838 2.702077 -4.747832 -0.527751 0.631866 0 0 0 255
4.747838 -0.144168 -0.868769 -0.390364 0.731197 0 0 0 255
4.747838 -0.144168 -4.747832 -0.527751 0.731197 0 0 0 255
4.747837 -0.144168 0.868778 0.144876 1.076618 0 0 0 255
3.306511 -0.144168 -0.868769 0.195924 1.015980 0 0 0 255
3.306510 -0.144168 0.868777 0.195924 1.076618 0 0 0 255
-4.747838 2.702077 4.747838 0.817503 -0.114410 0 0 0 255
-4.747838 -0.144168 0.868775 0.680116 -0.213741 0 0 0 255
-4.747838 -0.144168 4.747838 0.817503 -0.213741 0 0 0 255
-4.747838 2.702077 0.868775 0.680116 -0.114410 0 0 0 255
-4.747838 32.198757 4.747838 0.144876 1.246379 0 0 0 255
4.747837 32.198757 0.868778 -0.191437 1.111004 0 0 0 255
-4.747838 32.198757 0.868775 0.144876 1.111004 0 0 0 255
-4.747838 -5.410638 4.747838 -0.191438 0.914991 0 0 0 255
4.747837 -5.410638 0.868778 -0.527751 1.050366 0 0 0 255
4.747836 -5.410638 4.747841 -0.527751 0.914991 0 0 0 255
-4.747838 32.198757 4.747838 0.817503 0.914991 0 0 0 255
-4.747838 32.198757 0.868775 0.680116 0.914990 0 0 0 255
4.747838 32.198757 -4.747832 -0.527751 -0.397535 0 0 0 255
4.747838 3.957414 -0.868769 -0.390364 0.588056 0 0 0 255
4.747838 32.198757 -0.868769 -0.390364 -0.397535 0 0 0 255
-4.747837 -5.410638 -0.868772 0.618577 -0.397535 0 0 0 255
-4.747838 -5.410638 0.868775 0.680116 -0.397535 0 0 0 255
-4.747838 -5.410638 4.747838 0.817503 -0.397535 0 0 0 255
4.747837 -5.410638 0.868778 -0.328825 0.914990 0 0 0 255
4.747838 -5.410638 -0.868769 -0.390364 0.914990 0 0 0 255
4.747838 -5.410638 -4.747832 -0.527751 0.914991 0 0 0 255
4.747836 -5.410638 4.747841 -0.191438 0.914990 0 0 0 255
-4.747838 -5.410638 4.747838 -0.191438 -0.397535 0 0 0 255
4.747836 -5.410638 4.747841 0.144876 -0.397535 0 0 0 255
-4.747836 -5.410638 -4.747835 0.481190 -0.397535 0 0 0 255
4.747838 -5.410638 -4.747832 0.481190 0.914990 0 0 0 255
-4.747836 -5.410638 -4.747835 0.144876 0.914991 0 0 0 255
-3.273735 -0.144168 0.868775 0.428981 1.076618 0 0 0 255
4.747838 3.957414 -0.868769 0.662037 0.914991 0 0 0 255
3.306511 -0.144168 -0.868769 0.713085 1.058131 0 0 0 255
4.747838 -0.144168 -0.868769 0.662037 1.058131 0 0 0 255
4.747837 3.957414 0.868778 0.764133 0.914991 0 0 0 255
3.306511 3.957414 -0.868769 0.815181 0.975629 0 0 0 255
4.747838 3.957414 -0.868769 0.764133 0.975629 0 0 0 255
4.747837 -0.144168 0.868778 0.764133 1.058131 0 0 0 255
3.306510 3.957414 0.868777 0.713085 0.914991 0 0 0 255
-3.273735 2.702077 -0.868772 0.919994 0.580492 0 0 0 255
-3.273735 -0.144168 0.868775 0.981533 0.679823 0 0 0 255
-3.273735 -0.144168 -0.868772 0.919994 0.679823 0 0 0 255
3.306510 3.957414 0.868777 1.269735 -0.254394 0 0 0 255
3.306509 4.877210 4.374729 1.393907 -0.222294 0 0 0 255
3.306510 4.877210 0.868777 1.269735 -0.222294 0 0 0 255
-3.273735 2.702077 0.868775 0.981533 0.580492 0 0 0 255
-3.273736 -0.144168 4.374727 1.105706 0.679823 0 0 0 255
3.306511 3.957414 -0.868769 1.208195 -0.254394 0 0 0 255
3.306512 4.877210 -3.762531 1.105706 -0.222294 0 0 0 255
3.306512 2.702077 -3.762531 1.105706 -0.298204 0 0 0 255
3.306512 2.702077 -3.762531 1.393908 0.580492 0 0 0 255
-3.273734 -0.144168 -3.762533 1.626964 0.679823 0 0 0 255
3.306512 -0.144168 -3.762531 1.393908 0.679823 0 0 0 255
3.306511 -0.144168 -0.868769 1.208195 -0.397535 0 0 0 255
3.306512 -0.144168 -3.762531 1.105706 -0.397535 0 0 0 255
-3.273734 -0.144168 -3.762533 0.428981 0.914991 0 0 0 255
-3.273735 -0.144168 -0.868772 0.428981 1.015980 0 0 0 255
-3.273734 2.702077 -3.762533 0.817504 0.580492 0 0 0 255
3.306509 -0.144168 4.374729 1.050560 1.757180 0 0 0 255
-3.273736 2.702077 4.374727 0.817504 1.657850 0 0 0 255
3.306509 2.702077 4.374729 1.050560 1.657850 0 0 0 255
3.306509 4.877210 4.374729 1.050560 1.581940 0 0 0 255
3.306510 -0.144168 0.868777 1.269735 -0.397535 0 0 0 255
3.306509 2.702077 4.374729 1.393907 -0.298204 0 0 0 255
3.306509 -0.144168 4.374729 0.195924 1.198972 0 0 0 255
3.306512 4.877210 -3.762531 1.393908 0.504582 0 0 0 255
-3.273734 6.797098 -3.762533 1.626964 0.437580 0 0 0 255
-3.273734 4.877210 -3.762533 1.626964 0.504582 0 0 0 255
3.306511 4.877210 -0.868769 1.208195 -0.222294 0 0 0 255
3.306512 6.797098 -3.762531 1.105706 -0.155292 0 0 0 255
-3.273735 4.877210 0.868775 0.981533 0.504582 0 0 0 255
-3.273736 6.797098 4.374727 1.105706 0.437580 0 0 0 255
-3.273736 4.877210 4.374727 1.105706 0.504582 0 0 0 255
-3.273734 2.702077 -3.762533 1.626964 0.580492 0 0 0 255
-3.273736 2.702077 4.374727 1.105706 0.580492 0 0 0 255
-3.273735 4.877210 -0.868772 0.919994 0.504582 0 0 0 255
3.306511 6.797098 -0.868769 1.208195 -0.155292 0 0 0 255
3.306512 11.583137 -3.762531 1.105706 0.011735 0 0 0 255
-3.273735 6.797098 0.868775 0.981533 0.437580 0 0 0 255
-3.273736 11.583137 4.374727 1.105705 0.270553 0 0 0 255
-3.273735 6.797098 -0.868772 0.919994 0.437580 0 0 0 255
-3.273735 11.583137 0.868775 0.981533 0.270553 0 0 0 255
3.306510 6.797098 0.868777 1.269735 -0.155292 0 0 0 255
-3.273736 4.877210 4.374727 0.817504 1.581940 0 0 0 255
3.306509 6.797098 4.374729 1.050560 1.514938 0 0 0 255
-3.273734 4.877210 -3.762533 0.817504 0.504582 0 0 0 255
-3.273734 11.583137 -3.762533 0.817504 0.270553 0 0 0 255
-3.273735 16.189074 -0.868772 0.919993 0.109811 0 0 0 255
-3.273735 11.583137 -0.868772 0.919994 0.270553 0 0 0 255
-3.273736 11.583137 4.374727 0.817504 1.347911 0 0 0 255
3.306509 16.189074 4.374729 1.050560 1.187169 0 0 0 255
3.306509 11.583137 4.374729 1.050560 1.347911 0 0 0 255
3.306509 11.583137 4.374729 1.393907 0.011735 0 0 0 255
3.306510 16.189074 0.868777 1.269735 0.172477 0 0 0 255
3.306510 11.583137 0.868777 1.269735 0.011735 0 0 0 255
3.306512 6.797098 -3.762531 1.393908 0.437580 0 0 0 255
-3.273734 11.583137 -3.762533 1.626964 0.270553 0 0 0 255
3.306511 11.583137 -0.868769 1.208195 0.011735 0 0 0 255
3.306509 6.797098 4.374729 1.393907 -0.155292 0 0 0 255
-3.273736 6.797098 4.374727 0.817504 1.514938 0 0 0 255
-3.273734 6.797098 -3.762533 0.817504 0.437580 0 0 0 255
3.306509 16.189074 4.374729 1.393907 0.172477 0 0 0 255
3.306510 24.012815 0.868777 1.269735 0.445517 0 0 0 255
3.306511 24.012815 -0.868769 1.208195 0.445517 0 0 0 255
3.306511 16.189074 -0.868769 1.208195 0.172477 0 0 0 255
3.306512 16.189074 -3.762531 1.393908 0.109811 0 0 0 255
-3.273734 24.012815 -3.762533 1.626964 -0.163229 0 0 0 255
-3.273734 16.189074 -3.762533 1.626964 0.109811 0 0 0 255
-3.273735 16.189074 0.868775 0.981533 0.109811 0 0 0 255
-3.273736 16.189074 4.374727 1.105705 0.109811 0 0 0 255
3.306512 16.189074 -3.762531 1.105706 0.172477 0 0 0 255
3.306512 11.583137 -3.762531 1.393908 0.270553 0 0 0 255
3.306512 24.012815 -3.762531 1.393907 -0.163229 0 0 0 255
-3.273734 30.726675 -3.762533 1.626964 -0.397535 0 0 0 255
3.306512 30.726675 -3.762531 1.105706 0.679823 0 0 0 255
3.306512 24.012815 -3.762531 1.105706 0.445517 0 0 0 255
-3.273735 24.012815 0.868775 0.981533 -0.163229 0 0 0 255
-3.273736 30.726675 4.374727 1.105705 -0.397535 0 0 0 255
-3.273736 24.012815 4.374727 1.105705 -0.163229 0 0 0 255
-3.273736 16.189074 4.374727 0.817503 1.187169 0 0 0 255
3.306509 24.012815 4.374729 1.050560 0.914129 0 0 0 255
-3.273734 16.189074 -3.762533 0.817504 0.109811 0 0 0 255
-3.273735 24.012815 -0.868772 0.919993 -0.163229 0 0 0 255
-3.273735 30.726675 -0.868772 0.428981 1.015980 0 0 0 255
3.306512 30.726675 -3.762531 0.662037 0.914991 0 0 0 255
3.306511 30.726675 -0.868769 0.662037 1.015980 0 0 0 255
-3.273735 30.726675 0.868775 0.428981 1.076618 0 0 0 255
3.306509 30.726675 4.374729 0.662037 1.198972 0 0 0 255
-3.273736 30.726675 4.374727 0.428981 1.198972 0 0 0 255
3.306511 30.726675 -0.868769 1.208195 0.679823 0 0 0 255
3.306509 24.012815 4.374729 1.393907 0.445517 0 0 0 255
3.306510 30.726675 0.868777 1.269735 0.679823 0 0 0 255
-3.273736 24.012815 4.374727 0.817503 0.914129 0 0 0 255
3.306509 30.726675 4.374729 1.050560 0.679823 0 0 0 255
-3.273734 24.012815 -3.762533 0.817503 -0.163229 0 0 0 255
-3.273735 30.726675 -0.868772 0.919993 -0.397535 0 0 0 255
-3.273735 30.726675 0.868775 0.981533 -0.397535 0 0 0 255
4.747837 32.198757 0.868778 -0.328825 -0.397535 0 0 0 255
-4.747838 32.198757 4.747838 -0.191437 0.914991 0 0 0 255
-4.747836 32.198757 -4.747835 0.481190 0.914990 0 0 0 255
4.747838 32.198757 -4.747832 0.481190 -0.397535 0 0 0 255
-4.747836 -5.410638 -4.747835 -0.191438 1.246379 0 0 0 255
4.747838 32.198757 -0.868769 -0.191437 1.050366 0 0 0 255
4.747838 -0.144168 -0.868769 0.144876 1.015980 0 0 0 255
4.747836 32.198757 4.747841 -0.191437 1.246379 0 0 0 255
-4.747838 -5.410638 0.868775 -0.191438 1.050366 0 0 0 255
3.306511 3.957414 -0.868769 0.713085 0.914991 0 0 0 255
3.306510 3.957414 0.868777 0.815181 0.914991 0 0 0 255
3.306510 -0.144168 0.868777 0.713085 1.058131 0 0 0 255
3.306512 -0.144168 -3.762531 0.195924 0.914991 0 0 0 255
-3.273734 -0.144168 -3.762533 0.817504 0.679823 0 0 0 255
-3.273736 -0.144168 4.374727 0.817504 1.757180 0 0 0 255
3.306509 -0.144168 4.374729 1.393907 -0.397535 0 0 0 255
-3.273736 -0.144168 4.374727 0.428981 1.198972 0 0 0 255
3.306512 30.726675 -3.762531 1.393907 -0.397535 0 0 0 255
-3.273734 30.726675 -3.762533 0.428981 0.914991 0 0 0 255
3.306510 30.726675 0.868777 0.662037 1.076618 0 0 0 255
3.306509 30.726675 4.374729 1.393907 0.679823 0 0 0 255
-3.273736 30.726675 4.374727 0.817503 0.679823 0 0 0 255
-3.273734 30.726675 -3.762533 0.817503 -0.397535 0 0 0 255
3 0 1 2
3 3 4 5
3 6 7 8
3 9 10 11
3 12 13 14
3 15 16 17
3 11 18 19
3 8 20 21
3 5 22 23
3 24 2 25
3 26 27 28
3 29 30 31
3 32 33 34
3 35 21 33
3 36 37 38
3 37 15 38
3 39 40 41
3 40 12 14
3 42 35 32
3 43 8 35
3 44 45 26
3 46 0 45
3 33 47 48
3 34 48 49
3 27 50 51
3 28 51 52
3 24 53 50
3 23 54 55
3 21 56 47
3 19 57 58
3 30 59 31
3 60 61 62
3 63 64 65
3 66 67 63
3 68 69 70
3 71 72 73
3 74 75 69
3 76 77 78
3 79 80 81
3 82 78 83
3 30 84 85
3 70 86 68
3 87 88 89
3 88 90 89
3 91 92 71
3 59 93 31
3 94 95 96
3 97 98 77
3 99 100 101
3 68 99 74
3 79 96 102
3 74 101 103
3 71 97 76
3 86 104 68
3 105 106 98
3 107 108 100
3 109 110 107
3 73 105 97
3 72 111 73
3 112 113 90
3 114 109 104
3 104 107 99
3 115 116 117
3 118 119 120
3 121 122 123
3 124 125 95
3 111 126 105
3 127 123 111
3 128 120 113
3 129 117 109
3 130 131 122
3 122 132 133
3 134 135 136
3 117 137 110
3 110 138 108
3 126 139 106
3 140 136 125
3 123 133 126
3 141 142 135
3 132 143 144
3 145 146 147
3 148 149 119
3 150 151 116
3 116 145 137
3 137 147 138
3 133 144 139
3 152 153 154
3 154 155 152
3 155 156 157
3 131 158 132
3 159 160 131
3 161 162 149
3 163 164 151
3 151 165 145
3 0 166 1
3 3 167 4
3 6 168 7
3 9 169 10
3 12 170 13
3 15 171 16
3 11 10 18
3 8 7 20
3 5 4 22
3 24 0 2
3 26 45 27
3 29 172 30
3 32 35 33
3 35 8 21
3 36 173 37
3 37 171 15
3 39 174 40
3 40 174 12
3 42 43 35
3 43 6 8
3 44 46 45
3 46 166 0
3 33 21 47
3 34 33 48
3 27 24 50
3 28 27 51
3 24 25 53
3 23 22 54
3 21 20 56
3 19 18 57
3 30 85 59
3 60 175 61
3 63 176 64
3 66 177 67
3 68 74 69
3 71 92 72
3 74 103 75
3 76 97 77
3 79 102 80
3 82 76 78
3 30 178 84
3 70 179 86
3 87 180 88
3 88 112 90
3 91 181 92
3 59 182 93
3 94 124 95
3 97 105 98
3 99 107 100
3 68 104 99
3 79 94 96
3 74 99 101
3 71 73 97
3 86 114 104
3 105 126 106
3 107 110 108
3 109 117 110
3 73 111 105
3 72 127 111
3 112 128 113
3 114 129 109
3 104 109 107
3 115 150 116
3 118 148 119
3 121 130 122
3 124 140 125
3 111 123 126
3 127 121 123
3 128 118 120
3 129 115 117
3 130 159 131
3 122 131 132
3 134 141 135
3 117 116 137
3 110 137 138
3 126 133 139
3 140 134 136
3 123 122 133
3 141 183 142
3 132 158 143
3 145 165 146
3 148 161 149
3 150 163 151
3 116 151 145
3 137 145 147
3 133 132 144
3 152 184 153
3 154 185 155
3 155 185 156
3 131 160 158
3 159 186 160
3 161 187 162
3 163 188 164
3 151 164 165
