ply
format ascii 1.0
comment Created by Blender 2.81 (sub 16) - www.blender.org, source file: 'suz.blend'
element vertex 115
property float x
property float y
property float z
property float s
property float t
property uchar red
property uchar green
property uchar blue
property uchar alpha
element face 168
property list uchar uint vertex_indices
end_header
-0.000000 0.923880 0.382683 0.750000 0.875000 255 255 255 255
-0.191342 0.923880 0.331414 0.666667 0.875000 255 255 255 255
0.000000 1.000000 0.000000 0.708333 1.000000 255 255 255 255
0.000000 -1.000000 0.000000 0.708333 0.000000 7 7 7 255
-0.191342 -0.923880 0.331414 0.666667 0.125000 4 4 4 255
0.000000 -0.923880 0.382683 0.750000 0.125000 0 0 0 255
0.000000 -0.707107 0.707107 0.750000 0.250000 0 0 0 255
-0.461940 -0.382684 0.800103 0.666667 0.375000 0 0 0 255
0.000000 -0.382684 0.923880 0.750000 0.375000 0 0 0 255
-0.000000 -0.000000 1.000000 0.750000 0.500000 2 2 2 255
-0.461940 0.382683 0.800103 0.666667 0.625000 147 147 147 255
-0.000000 0.382683 0.923880 0.750000 0.625000 147 147 147 255
-0.353553 0.707107 0.612372 0.666667 0.750000 204 204 204 255
0.000000 0.707107 0.707107 0.750000 0.750000 204 204 204 255
-0.866025 -0.000000 0.500000 0.583333 0.500000 0 0 0 255
-0.500000 -0.000000 0.866025 0.666667 0.500000 0 0 0 255
-0.331414 0.923880 0.191342 0.583333 0.875000 255 255 255 255
-0.331414 -0.923880 0.191342 0.583333 0.125000 3 3 3 255
-0.353553 -0.707107 0.612372 0.666667 0.250000 0 0 0 255
-0.800103 -0.382684 0.461940 0.583333 0.375000 0 0 0 255
-0.612372 0.707107 0.353553 0.583333 0.750000 204 204 204 255
0.000000 1.000000 0.000000 0.625000 1.000000 255 255 255 255
0.000000 -1.000000 0.000000 0.625000 0.000000 7 7 7 255
-0.612372 -0.707107 0.353553 0.583333 0.250000 0 0 0 255
-0.382683 -0.923880 0.000000 0.500000 0.125000 0 0 0 255
-1.000000 -0.000000 0.000000 0.500000 0.500000 0 0 0 255
-0.800103 0.382683 0.461940 0.583333 0.625000 147 147 147 255
-0.707107 0.707107 0.000000 0.500000 0.750000 204 204 204 255
-0.382683 0.923880 0.000000 0.500000 0.875000 255 255 255 255
0.000000 1.000000 0.000000 0.541667 1.000000 255 255 255 255
0.000000 -1.000000 0.000000 0.541667 0.000000 7 7 7 255
-0.707107 -0.707107 0.000000 0.500000 0.250000 0 0 0 255
-0.923880 0.382683 0.000000 0.500000 0.625000 147 147 147 255
-0.612372 0.707107 -0.353553 0.416667 0.750000 204 204 204 255
-0.331414 0.923880 -0.191341 0.416667 0.875000 255 255 255 255
0.000000 1.000000 0.000000 0.458333 1.000000 255 255 255 255
0.000000 -1.000000 0.000000 0.458333 0.000000 7 7 7 255
-0.331414 -0.923880 -0.191342 0.416667 0.125000 0 0 0 255
-0.612372 -0.707107 -0.353553 0.416667 0.250000 0 0 0 255
-0.923880 -0.382684 0.000000 0.500000 0.375000 0 0 0 255
-0.866025 -0.000000 -0.500000 0.416667 0.500000 0 0 0 255
0.000000 -1.000000 0.000000 0.375000 0.000000 7 7 7 255
-0.191342 -0.923880 -0.331413 0.333333 0.125000 0 0 0 255
-0.353553 -0.707107 -0.612372 0.333333 0.250000 2 2 2 255
-0.800103 -0.382684 -0.461940 0.416667 0.375000 0 0 0 255
-0.500000 -0.000000 -0.866025 0.333333 0.500000 0 0 0 255
-0.800103 0.382683 -0.461940 0.416667 0.625000 147 147 147 255
-0.191342 0.923880 -0.331413 0.333333 0.875000 255 255 255 255
-0.461940 0.382683 -0.800103 0.333333 0.625000 147 147 147 255
0.000000 1.000000 0.000000 0.375000 1.000000 255 255 255 255
-0.353553 0.707107 -0.612372 0.333333 0.750000 204 204 204 255
0.000000 0.923880 -0.382683 0.250000 0.875000 255 255 255 255
0.000000 -0.923880 -0.382683 0.250000 0.125000 0 0 0 255
0.000000 -0.382684 -0.923879 0.250000 0.375000 0 0 0 255
-0.461940 -0.382684 -0.800103 0.333333 0.375000 0 0 0 255
0.000000 0.382683 -0.923879 0.250000 0.625000 147 147 147 255
0.000000 1.000000 0.000000 0.291667 1.000000 255 255 255 255
0.000000 -1.000000 0.000000 0.291667 0.000000 7 7 7 255
0.000000 -0.707107 -0.707106 0.250000 0.250000 6 6 6 255
0.000000 -0.000000 -1.000000 0.250000 0.500000 0 0 0 255
0.191342 -0.923880 -0.331413 0.166667 0.125000 0 0 0 255
0.461940 -0.382684 -0.800103 0.166667 0.375000 0 0 0 255
0.353553 0.707107 -0.612372 0.166667 0.750000 204 204 204 255
0.000000 0.707107 -0.707106 0.250000 0.750000 204 204 204 255
0.191342 0.923880 -0.331413 0.166667 0.875000 255 255 255 255
0.000000 1.000000 0.000000 0.208333 1.000000 255 255 255 255
0.000000 -1.000000 0.000000 0.208333 0.000000 7 7 7 255
0.353553 -0.707107 -0.612372 0.166667 0.250000 3 3 3 255
0.500000 -0.000000 -0.866025 0.166667 0.500000 20 20 20 255
0.331414 0.923880 -0.191341 0.083333 0.875000 255 255 255 255
0.000000 1.000000 0.000000 0.125000 1.000000 255 255 255 255
0.000000 -1.000000 0.000000 0.125000 0.000000 7 7 7 255
0.331414 -0.923880 -0.191341 0.083333 0.125000 0 0 0 255
0.800103 -0.382684 -0.461940 0.083333 0.375000 0 0 0 255
0.866025 -0.000000 -0.500000 0.083333 0.500000 0 0 0 255
0.461940 0.382683 -0.800103 0.166667 0.625000 147 147 147 255
0.612372 0.707107 -0.353553 0.083333 0.750000 204 204 204 255
0.800103 0.382683 -0.461940 0.083333 0.625000 147 147 147 255
0.612372 -0.707107 -0.353553 0.083333 0.250000 0 0 0 255
0.923880 -0.382684 0.000000 0.000000 0.375000 0 0 0 255
0.923880 0.382683 0.000000 0.000000 0.625000 147 147 147 255
0.382683 0.923880 0.000000 0.000000 0.875000 255 255 255 255
0.382683 -0.923880 0.000000 0.000000 0.125000 0 0 0 255
0.000000 1.000000 0.000000 0.041667 1.000000 255 255 255 255
0.000000 -1.000000 0.000000 0.041667 0.000000 7 7 7 255
0.331414 -0.923880 0.191342 0.916667 0.125000 0 0 0 255
0.707107 -0.707107 0.000000 1.000000 0.250000 1 1 1 255
0.382683 -0.923880 0.000000 1.000000 0.125000 0 0 0 255
0.800103 -0.382684 0.461940 0.916667 0.375000 0 0 0 255
1.000000 -0.000000 0.000000 1.000000 0.500000 0 0 0 255
0.923880 -0.382684 0.000000 1.000000 0.375000 0 0 0 255
0.800103 0.382683 0.461940 0.916667 0.625000 147 147 147 255
0.707107 0.707107 0.000000 1.000000 0.750000 204 204 204 255
0.923880 0.382683 0.000000 1.000000 0.625000 147 147 147 255
0.382683 0.923880 0.000000 1.000000 0.875000 255 255 255 255
0.331414 0.923880 0.191342 0.916667 0.875000 255 255 255 255
0.000000 1.000000 0.000000 0.958333 1.000000 255 255 255 255
0.000000 -1.000000 0.000000 0.958333 0.000000 7 7 7 255
0.461940 -0.382684 0.800103 0.833333 0.375000 0 0 0 255
0.866025 -0.000000 0.500000 0.916667 0.500000 0 0 0 255
0.461940 0.382683 0.800103 0.833333 0.625000 147 147 147 255
0.612372 0.707107 0.353554 0.916667 0.750000 204 204 204 255
0.191342 0.923880 0.331414 0.833333 0.875000 255 255 255 255
0.000000 1.000000 0.000000 0.875000 1.000000 255 255 255 255
0.000000 -1.000000 0.000000 0.875000 0.000000 7 7 7 255
0.191342 -0.923880 0.331414 0.833333 0.125000 0 0 0 255
0.612372 -0.707107 0.353554 0.916667 0.250000 0 0 0 255
0.500000 -0.000000 0.866025 0.833333 0.500000 1 1 1 255
0.000000 -1.000000 0.000000 0.791667 0.000000 7 7 7 255
0.353553 -0.707107 0.612373 0.833333 0.250000 0 0 0 255
0.353553 0.707107 0.612373 0.833333 0.750000 204 204 204 255
0.000000 1.000000 0.000000 0.791667 1.000000 255 255 255 255
0.707107 -0.707107 0.000000 0.000000 0.250000 1 1 1 255
1.000000 -0.000000 0.000000 0.000000 0.500000 0 0 0 255
0.707107 0.707107 0.000000 0.000000 0.750000 204 204 204 255
3 0 1 2
3 3 4 5
3 6 7 8
3 9 10 11
3 12 0 13
3 4 6 5
3 7 9 8
3 10 13 11
3 14 10 15
3 12 16 1
3 17 18 4
3 19 15 7
3 10 20 12
3 1 16 21
3 22 17 4
3 23 7 18
3 24 23 17
3 19 25 14
3 26 27 20
3 16 28 29
3 30 24 17
3 31 19 23
3 25 26 14
3 27 16 20
3 32 33 27
3 28 34 35
3 36 37 24
3 38 39 31
3 40 32 25
3 27 34 28
3 37 31 24
3 39 40 25
3 41 42 37
3 43 44 38
3 45 46 40
3 33 47 34
3 42 38 37
3 44 45 40
3 48 33 46
3 34 47 49
3 50 51 47
3 52 43 42
3 53 45 54
3 55 50 48
3 47 51 56
3 57 52 42
3 58 54 43
3 59 48 45
3 60 58 52
3 61 59 53
3 55 62 63
3 51 64 65
3 66 60 52
3 67 53 58
3 68 55 59
3 63 64 51
3 64 69 70
3 71 72 60
3 67 73 61
3 74 75 68
3 76 64 62
3 72 67 60
3 73 68 61
3 77 62 75
3 78 79 73
3 74 80 77
3 76 81 69
3 82 78 72
3 79 74 73
3 80 76 77
3 69 81 83
3 84 82 72
3 85 86 87
3 88 89 90
3 91 92 93
3 94 95 96
3 97 85 87
3 86 88 90
3 89 91 93
3 92 95 94
3 98 99 88
3 100 101 91
3 95 102 103
3 104 105 85
3 106 98 88
3 107 91 99
3 101 102 95
3 105 106 85
3 108 5 105
3 109 8 98
3 107 11 100
3 13 102 110
3 5 109 105
3 8 107 98
3 11 110 100
3 102 0 111
3 6 18 7
3 9 15 10
3 12 1 0
3 4 18 6
3 7 15 9
3 10 12 13
3 14 26 10
3 12 20 16
3 17 23 18
3 19 14 15
3 10 26 20
3 23 19 7
3 24 31 23
3 19 39 25
3 26 32 27
3 31 39 19
3 25 32 26
3 27 28 16
3 32 46 33
3 38 44 39
3 40 46 32
3 27 33 34
3 37 38 31
3 39 44 40
3 43 54 44
3 45 48 46
3 33 50 47
3 42 43 38
3 44 54 45
3 48 50 33
3 50 63 51
3 52 58 43
3 53 59 45
3 55 63 50
3 58 53 54
3 59 55 48
3 60 67 58
3 61 68 59
3 55 75 62
3 67 61 53
3 68 75 55
3 63 62 64
3 67 78 73
3 74 77 75
3 76 69 64
3 72 78 67
3 73 74 68
3 77 76 62
3 78 112 79
3 74 113 80
3 76 114 81
3 82 112 78
3 79 113 74
3 80 114 76
3 85 106 86
3 88 99 89
3 91 101 92
3 86 106 88
3 89 99 91
3 92 101 95
3 98 107 99
3 100 110 101
3 106 109 98
3 107 100 91
3 101 110 102
3 105 109 106
3 109 6 8
3 107 9 11
3 13 0 102
3 5 6 109
3 8 9 107
3 11 13 110
