ply
format ascii 1.0
comment Created by Blender 2.81 (sub 16) - www.blender.org, source file: 'suz.blend'
element vertex 208
property float x
property float y
property float z
property float s
property float t
property uchar red
property uchar green
property uchar blue
property uchar alpha
element face 184
property list uchar uint vertex_indices
end_header
-0.300771 1.460247 -13.531620 0.353084 0.093135 0 0 0 255
-0.462482 -0.456696 -14.118135 0.461389 0.060349 0 0 0 255
-0.300771 -0.539753 -13.531620 0.465928 0.093639 0 0 0 255
0.392098 1.543304 -14.118135 0.876468 0.826330 0 0 0 255
-0.462482 1.370047 -14.539127 0.828196 0.850040 0 0 0 255
-0.462482 1.543304 -14.118135 0.828253 0.826397 0 0 0 255
0.348681 -0.364784 -3.098535 0.600172 0.202836 0 0 0 255
0.392098 1.543304 -1.305336 0.493181 0.102511 0 0 0 255
0.392098 -0.456696 -1.305336 0.606025 0.103251 0 0 0 255
0.392098 1.543304 -1.305336 0.875274 0.113980 0 0 0 255
0.006281 1.647695 -0.658641 0.853503 0.077914 0 0 0 255
0.860861 1.647695 -0.658641 0.901719 0.077847 0 0 0 255
0.348681 -0.364784 -3.098535 0.672813 0.673298 0 0 0 255
-0.462482 -0.456696 -1.305336 0.625668 0.772448 0 0 0 255
-0.505899 -0.364784 -3.098535 0.624601 0.672670 0 0 0 255
0.348681 1.635216 -3.098535 0.873042 0.213554 0 0 0 255
-0.462482 1.543304 -1.305336 0.827058 0.114048 0 0 0 255
0.553808 1.460247 -13.531620 0.885491 0.793822 0 0 0 255
-0.013954 1.747289 -12.316833 0.853503 0.725937 0 0 0 255
0.840625 1.747289 -12.316833 0.901719 0.725870 0 0 0 255
0.157348 1.543597 -10.459335 0.862883 0.622931 0 0 0 255
-0.229296 1.770066 -8.611574 0.841021 0.519922 0 0 0 255
0.616669 1.695843 -8.630157 0.888711 0.520991 0 0 0 255
0.324503 1.509266 -6.816825 0.871955 0.420453 0 0 0 255
-0.530076 1.509266 -6.816825 0.823740 0.420520 0 0 0 255
0.148341 1.537345 -4.965558 0.861859 0.317504 0 0 0 255
-0.505899 1.635216 -3.098535 0.824826 0.213621 0 0 0 255
0.553808 -0.539753 -13.531620 0.692030 0.093348 0 0 0 255
-0.013954 -0.252711 -12.316833 0.659258 0.160385 0 0 0 255
-0.300771 -0.539753 -13.531620 0.643819 0.092720 0 0 0 255
0.454597 -0.447550 -10.454503 0.684201 0.264355 0 0 0 255
-0.395966 -0.498326 -10.467129 0.636197 0.263045 0 0 0 255
0.181810 -0.285173 -8.629263 0.667548 0.365597 0 0 0 255
-0.664156 -0.210950 -8.610680 0.619850 0.365984 0 0 0 255
-0.530076 -0.490734 -6.816825 0.625926 0.465929 0 0 0 255
0.148341 -0.462655 -4.965558 0.662841 0.569363 0 0 0 255
-0.680021 -0.579171 -5.039271 0.616099 0.564694 0 0 0 255
0.553808 1.460247 -13.531620 0.493358 0.779824 0 0 0 255
0.840625 -0.252711 -12.316833 0.590479 0.711883 0 0 0 255
0.553808 -0.539753 -13.531620 0.606201 0.780564 0 0 0 255
0.157348 1.543597 -10.459335 0.489759 0.611106 0 0 0 255
0.454597 -0.447550 -10.454503 0.602129 0.610318 0 0 0 255
0.181810 -0.285173 -8.629263 0.593620 0.510199 0 0 0 255
0.324503 1.509266 -6.816825 0.493057 0.408430 0 0 0 255
0.324503 -0.490734 -6.816825 0.605901 0.409169 0 0 0 255
0.148341 -0.462655 -4.965558 0.604987 0.307248 0 0 0 255
0.148341 1.537345 -4.965558 0.492143 0.306508 0 0 0 255
-0.462482 1.543304 -1.305336 0.345210 0.769769 0 0 0 255
-0.505899 -0.364784 -3.098535 0.453334 0.670687 0 0 0 255
-0.462482 -0.456696 -1.305336 0.458055 0.770274 0 0 0 255
-0.680021 1.420829 -5.039271 0.353084 0.561873 0 0 0 255
-0.680021 -0.579171 -5.039271 0.465928 0.562378 0 0 0 255
-0.530076 -0.490734 -6.816825 0.461407 0.464582 0 0 0 255
-0.530076 1.509266 -6.816825 0.348562 0.464077 0 0 0 255
-0.664156 -0.210950 -8.610680 0.446082 0.364478 0 0 0 255
-0.693214 1.492821 -10.471960 0.350435 0.260780 0 0 0 255
-0.395966 -0.498326 -10.467129 0.462790 0.262970 0 0 0 255
-0.013954 -0.252711 -12.316833 0.449428 0.162245 0 0 0 255
0.392098 -0.456696 -14.118135 0.601285 0.813740 0 0 0 255
0.392098 -0.456696 -14.118135 0.683389 0.060586 0 0 0 255
-0.462482 -0.456696 -14.118135 0.635177 0.059958 0 0 0 255
-0.300771 1.460247 -13.531620 0.837276 0.793890 0 0 0 255
-0.462482 1.370047 -14.539127 0.054727 0.879069 0 0 0 255
0.392098 -0.456696 -14.539127 0.102945 0.980661 0 0 0 255
-0.462482 -0.456696 -14.539127 0.054727 0.980661 0 0 0 255
-0.462482 1.370047 -14.539127 0.358429 0.036562 0 0 0 255
-0.462482 -0.456696 -14.539127 0.461498 0.037023 0 0 0 255
0.392098 1.370047 -14.539127 0.498061 0.836409 0 0 0 255
0.392098 1.543304 -14.118135 0.488441 0.813000 0 0 0 255
0.392098 -0.456696 -14.539127 0.683701 0.037176 0 0 0 255
0.671978 1.537392 -0.128022 0.890952 0.048512 0 0 0 255
0.860861 -0.352305 -0.658641 0.600413 0.065371 0 0 0 255
0.006281 -0.352305 -0.658641 0.452014 0.808318 0 0 0 255
0.006281 1.647695 -0.658641 0.339170 0.807814 0 0 0 255
0.392098 -0.456696 -1.305336 0.673880 0.773076 0 0 0 255
0.006281 -0.352305 -0.658641 0.651692 0.808719 0 0 0 255
0.671978 1.537392 -0.128022 0.473897 0.882627 0 0 0 255
0.224522 -0.506536 0.056922 0.519365 0.990504 0 0 0 255
1.002522 -0.451410 -0.159701 0.473897 0.994762 0 0 0 255
0.671978 1.537392 -0.128022 0.493974 0.036047 0 0 0 255
1.002522 -0.451410 -0.159701 0.606201 0.037142 0 0 0 255
0.860861 -0.352305 -0.658641 0.699904 0.809347 0 0 0 255
0.224522 -0.506536 0.056922 0.663387 0.848722 0 0 0 255
-0.106022 1.482265 0.088602 0.348305 0.848722 0 0 0 255
-0.300771 -0.539753 0.787000 0.173507 0.791597 0 0 0 255
-0.462482 1.370854 0.200484 0.280097 0.828485 0 0 0 255
-0.462482 -0.456696 0.200484 0.177042 0.825006 0 0 0 255
0.392098 1.370854 0.200484 0.970758 0.826566 0 0 0 255
-0.462482 1.370047 -0.220508 0.922581 0.850040 0 0 0 255
-0.462482 1.370854 0.200484 0.922543 0.826633 0 0 0 255
0.348681 -0.364784 11.220085 0.035144 0.672595 0 0 0 255
0.392098 1.543304 13.013285 0.145365 0.769462 0 0 0 255
0.392098 -0.456696 13.013285 0.032556 0.772314 0 0 0 255
0.392098 1.543304 13.013285 0.969659 0.113980 0 0 0 255
0.006281 1.647695 13.659979 0.947888 0.077914 0 0 0 255
0.860861 1.647695 13.659979 0.996104 0.077847 0 0 0 255
0.348681 -0.364784 11.220085 0.772199 0.673298 0 0 0 255
-0.462482 -0.456696 13.013285 0.725054 0.772448 0 0 0 255
-0.505899 -0.364784 11.220085 0.723987 0.672670 0 0 0 255
0.348681 1.635216 11.220085 0.967427 0.213554 0 0 0 255
-0.462482 1.543304 13.013285 0.921443 0.114048 0 0 0 255
0.553808 1.460247 0.787000 0.979877 0.793823 0 0 0 255
-0.013954 1.747289 2.001787 0.947888 0.725937 0 0 0 255
0.840625 1.747289 2.001787 0.996104 0.725870 0 0 0 255
0.157348 2.035597 3.859284 0.957539 0.622259 0 0 0 255
-0.229296 1.770066 5.707046 0.935406 0.519922 0 0 0 255
0.616669 1.695843 5.688462 0.983096 0.520991 0 0 0 255
0.324503 1.229603 7.501794 0.966186 0.420835 0 0 0 255
-0.530076 1.229603 7.501794 0.917971 0.420902 0 0 0 255
0.148341 1.894692 9.353062 0.956441 0.317016 0 0 0 255
-0.505899 1.635216 11.220085 0.919212 0.213621 0 0 0 255
0.553808 -0.539753 0.787000 0.791416 0.093348 0 0 0 255
-0.013954 -0.252711 2.001787 0.758644 0.160385 0 0 0 255
-0.300771 -0.539753 0.787000 0.743205 0.092720 0 0 0 255
0.454597 0.044450 3.864117 0.783862 0.264190 0 0 0 255
-0.395966 -0.006326 3.851491 0.735858 0.262880 0 0 0 255
0.181810 -0.285173 5.689357 0.766934 0.365597 0 0 0 255
-0.664156 -0.210950 5.707940 0.719236 0.365984 0 0 0 255
-0.530076 -0.770397 7.501794 0.725156 0.466023 0 0 0 255
0.148341 -0.105308 9.353062 0.762427 0.569242 0 0 0 255
-0.680021 -0.221823 9.279348 0.715684 0.564574 0 0 0 255
0.553808 1.460247 0.787000 0.123001 0.092509 0 0 0 255
0.840625 -0.252711 2.001787 0.028156 0.163504 0 0 0 255
0.553808 -0.539753 0.787000 0.010192 0.095361 0 0 0 255
0.840625 1.747289 2.001787 0.140964 0.160653 0 0 0 255
0.454597 0.044450 3.864117 0.047590 0.264686 0 0 0 255
0.616669 1.695843 5.688462 0.143384 0.364148 0 0 0 255
0.181810 -0.285173 5.689357 0.031623 0.365184 0 0 0 255
0.324503 1.229603 7.501794 0.119693 0.464098 0 0 0 255
0.324503 -0.770397 7.501794 0.006885 0.466950 0 0 0 255
0.148341 -0.105308 9.353062 0.047067 0.567881 0 0 0 255
0.348681 1.635216 11.220085 0.147953 0.669743 0 0 0 255
-0.462482 1.543304 13.013285 0.314546 0.119299 0 0 0 255
-0.505899 -0.364784 11.220085 0.203484 0.215173 0 0 0 255
-0.462482 -0.456696 13.013285 0.201766 0.115491 0 0 0 255
-0.505899 1.635216 11.220085 0.316264 0.218981 0 0 0 255
-0.680021 -0.221823 9.279348 0.207782 0.323746 0 0 0 255
-0.530076 1.229603 7.501794 0.286214 0.424226 0 0 0 255
-0.530076 -0.770397 7.501794 0.173434 0.420418 0 0 0 255
-0.664156 -0.210950 5.707940 0.201505 0.521459 0 0 0 255
-0.229296 1.770066 5.707046 0.313259 0.523204 0 0 0 255
-0.395966 -0.006326 3.851491 0.209490 0.623369 0 0 0 255
-0.013954 1.747289 2.001787 0.304848 0.727312 0 0 0 255
-0.013954 -0.252711 2.001787 0.192068 0.723504 0 0 0 255
0.392098 1.370854 0.200484 0.117101 0.059439 0 0 0 255
0.392098 -0.456696 0.200484 0.014019 0.062045 0 0 0 255
0.392098 -0.456696 0.200484 0.782775 0.060586 0 0 0 255
-0.462482 -0.456696 0.200484 0.734563 0.059958 0 0 0 255
-0.300771 1.460247 0.787000 0.931661 0.793890 0 0 0 255
-0.300771 1.460247 0.787000 0.286287 0.795405 0 0 0 255
-0.462482 1.370047 -0.220508 0.002170 0.879069 0 0 0 255
0.392098 -0.456696 -0.220508 0.050388 0.980661 0 0 0 255
-0.462482 -0.456696 -0.220508 0.002170 0.980661 0 0 0 255
-0.462482 1.370047 -0.220508 0.279239 0.851796 0 0 0 255
-0.462482 -0.456696 -0.220508 0.176229 0.848318 0 0 0 255
0.392098 1.370047 -0.220508 0.116447 0.036103 0 0 0 255
0.392098 -0.456696 -0.220508 0.783087 0.037176 0 0 0 255
0.671978 1.537392 14.190598 0.985337 0.048512 0 0 0 255
0.860861 -0.352305 13.659979 0.039406 0.809996 0 0 0 255
0.006281 -0.352305 13.659979 0.208950 0.077641 0 0 0 255
0.006281 1.647695 13.659979 0.321730 0.081448 0 0 0 255
0.392098 -0.456696 13.013285 0.773266 0.773076 0 0 0 255
0.006281 -0.352305 13.659979 0.751078 0.808719 0 0 0 255
0.671978 1.537392 14.190598 0.523457 0.882627 0 0 0 255
0.224522 -0.506536 14.375542 0.568925 0.990504 0 0 0 255
1.002522 -0.451410 14.158918 0.523457 0.994762 0 0 0 255
0.671978 1.537392 14.190598 0.146750 0.835918 0 0 0 255
1.002522 -0.451410 14.158918 0.034545 0.838395 0 0 0 255
0.860861 -0.352305 13.659979 0.799290 0.809347 0 0 0 255
0.224522 -0.506536 14.375542 0.762773 0.848722 0 0 0 255
-0.106022 1.482265 14.407222 0.313831 0.040291 0 0 0 255
-0.462482 1.543304 -14.118135 0.348544 0.059844 0 0 0 255
0.392098 1.370047 -14.539127 0.876412 0.849972 0 0 0 255
0.348681 1.635216 -3.098535 0.487329 0.202096 0 0 0 255
-0.693214 1.492821 -10.471960 0.814867 0.623769 0 0 0 255
-0.680021 1.420829 -5.039271 0.815065 0.321826 0 0 0 255
0.840625 -0.252711 -12.316833 0.707470 0.161013 0 0 0 255
0.324503 -0.490734 -6.816825 0.674138 0.466557 0 0 0 255
0.840625 1.747289 -12.316833 0.477636 0.711144 0 0 0 255
0.616669 1.695843 -8.630157 0.481884 0.507678 0 0 0 255
-0.505899 1.635216 -3.098535 0.340489 0.670182 0 0 0 255
-0.229296 1.770066 -8.611574 0.334325 0.366006 0 0 0 255
-0.013954 1.747289 -12.316833 0.336583 0.161741 0 0 0 255
0.392098 1.370047 -14.539127 0.102945 0.879069 0 0 0 255
0.392098 -0.456696 -14.539127 0.601129 0.837084 0 0 0 255
-0.462482 -0.456696 -14.539127 0.635490 0.036548 0 0 0 255
-0.106022 1.482265 0.088602 0.847006 0.036605 0 0 0 255
0.860861 1.647695 -0.658641 0.487570 0.064631 0 0 0 255
-0.106022 1.482265 0.088602 0.519365 0.878369 0 0 0 255
1.002522 -0.451410 -0.159701 0.707470 0.837229 0 0 0 255
0.224522 -0.506536 0.056922 0.460538 0.849047 0 0 0 255
0.392098 1.370047 -0.220508 0.970797 0.849972 0 0 0 255
-0.693214 1.984821 3.846660 0.909523 0.623097 0 0 0 255
-0.680021 1.778177 9.279348 0.909647 0.321338 0 0 0 255
0.840625 -0.252711 2.001787 0.806856 0.161013 0 0 0 255
0.324503 -0.770397 7.501794 0.773368 0.466651 0 0 0 255
0.157348 2.035597 3.859284 0.159876 0.260322 0 0 0 255
0.148341 1.894692 9.353062 0.159876 0.565029 0 0 0 255
-0.680021 1.778177 9.279348 0.320562 0.327553 0 0 0 255
-0.693214 1.984821 3.846660 0.321730 0.628847 0 0 0 255
0.392098 1.370047 -0.220508 0.050388 0.879069 0 0 0 255
0.392098 -0.456696 -0.220508 0.013410 0.038708 0 0 0 255
-0.462482 -0.456696 -0.220508 0.734876 0.036548 0 0 0 255
-0.106022 1.482265 14.407222 0.941391 0.036605 0 0 0 255
0.860861 1.647695 13.659979 0.152214 0.807144 0 0 0 255
-0.106022 1.482265 14.407222 0.568925 0.878369 0 0 0 255
1.002522 -0.451410 14.158918 0.806856 0.837229 0 0 0 255
0.224522 -0.506536 14.375542 0.201657 0.036680 0 0 0 255
3 0 1 2
3 3 4 5
3 6 7 8
3 9 10 11
3 12 13 14
3 15 16 9
3 17 18 19
3 18 20 19
3 20 21 22
3 21 23 22
3 24 25 23
3 25 26 15
3 27 28 29
3 28 30 31
3 31 32 33
3 32 34 33
3 34 35 36
3 35 14 36
3 37 38 39
3 38 40 41
3 40 42 41
3 42 43 44
3 43 45 44
3 46 6 45
3 47 48 49
3 48 50 51
3 50 52 51
3 53 54 52
3 54 55 56
3 55 57 56
3 58 37 39
3 59 29 60
3 3 61 17
3 57 0 2
3 62 63 64
3 1 65 66
3 58 67 68
3 60 69 59
3 10 70 11
3 7 71 8
3 47 72 73
3 74 75 13
3 76 77 78
3 71 79 80
3 81 82 75
3 72 83 73
3 84 85 86
3 87 88 89
3 90 91 92
3 93 94 95
3 96 97 98
3 99 100 93
3 101 102 103
3 102 104 103
3 104 105 106
3 105 107 106
3 108 109 107
3 109 110 99
3 111 112 113
3 112 114 115
3 115 116 117
3 116 118 117
3 118 119 120
3 119 98 120
3 121 122 123
3 124 125 122
3 125 126 127
3 127 128 129
3 128 130 129
3 130 131 90
3 132 133 134
3 135 136 133
3 136 137 138
3 137 139 138
3 140 141 139
3 141 142 143
3 144 123 145
3 146 113 147
3 87 148 101
3 143 149 84
3 150 151 152
3 86 153 154
3 145 155 144
3 147 156 146
3 94 157 95
3 91 158 92
3 132 159 160
3 161 162 97
3 163 164 165
3 158 166 167
3 168 169 162
3 159 170 160
3 0 171 1
3 3 172 4
3 6 173 7
3 9 16 10
3 12 74 13
3 15 26 16
3 17 61 18
3 18 174 20
3 20 174 21
3 21 24 23
3 24 175 25
3 25 175 26
3 27 176 28
3 28 176 30
3 31 30 32
3 32 177 34
3 34 177 35
3 35 12 14
3 37 178 38
3 38 178 40
3 40 179 42
3 42 179 43
3 43 46 45
3 46 173 6
3 47 180 48
3 48 180 50
3 50 53 52
3 53 181 54
3 54 181 55
3 55 182 57
3 58 68 37
3 59 27 29
3 3 5 61
3 57 182 0
3 62 183 63
3 1 171 65
3 58 184 67
3 60 185 69
3 10 186 70
3 7 187 71
3 47 49 72
3 74 81 75
3 76 188 77
3 71 187 79
3 81 189 82
3 72 190 83
3 84 149 85
3 87 191 88
3 90 131 91
3 93 100 94
3 96 161 97
3 99 110 100
3 101 148 102
3 102 192 104
3 104 192 105
3 105 108 107
3 108 193 109
3 109 193 110
3 111 194 112
3 112 194 114
3 115 114 116
3 116 195 118
3 118 195 119
3 119 96 98
3 121 124 122
3 124 196 125
3 125 196 126
3 127 126 128
3 128 197 130
3 130 197 131
3 132 135 133
3 135 198 136
3 136 198 137
3 137 140 139
3 140 199 141
3 141 199 142
3 144 121 123
3 146 111 113
3 87 89 148
3 143 142 149
3 150 200 151
3 86 85 153
3 145 201 155
3 147 202 156
3 94 203 157
3 91 204 158
3 132 134 159
3 161 168 162
3 163 205 164
3 158 204 166
3 168 206 169
3 159 207 170
